<ttFont>
    <TTGlyph name="A" xMin="70" yMin="0" xMax="3161" yMax="1291">
      <contour>
        <pt x="70" y="94" on="1"/>
        <pt x="99" y="94" on="0"/>
        <pt x="199" y="128" on="0"/>
        <pt x="319" y="203" on="0"/>
        <pt x="449" y="321" on="0"/>
        <pt x="509" y="406" on="1"/>
        <pt x="1131" y="1291" on="1"/>
        <pt x="2140" y="1291" on="1"/>
        <pt x="2685" y="428" on="1"/>
        <pt x="2742" y="338" on="0"/>
        <pt x="2876" y="211" on="0"/>
        <pt x="3007" y="131" on="0"/>
        <pt x="3122" y="94" on="0"/>
        <pt x="3161" y="94" on="1"/>
        <pt x="3161" y="0" on="1"/>
        <pt x="1240" y="0" on="1"/>
        <pt x="1240" y="94" on="1"/>
        <pt x="1284" y="94" on="0"/>
        <pt x="1371" y="118" on="0"/>
        <pt x="1440" y="167" on="0"/>
        <pt x="1482" y="241" on="0"/>
        <pt x="1482" y="291" on="1"/>
        <pt x="1482" y="312" on="0"/>
        <pt x="1472" y="346" on="1"/>
        <pt x="675" y="346" on="1"/>
        <pt x="670" y="332" on="0"/>
        <pt x="666" y="310" on="0"/>
        <pt x="666" y="300" on="1"/>
        <pt x="666" y="249" on="0"/>
        <pt x="708" y="172" on="0"/>
        <pt x="777" y="120" on="0"/>
        <pt x="864" y="94" on="0"/>
        <pt x="909" y="94" on="1"/>
        <pt x="909" y="0" on="1"/>
        <pt x="70" y="0" on="1"/>
      </contour>
      <contour>
        <pt x="1412" y="485" on="1"/>
        <pt x="1391" y="525" on="0"/>
        <pt x="1335" y="630" on="0"/>
        <pt x="1259" y="764" on="0"/>
        <pt x="1164" y="930" on="0"/>
        <pt x="1104" y="1032" on="1"/>
        <pt x="1035" y="928" on="0"/>
        <pt x="923" y="760" on="0"/>
        <pt x="836" y="626" on="0"/>
        <pt x="771" y="524" on="0"/>
        <pt x="748" y="485" on="1"/>
      </contour>
    </TTGlyph>
    <TTGlyph name="AE" xMin="-168" yMin="0" xMax="3467" yMax="1291">
      <contour>
        <pt x="-168" y="94" on="1"/>
        <pt x="-105" y="94" on="0"/>
        <pt x="28" y="150" on="0"/>
        <pt x="171" y="252" on="0"/>
        <pt x="324" y="395" on="0"/>
        <pt x="406" y="482" on="1"/>
        <pt x="1165" y="1291" on="1"/>
        <pt x="3356" y="1291" on="1"/>
        <pt x="3369" y="1227" on="0"/>
        <pt x="3388" y="1086" on="0"/>
        <pt x="3401" y="945" on="0"/>
        <pt x="3407" y="808" on="0"/>
        <pt x="3407" y="749" on="1"/>
        <pt x="3302" y="749" on="1"/>
        <pt x="3255" y="804" on="0"/>
        <pt x="3119" y="910" on="0"/>
        <pt x="2952" y="1007" on="0"/>
        <pt x="2756" y="1089" on="0"/>
        <pt x="2545" y="1148" on="0"/>
        <pt x="2321" y="1182" on="0"/>
        <pt x="2208" y="1182" on="1"/>
        <pt x="2208" y="686" on="1"/>
        <pt x="2245" y="697" on="0"/>
        <pt x="2345" y="740" on="0"/>
        <pt x="2454" y="794" on="0"/>
        <pt x="2565" y="854" on="0"/>
        <pt x="2661" y="908" on="0"/>
        <pt x="2734" y="953" on="0"/>
        <pt x="2751" y="965" on="1"/>
        <pt x="2759" y="930" on="0"/>
        <pt x="2770" y="844" on="0"/>
        <pt x="2776" y="753" on="0"/>
        <pt x="2778" y="664" on="0"/>
        <pt x="2778" y="626" on="1"/>
        <pt x="2778" y="591" on="0"/>
        <pt x="2775" y="508" on="0"/>
        <pt x="2768" y="424" on="0"/>
        <pt x="2758" y="346" on="0"/>
        <pt x="2751" y="315" on="1"/>
        <pt x="2731" y="327" on="0"/>
        <pt x="2656" y="371" on="0"/>
        <pt x="2560" y="425" on="0"/>
        <pt x="2451" y="485" on="0"/>
        <pt x="2343" y="538" on="0"/>
        <pt x="2245" y="581" on="0"/>
        <pt x="2208" y="592" on="1"/>
        <pt x="2208" y="109" on="1"/>
        <pt x="2321" y="109" on="0"/>
        <pt x="2553" y="143" on="0"/>
        <pt x="2779" y="202" on="0"/>
        <pt x="2989" y="284" on="0"/>
        <pt x="3171" y="381" on="0"/>
        <pt x="3315" y="487" on="0"/>
        <pt x="3362" y="542" on="1"/>
        <pt x="3467" y="542" on="1"/>
        <pt x="3467" y="483" on="0"/>
        <pt x="3461" y="346" on="0"/>
        <pt x="3448" y="205" on="0"/>
        <pt x="3429" y="64" on="0"/>
        <pt x="3416" y="0" on="1"/>
        <pt x="1002" y="0" on="1"/>
        <pt x="1002" y="94" on="1"/>
        <pt x="1044" y="94" on="0"/>
        <pt x="1126" y="116" on="0"/>
        <pt x="1194" y="159" on="0"/>
        <pt x="1238" y="226" on="0"/>
        <pt x="1243" y="271" on="1"/>
        <pt x="1243" y="346" on="1"/>
        <pt x="566" y="346" on="1"/>
        <pt x="561" y="327" on="0"/>
        <pt x="557" y="293" on="0"/>
        <pt x="557" y="278" on="1"/>
        <pt x="557" y="225" on="0"/>
        <pt x="600" y="154" on="0"/>
        <pt x="666" y="112" on="0"/>
        <pt x="745" y="94" on="0"/>
        <pt x="781" y="94" on="1"/>
        <pt x="781" y="0" on="1"/>
        <pt x="-168" y="0" on="1"/>
      </contour>
      <contour>
        <pt x="1243" y="485" on="1"/>
        <pt x="1243" y="1166" on="1"/>
        <pt x="1097" y="1012" on="0"/>
        <pt x="888" y="786" on="0"/>
        <pt x="746" y="625" on="0"/>
        <pt x="659" y="519" on="0"/>
        <pt x="634" y="485" on="1"/>
      </contour>
    </TTGlyph>
    <TTGlyph name="Aacute" xMin="70" yMin="0" xMax="3161" yMax="1885">
      <contour>
        <pt x="1151" y="1525" on="1"/>
        <pt x="1069" y="1546" on="0"/>
        <pt x="977" y="1646" on="0"/>
        <pt x="977" y="1715" on="1"/>
        <pt x="977" y="1757" on="0"/>
        <pt x="1010" y="1821" on="0"/>
        <pt x="1064" y="1863" on="0"/>
        <pt x="1132" y="1885" on="0"/>
        <pt x="1167" y="1885" on="1"/>
        <pt x="1202" y="1885" on="0"/>
        <pt x="1244" y="1874" on="1"/>
        <pt x="1265" y="1868" on="0"/>
        <pt x="1366" y="1823" on="0"/>
        <pt x="1513" y="1755" on="0"/>
        <pt x="1697" y="1669" on="0"/>
        <pt x="1904" y="1576" on="0"/>
        <pt x="2127" y="1479" on="0"/>
        <pt x="2238" y="1435" on="1"/>
        <pt x="1994" y="1435" on="1"/>
        <pt x="1816" y="1459" on="0"/>
        <pt x="1532" y="1487" on="0"/>
        <pt x="1320" y="1505" on="0"/>
        <pt x="1182" y="1517" on="0"/>
      </contour>
      <contour>
        <pt x="70" y="94" on="1"/>
        <pt x="99" y="94" on="0"/>
        <pt x="199" y="128" on="0"/>
        <pt x="319" y="203" on="0"/>
        <pt x="449" y="321" on="0"/>
        <pt x="509" y="406" on="1"/>
        <pt x="1131" y="1291" on="1"/>
        <pt x="2140" y="1291" on="1"/>
        <pt x="2685" y="428" on="1"/>
        <pt x="2742" y="338" on="0"/>
        <pt x="2876" y="211" on="0"/>
        <pt x="3007" y="131" on="0"/>
        <pt x="3122" y="94" on="0"/>
        <pt x="3161" y="94" on="1"/>
        <pt x="3161" y="0" on="1"/>
        <pt x="1240" y="0" on="1"/>
        <pt x="1240" y="94" on="1"/>
        <pt x="1284" y="94" on="0"/>
        <pt x="1371" y="118" on="0"/>
        <pt x="1440" y="167" on="0"/>
        <pt x="1482" y="241" on="0"/>
        <pt x="1482" y="291" on="1"/>
        <pt x="1482" y="312" on="0"/>
        <pt x="1472" y="346" on="1"/>
        <pt x="675" y="346" on="1"/>
        <pt x="670" y="332" on="0"/>
        <pt x="666" y="310" on="0"/>
        <pt x="666" y="300" on="1"/>
        <pt x="666" y="249" on="0"/>
        <pt x="708" y="172" on="0"/>
        <pt x="777" y="120" on="0"/>
        <pt x="864" y="94" on="0"/>
        <pt x="909" y="94" on="1"/>
        <pt x="909" y="0" on="1"/>
        <pt x="70" y="0" on="1"/>
      </contour>
      <contour>
        <pt x="1412" y="485" on="1"/>
        <pt x="1391" y="525" on="0"/>
        <pt x="1335" y="630" on="0"/>
        <pt x="1259" y="764" on="0"/>
        <pt x="1164" y="930" on="0"/>
        <pt x="1104" y="1032" on="1"/>
        <pt x="1035" y="928" on="0"/>
        <pt x="923" y="760" on="0"/>
        <pt x="836" y="626" on="0"/>
        <pt x="771" y="524" on="0"/>
        <pt x="748" y="485" on="1"/>
      </contour>
    </TTGlyph>
    <TTGlyph name="Acircumflex" xMin="70" yMin="0" xMax="3161" yMax="1910">
      <contour>
        <pt x="800" y="1401" on="1"/>
        <pt x="893" y="1471" on="0"/>
        <pt x="1043" y="1580" on="0"/>
        <pt x="1165" y="1666" on="0"/>
        <pt x="1265" y="1732" on="0"/>
        <pt x="1351" y="1787" on="0"/>
        <pt x="1428" y="1835" on="0"/>
        <pt x="1466" y="1860" on="1"/>
        <pt x="1495" y="1879" on="0"/>
        <pt x="1562" y="1910" on="0"/>
        <pt x="1615" y="1910" on="1"/>
        <pt x="1668" y="1910" on="0"/>
        <pt x="1735" y="1879" on="0"/>
        <pt x="1764" y="1860" on="1"/>
        <pt x="1802" y="1835" on="0"/>
        <pt x="1879" y="1787" on="0"/>
        <pt x="1965" y="1732" on="0"/>
        <pt x="2065" y="1666" on="0"/>
        <pt x="2187" y="1580" on="0"/>
        <pt x="2337" y="1471" on="0"/>
        <pt x="2430" y="1401" on="1"/>
        <pt x="2266" y="1401" on="1"/>
        <pt x="1615" y="1584" on="1"/>
        <pt x="964" y="1401" on="1"/>
      </contour>
      <contour>
        <pt x="70" y="94" on="1"/>
        <pt x="99" y="94" on="0"/>
        <pt x="199" y="128" on="0"/>
        <pt x="319" y="203" on="0"/>
        <pt x="449" y="321" on="0"/>
        <pt x="509" y="406" on="1"/>
        <pt x="1131" y="1291" on="1"/>
        <pt x="2140" y="1291" on="1"/>
        <pt x="2685" y="428" on="1"/>
        <pt x="2742" y="338" on="0"/>
        <pt x="2876" y="211" on="0"/>
        <pt x="3007" y="131" on="0"/>
        <pt x="3122" y="94" on="0"/>
        <pt x="3161" y="94" on="1"/>
        <pt x="3161" y="0" on="1"/>
        <pt x="1240" y="0" on="1"/>
        <pt x="1240" y="94" on="1"/>
        <pt x="1284" y="94" on="0"/>
        <pt x="1371" y="118" on="0"/>
        <pt x="1440" y="167" on="0"/>
        <pt x="1482" y="241" on="0"/>
        <pt x="1482" y="291" on="1"/>
        <pt x="1482" y="312" on="0"/>
        <pt x="1472" y="346" on="1"/>
        <pt x="675" y="346" on="1"/>
        <pt x="670" y="332" on="0"/>
        <pt x="666" y="310" on="0"/>
        <pt x="666" y="300" on="1"/>
        <pt x="666" y="249" on="0"/>
        <pt x="708" y="172" on="0"/>
        <pt x="777" y="120" on="0"/>
        <pt x="864" y="94" on="0"/>
        <pt x="909" y="94" on="1"/>
        <pt x="909" y="0" on="1"/>
        <pt x="70" y="0" on="1"/>
      </contour>
      <contour>
        <pt x="1412" y="485" on="1"/>
        <pt x="1391" y="525" on="0"/>
        <pt x="1335" y="630" on="0"/>
        <pt x="1259" y="764" on="0"/>
        <pt x="1164" y="930" on="0"/>
        <pt x="1104" y="1032" on="1"/>
        <pt x="1035" y="928" on="0"/>
        <pt x="923" y="760" on="0"/>
        <pt x="836" y="626" on="0"/>
        <pt x="771" y="524" on="0"/>
        <pt x="748" y="485" on="1"/>
      </contour>
    </TTGlyph>
    <TTGlyph name="Adieresis" xMin="70" yMin="0" xMax="3161" yMax="1833">
      <contour>
        <pt x="1697" y="1659" on="1"/>
        <pt x="1697" y="1691" on="0"/>
        <pt x="1729" y="1753" on="0"/>
        <pt x="1793" y="1803" on="0"/>
        <pt x="1887" y="1833" on="0"/>
        <pt x="1950" y="1833" on="1"/>
        <pt x="2013" y="1833" on="0"/>
        <pt x="2107" y="1803" on="0"/>
        <pt x="2171" y="1753" on="0"/>
        <pt x="2203" y="1691" on="0"/>
        <pt x="2203" y="1659" on="1"/>
        <pt x="2203" y="1627" on="0"/>
        <pt x="2171" y="1566" on="0"/>
        <pt x="2107" y="1517" on="0"/>
        <pt x="2013" y="1487" on="0"/>
        <pt x="1950" y="1487" on="1"/>
        <pt x="1887" y="1487" on="0"/>
        <pt x="1793" y="1517" on="0"/>
        <pt x="1729" y="1566" on="0"/>
        <pt x="1697" y="1627" on="0"/>
      </contour>
      <contour>
        <pt x="1027" y="1659" on="1"/>
        <pt x="1027" y="1691" on="0"/>
        <pt x="1059" y="1753" on="0"/>
        <pt x="1123" y="1803" on="0"/>
        <pt x="1217" y="1833" on="0"/>
        <pt x="1280" y="1833" on="1"/>
        <pt x="1343" y="1833" on="0"/>
        <pt x="1437" y="1803" on="0"/>
        <pt x="1501" y="1753" on="0"/>
        <pt x="1533" y="1691" on="0"/>
        <pt x="1533" y="1659" on="1"/>
        <pt x="1533" y="1627" on="0"/>
        <pt x="1501" y="1566" on="0"/>
        <pt x="1437" y="1517" on="0"/>
        <pt x="1343" y="1487" on="0"/>
        <pt x="1280" y="1487" on="1"/>
        <pt x="1217" y="1487" on="0"/>
        <pt x="1123" y="1517" on="0"/>
        <pt x="1059" y="1566" on="0"/>
        <pt x="1027" y="1627" on="0"/>
      </contour>
      <contour>
        <pt x="70" y="94" on="1"/>
        <pt x="99" y="94" on="0"/>
        <pt x="199" y="128" on="0"/>
        <pt x="319" y="203" on="0"/>
        <pt x="449" y="321" on="0"/>
        <pt x="509" y="406" on="1"/>
        <pt x="1131" y="1291" on="1"/>
        <pt x="2140" y="1291" on="1"/>
        <pt x="2685" y="428" on="1"/>
        <pt x="2742" y="338" on="0"/>
        <pt x="2876" y="211" on="0"/>
        <pt x="3007" y="131" on="0"/>
        <pt x="3122" y="94" on="0"/>
        <pt x="3161" y="94" on="1"/>
        <pt x="3161" y="0" on="1"/>
        <pt x="1240" y="0" on="1"/>
        <pt x="1240" y="94" on="1"/>
        <pt x="1284" y="94" on="0"/>
        <pt x="1371" y="118" on="0"/>
        <pt x="1440" y="167" on="0"/>
        <pt x="1482" y="241" on="0"/>
        <pt x="1482" y="291" on="1"/>
        <pt x="1482" y="312" on="0"/>
        <pt x="1472" y="346" on="1"/>
        <pt x="675" y="346" on="1"/>
        <pt x="670" y="332" on="0"/>
        <pt x="666" y="310" on="0"/>
        <pt x="666" y="300" on="1"/>
        <pt x="666" y="249" on="0"/>
        <pt x="708" y="172" on="0"/>
        <pt x="777" y="120" on="0"/>
        <pt x="864" y="94" on="0"/>
        <pt x="909" y="94" on="1"/>
        <pt x="909" y="0" on="1"/>
        <pt x="70" y="0" on="1"/>
      </contour>
      <contour>
        <pt x="1412" y="485" on="1"/>
        <pt x="1391" y="525" on="0"/>
        <pt x="1335" y="630" on="0"/>
        <pt x="1259" y="764" on="0"/>
        <pt x="1164" y="930" on="0"/>
        <pt x="1104" y="1032" on="1"/>
        <pt x="1035" y="928" on="0"/>
        <pt x="923" y="760" on="0"/>
        <pt x="836" y="626" on="0"/>
        <pt x="771" y="524" on="0"/>
        <pt x="748" y="485" on="1"/>
      </contour>
    </TTGlyph>
    <TTGlyph name="Agrave" xMin="70" yMin="0" xMax="3161" yMax="1885">
      <contour>
        <pt x="967" y="1435" on="1"/>
        <pt x="1078" y="1479" on="0"/>
        <pt x="1301" y="1576" on="0"/>
        <pt x="1508" y="1669" on="0"/>
        <pt x="1692" y="1755" on="0"/>
        <pt x="1839" y="1823" on="0"/>
        <pt x="1940" y="1868" on="0"/>
        <pt x="1961" y="1874" on="1"/>
        <pt x="2003" y="1885" on="0"/>
        <pt x="2038" y="1885" on="1"/>
        <pt x="2073" y="1885" on="0"/>
        <pt x="2141" y="1863" on="0"/>
        <pt x="2195" y="1821" on="0"/>
        <pt x="2228" y="1757" on="0"/>
        <pt x="2228" y="1715" on="1"/>
        <pt x="2228" y="1646" on="0"/>
        <pt x="2136" y="1546" on="0"/>
        <pt x="2054" y="1525" on="1"/>
        <pt x="2022" y="1517" on="0"/>
        <pt x="1884" y="1505" on="0"/>
        <pt x="1673" y="1487" on="0"/>
        <pt x="1389" y="1459" on="0"/>
        <pt x="1211" y="1435" on="1"/>
      </contour>
      <contour>
        <pt x="70" y="94" on="1"/>
        <pt x="99" y="94" on="0"/>
        <pt x="199" y="128" on="0"/>
        <pt x="319" y="203" on="0"/>
        <pt x="449" y="321" on="0"/>
        <pt x="509" y="406" on="1"/>
        <pt x="1131" y="1291" on="1"/>
        <pt x="2140" y="1291" on="1"/>
        <pt x="2685" y="428" on="1"/>
        <pt x="2742" y="338" on="0"/>
        <pt x="2876" y="211" on="0"/>
        <pt x="3007" y="131" on="0"/>
        <pt x="3122" y="94" on="0"/>
        <pt x="3161" y="94" on="1"/>
        <pt x="3161" y="0" on="1"/>
        <pt x="1240" y="0" on="1"/>
        <pt x="1240" y="94" on="1"/>
        <pt x="1284" y="94" on="0"/>
        <pt x="1371" y="118" on="0"/>
        <pt x="1440" y="167" on="0"/>
        <pt x="1482" y="241" on="0"/>
        <pt x="1482" y="291" on="1"/>
        <pt x="1482" y="312" on="0"/>
        <pt x="1472" y="346" on="1"/>
        <pt x="675" y="346" on="1"/>
        <pt x="670" y="332" on="0"/>
        <pt x="666" y="310" on="0"/>
        <pt x="666" y="300" on="1"/>
        <pt x="666" y="249" on="0"/>
        <pt x="708" y="172" on="0"/>
        <pt x="777" y="120" on="0"/>
        <pt x="864" y="94" on="0"/>
        <pt x="909" y="94" on="1"/>
        <pt x="909" y="0" on="1"/>
        <pt x="70" y="0" on="1"/>
      </contour>
      <contour>
        <pt x="1412" y="485" on="1"/>
        <pt x="1391" y="525" on="0"/>
        <pt x="1335" y="630" on="0"/>
        <pt x="1259" y="764" on="0"/>
        <pt x="1164" y="930" on="0"/>
        <pt x="1104" y="1032" on="1"/>
        <pt x="1035" y="928" on="0"/>
        <pt x="923" y="760" on="0"/>
        <pt x="836" y="626" on="0"/>
        <pt x="771" y="524" on="0"/>
        <pt x="748" y="485" on="1"/>
      </contour>
    </TTGlyph>
    <TTGlyph name="Aring" xMin="70" yMin="0" xMax="3161" yMax="1971">
      <contour>
        <pt x="1615" y="1360" on="1"/>
        <pt x="1552" y="1360" on="0"/>
        <pt x="1440" y="1408" on="0"/>
        <pt x="1358" y="1490" on="0"/>
        <pt x="1310" y="1602" on="0"/>
        <pt x="1310" y="1665" on="1"/>
        <pt x="1310" y="1728" on="0"/>
        <pt x="1358" y="1840" on="0"/>
        <pt x="1440" y="1923" on="0"/>
        <pt x="1552" y="1971" on="0"/>
        <pt x="1615" y="1971" on="1"/>
        <pt x="1678" y="1971" on="0"/>
        <pt x="1790" y="1923" on="0"/>
        <pt x="1873" y="1840" on="0"/>
        <pt x="1921" y="1728" on="0"/>
        <pt x="1921" y="1665" on="1"/>
        <pt x="1921" y="1602" on="0"/>
        <pt x="1873" y="1490" on="0"/>
        <pt x="1790" y="1408" on="0"/>
        <pt x="1678" y="1360" on="0"/>
      </contour>
      <contour>
        <pt x="1615" y="1496" on="1"/>
        <pt x="1650" y="1496" on="0"/>
        <pt x="1712" y="1522" on="0"/>
        <pt x="1758" y="1568" on="0"/>
        <pt x="1785" y="1630" on="0"/>
        <pt x="1785" y="1665" on="1"/>
        <pt x="1785" y="1700" on="0"/>
        <pt x="1758" y="1762" on="0"/>
        <pt x="1712" y="1808" on="0"/>
        <pt x="1650" y="1835" on="0"/>
        <pt x="1615" y="1835" on="1"/>
        <pt x="1580" y="1835" on="0"/>
        <pt x="1518" y="1808" on="0"/>
        <pt x="1472" y="1762" on="0"/>
        <pt x="1446" y="1700" on="0"/>
        <pt x="1446" y="1665" on="1"/>
        <pt x="1446" y="1630" on="0"/>
        <pt x="1472" y="1568" on="0"/>
        <pt x="1518" y="1522" on="0"/>
        <pt x="1580" y="1496" on="0"/>
      </contour>
      <contour>
        <pt x="70" y="94" on="1"/>
        <pt x="99" y="94" on="0"/>
        <pt x="199" y="128" on="0"/>
        <pt x="319" y="203" on="0"/>
        <pt x="449" y="321" on="0"/>
        <pt x="509" y="406" on="1"/>
        <pt x="1131" y="1291" on="1"/>
        <pt x="2140" y="1291" on="1"/>
        <pt x="2685" y="428" on="1"/>
        <pt x="2742" y="338" on="0"/>
        <pt x="2876" y="211" on="0"/>
        <pt x="3007" y="131" on="0"/>
        <pt x="3122" y="94" on="0"/>
        <pt x="3161" y="94" on="1"/>
        <pt x="3161" y="0" on="1"/>
        <pt x="1240" y="0" on="1"/>
        <pt x="1240" y="94" on="1"/>
        <pt x="1284" y="94" on="0"/>
        <pt x="1371" y="118" on="0"/>
        <pt x="1440" y="167" on="0"/>
        <pt x="1482" y="241" on="0"/>
        <pt x="1482" y="291" on="1"/>
        <pt x="1482" y="312" on="0"/>
        <pt x="1472" y="346" on="1"/>
        <pt x="675" y="346" on="1"/>
        <pt x="670" y="332" on="0"/>
        <pt x="666" y="310" on="0"/>
        <pt x="666" y="300" on="1"/>
        <pt x="666" y="249" on="0"/>
        <pt x="708" y="172" on="0"/>
        <pt x="777" y="120" on="0"/>
        <pt x="864" y="94" on="0"/>
        <pt x="909" y="94" on="1"/>
        <pt x="909" y="0" on="1"/>
        <pt x="70" y="0" on="1"/>
      </contour>
      <contour>
        <pt x="1412" y="485" on="1"/>
        <pt x="1391" y="525" on="0"/>
        <pt x="1335" y="630" on="0"/>
        <pt x="1259" y="764" on="0"/>
        <pt x="1164" y="930" on="0"/>
        <pt x="1104" y="1032" on="1"/>
        <pt x="1035" y="928" on="0"/>
        <pt x="923" y="760" on="0"/>
        <pt x="836" y="626" on="0"/>
        <pt x="771" y="524" on="0"/>
        <pt x="748" y="485" on="1"/>
      </contour>
    </TTGlyph>
    <TTGlyph name="Atilde" xMin="70" yMin="0" xMax="3161" yMax="1829">
      <contour>
        <pt x="912" y="1525" on="1"/>
        <pt x="961" y="1622" on="0"/>
        <pt x="1069" y="1742" on="0"/>
        <pt x="1182" y="1807" on="0"/>
        <pt x="1296" y="1829" on="0"/>
        <pt x="1351" y="1829" on="1"/>
        <pt x="1430" y="1829" on="0"/>
        <pt x="1592" y="1791" on="0"/>
        <pt x="1757" y="1746" on="0"/>
        <pt x="1924" y="1709" on="0"/>
        <pt x="2008" y="1709" on="1"/>
        <pt x="2072" y="1709" on="0"/>
        <pt x="2219" y="1731" on="0"/>
        <pt x="2283" y="1758" on="1"/>
        <pt x="2318" y="1714" on="1"/>
        <pt x="2268" y="1616" on="0"/>
        <pt x="2160" y="1497" on="0"/>
        <pt x="2047" y="1431" on="0"/>
        <pt x="1933" y="1409" on="0"/>
        <pt x="1878" y="1409" on="1"/>
        <pt x="1799" y="1409" on="0"/>
        <pt x="1638" y="1447" on="0"/>
        <pt x="1473" y="1492" on="0"/>
        <pt x="1306" y="1530" on="0"/>
        <pt x="1222" y="1530" on="1"/>
        <pt x="1158" y="1530" on="0"/>
        <pt x="1011" y="1508" on="0"/>
        <pt x="947" y="1481" on="1"/>
      </contour>
      <contour>
        <pt x="70" y="94" on="1"/>
        <pt x="99" y="94" on="0"/>
        <pt x="199" y="128" on="0"/>
        <pt x="319" y="203" on="0"/>
        <pt x="449" y="321" on="0"/>
        <pt x="509" y="406" on="1"/>
        <pt x="1131" y="1291" on="1"/>
        <pt x="2140" y="1291" on="1"/>
        <pt x="2685" y="428" on="1"/>
        <pt x="2742" y="338" on="0"/>
        <pt x="2876" y="211" on="0"/>
        <pt x="3007" y="131" on="0"/>
        <pt x="3122" y="94" on="0"/>
        <pt x="3161" y="94" on="1"/>
        <pt x="3161" y="0" on="1"/>
        <pt x="1240" y="0" on="1"/>
        <pt x="1240" y="94" on="1"/>
        <pt x="1284" y="94" on="0"/>
        <pt x="1371" y="118" on="0"/>
        <pt x="1440" y="167" on="0"/>
        <pt x="1482" y="241" on="0"/>
        <pt x="1482" y="291" on="1"/>
        <pt x="1482" y="312" on="0"/>
        <pt x="1472" y="346" on="1"/>
        <pt x="675" y="346" on="1"/>
        <pt x="670" y="332" on="0"/>
        <pt x="666" y="310" on="0"/>
        <pt x="666" y="300" on="1"/>
        <pt x="666" y="249" on="0"/>
        <pt x="708" y="172" on="0"/>
        <pt x="777" y="120" on="0"/>
        <pt x="864" y="94" on="0"/>
        <pt x="909" y="94" on="1"/>
        <pt x="909" y="0" on="1"/>
        <pt x="70" y="0" on="1"/>
      </contour>
      <contour>
        <pt x="1412" y="485" on="1"/>
        <pt x="1391" y="525" on="0"/>
        <pt x="1335" y="630" on="0"/>
        <pt x="1259" y="764" on="0"/>
        <pt x="1164" y="930" on="0"/>
        <pt x="1104" y="1032" on="1"/>
        <pt x="1035" y="928" on="0"/>
        <pt x="923" y="760" on="0"/>
        <pt x="836" y="626" on="0"/>
        <pt x="771" y="524" on="0"/>
        <pt x="748" y="485" on="1"/>
      </contour>
    </TTGlyph>
    <TTGlyph name="B" xMin="100" yMin="0" xMax="3257" yMax="1291">
      <contour>
        <pt x="100" y="94" on="1"/>
        <pt x="250" y="99" on="0"/>
        <pt x="448" y="159" on="0"/>
        <pt x="566" y="291" on="0"/>
        <pt x="615" y="506" on="0"/>
        <pt x="615" y="668" on="1"/>
        <pt x="615" y="777" on="0"/>
        <pt x="590" y="941" on="0"/>
        <pt x="537" y="1058" on="0"/>
        <pt x="454" y="1135" on="0"/>
        <pt x="340" y="1179" on="0"/>
        <pt x="192" y="1197" on="0"/>
        <pt x="100" y="1197" on="1"/>
        <pt x="100" y="1291" on="1"/>
        <pt x="1770" y="1291" on="1"/>
        <pt x="2035" y="1291" on="0"/>
        <pt x="2434" y="1279" on="0"/>
        <pt x="2724" y="1251" on="0"/>
        <pt x="2915" y="1205" on="0"/>
        <pt x="3028" y="1137" on="0"/>
        <pt x="3074" y="1045" on="0"/>
        <pt x="3074" y="986" on="1"/>
        <pt x="3074" y="918" on="0"/>
        <pt x="2987" y="820" on="0"/>
        <pt x="2835" y="753" on="0"/>
        <pt x="2628" y="711" on="0"/>
        <pt x="2387" y="688" on="0"/>
        <pt x="2125" y="680" on="0"/>
        <pt x="1993" y="679" on="1"/>
        <pt x="2156" y="678" on="0"/>
        <pt x="2470" y="671" on="0"/>
        <pt x="2750" y="647" on="0"/>
        <pt x="2988" y="603" on="0"/>
        <pt x="3160" y="528" on="0"/>
        <pt x="3257" y="418" on="0"/>
        <pt x="3257" y="341" on="1"/>
        <pt x="3257" y="226" on="0"/>
        <pt x="3072" y="91" on="0"/>
        <pt x="2708" y="20" on="0"/>
        <pt x="2169" y="0" on="0"/>
        <pt x="1815" y="0" on="1"/>
        <pt x="100" y="0" on="1"/>
      </contour>
      <contour>
        <pt x="1684" y="751" on="1"/>
        <pt x="1687" y="750" on="1"/>
        <pt x="1785" y="752" on="0"/>
        <pt x="1940" y="771" on="0"/>
        <pt x="2048" y="818" on="0"/>
        <pt x="2106" y="899" on="0"/>
        <pt x="2106" y="963" on="1"/>
        <pt x="2106" y="1028" on="0"/>
        <pt x="2043" y="1109" on="0"/>
        <pt x="1926" y="1154" on="0"/>
        <pt x="1759" y="1170" on="0"/>
        <pt x="1655" y="1171" on="1"/>
        <pt x="1655" y="751" on="1"/>
      </contour>
      <contour>
        <pt x="1655" y="128" on="1"/>
        <pt x="1751" y="128" on="0"/>
        <pt x="1930" y="142" on="0"/>
        <pt x="2068" y="194" on="0"/>
        <pt x="2151" y="295" on="0"/>
        <pt x="2151" y="382" on="1"/>
        <pt x="2151" y="469" on="0"/>
        <pt x="2071" y="569" on="0"/>
        <pt x="1934" y="619" on="0"/>
        <pt x="1754" y="632" on="0"/>
        <pt x="1655" y="632" on="1"/>
      </contour>
    </TTGlyph>
    <TTGlyph name="C" xMin="115" yMin="-57" xMax="2743" yMax="1352">
      <contour>
        <pt x="115" y="652" on="1"/>
        <pt x="115" y="809" on="0"/>
        <pt x="286" y="1065" on="0"/>
        <pt x="601" y="1247" on="0"/>
        <pt x="1047" y="1346" on="0"/>
        <pt x="1322" y="1346" on="1"/>
        <pt x="1469" y="1346" on="0"/>
        <pt x="1731" y="1322" on="0"/>
        <pt x="1957" y="1294" on="0"/>
        <pt x="2146" y="1270" on="0"/>
        <pt x="2222" y="1270" on="1"/>
        <pt x="2240" y="1270" on="0"/>
        <pt x="2285" y="1282" on="0"/>
        <pt x="2329" y="1303" on="0"/>
        <pt x="2367" y="1333" on="0"/>
        <pt x="2378" y="1352" on="1"/>
        <pt x="2598" y="1352" on="1"/>
        <pt x="2628" y="1300" on="0"/>
        <pt x="2678" y="1155" on="0"/>
        <pt x="2713" y="999" on="0"/>
        <pt x="2733" y="846" on="0"/>
        <pt x="2733" y="786" on="1"/>
        <pt x="2583" y="786" on="1"/>
        <pt x="2564" y="855" on="0"/>
        <pt x="2483" y="968" on="0"/>
        <pt x="2371" y="1056" on="0"/>
        <pt x="2237" y="1122" on="0"/>
        <pt x="2094" y="1164" on="0"/>
        <pt x="1950" y="1185" on="0"/>
        <pt x="1885" y="1185" on="1"/>
        <pt x="1776" y="1185" on="0"/>
        <pt x="1577" y="1129" on="0"/>
        <pt x="1425" y="999" on="0"/>
        <pt x="1334" y="786" on="0"/>
        <pt x="1334" y="629" on="1"/>
        <pt x="1334" y="496" on="0"/>
        <pt x="1433" y="298" on="0"/>
        <pt x="1598" y="167" on="0"/>
        <pt x="1812" y="102" on="0"/>
        <pt x="1928" y="102" on="1"/>
        <pt x="1999" y="102" on="0"/>
        <pt x="2149" y="126" on="0"/>
        <pt x="2292" y="174" on="0"/>
        <pt x="2421" y="247" on="0"/>
        <pt x="2521" y="347" on="0"/>
        <pt x="2586" y="474" on="0"/>
        <pt x="2594" y="551" on="1"/>
        <pt x="2743" y="551" on="1"/>
        <pt x="2743" y="411" on="0"/>
        <pt x="2597" y="186" on="0"/>
        <pt x="2308" y="28" on="0"/>
        <pt x="1879" y="-57" on="0"/>
        <pt x="1596" y="-57" on="1"/>
        <pt x="1375" y="-57" on="0"/>
        <pt x="984" y="-29" on="0"/>
        <pt x="655" y="35" on="0"/>
        <pt x="394" y="142" on="0"/>
        <pt x="212" y="299" on="0"/>
        <pt x="115" y="513" on="0"/>
      </contour>
    </TTGlyph>
    <TTGlyph name="Ccedilla" xMin="115" yMin="-589" xMax="2743" yMax="1352">
      <contour>
        <pt x="115" y="652" on="1"/>
        <pt x="115" y="809" on="0"/>
        <pt x="286" y="1065" on="0"/>
        <pt x="601" y="1247" on="0"/>
        <pt x="1047" y="1346" on="0"/>
        <pt x="1322" y="1346" on="1"/>
        <pt x="1469" y="1346" on="0"/>
        <pt x="1731" y="1322" on="0"/>
        <pt x="1957" y="1294" on="0"/>
        <pt x="2146" y="1270" on="0"/>
        <pt x="2222" y="1270" on="1"/>
        <pt x="2240" y="1270" on="0"/>
        <pt x="2285" y="1282" on="0"/>
        <pt x="2329" y="1303" on="0"/>
        <pt x="2367" y="1333" on="0"/>
        <pt x="2378" y="1352" on="1"/>
        <pt x="2598" y="1352" on="1"/>
        <pt x="2628" y="1300" on="0"/>
        <pt x="2678" y="1155" on="0"/>
        <pt x="2713" y="999" on="0"/>
        <pt x="2733" y="846" on="0"/>
        <pt x="2733" y="786" on="1"/>
        <pt x="2583" y="786" on="1"/>
        <pt x="2564" y="855" on="0"/>
        <pt x="2483" y="968" on="0"/>
        <pt x="2371" y="1056" on="0"/>
        <pt x="2237" y="1122" on="0"/>
        <pt x="2094" y="1164" on="0"/>
        <pt x="1950" y="1185" on="0"/>
        <pt x="1885" y="1185" on="1"/>
        <pt x="1776" y="1185" on="0"/>
        <pt x="1577" y="1129" on="0"/>
        <pt x="1425" y="999" on="0"/>
        <pt x="1334" y="786" on="0"/>
        <pt x="1334" y="629" on="1"/>
        <pt x="1334" y="496" on="0"/>
        <pt x="1433" y="298" on="0"/>
        <pt x="1598" y="167" on="0"/>
        <pt x="1812" y="102" on="0"/>
        <pt x="1928" y="102" on="1"/>
        <pt x="1999" y="102" on="0"/>
        <pt x="2149" y="126" on="0"/>
        <pt x="2292" y="174" on="0"/>
        <pt x="2421" y="247" on="0"/>
        <pt x="2521" y="347" on="0"/>
        <pt x="2586" y="474" on="0"/>
        <pt x="2594" y="551" on="1"/>
        <pt x="2743" y="551" on="1"/>
        <pt x="2743" y="411" on="0"/>
        <pt x="2597" y="186" on="0"/>
        <pt x="2308" y="28" on="0"/>
        <pt x="1879" y="-57" on="0"/>
        <pt x="1596" y="-57" on="1"/>
        <pt x="1582" y="-57" on="0"/>
        <pt x="1554" y="-56" on="0"/>
        <pt x="1540" y="-56" on="1"/>
        <pt x="1541" y="-166" on="1"/>
        <pt x="1564" y="-163" on="0"/>
        <pt x="1634" y="-159" on="0"/>
        <pt x="1710" y="-156" on="0"/>
        <pt x="1784" y="-154" on="0"/>
        <pt x="1812" y="-154" on="1"/>
        <pt x="1857" y="-154" on="0"/>
        <pt x="1959" y="-160" on="0"/>
        <pt x="2059" y="-176" on="0"/>
        <pt x="2150" y="-204" on="0"/>
        <pt x="2219" y="-251" on="0"/>
        <pt x="2260" y="-318" on="0"/>
        <pt x="2260" y="-364" on="1"/>
        <pt x="2260" y="-421" on="0"/>
        <pt x="2167" y="-506" on="0"/>
        <pt x="1988" y="-561" on="0"/>
        <pt x="1725" y="-589" on="0"/>
        <pt x="1554" y="-589" on="1"/>
        <pt x="1485" y="-589" on="0"/>
        <pt x="1346" y="-576" on="0"/>
        <pt x="1215" y="-550" on="0"/>
        <pt x="1097" y="-510" on="0"/>
        <pt x="1006" y="-454" on="0"/>
        <pt x="944" y="-383" on="0"/>
        <pt x="935" y="-340" on="1"/>
        <pt x="1086" y="-340" on="1"/>
        <pt x="1098" y="-373" on="0"/>
        <pt x="1179" y="-424" on="0"/>
        <pt x="1299" y="-457" on="0"/>
        <pt x="1448" y="-474" on="0"/>
        <pt x="1527" y="-474" on="1"/>
        <pt x="1671" y="-474" on="0"/>
        <pt x="1815" y="-431" on="0"/>
        <pt x="1815" y="-370" on="1"/>
        <pt x="1815" y="-339" on="0"/>
        <pt x="1760" y="-301" on="0"/>
        <pt x="1677" y="-281" on="0"/>
        <pt x="1578" y="-274" on="0"/>
        <pt x="1535" y="-274" on="1"/>
        <pt x="1520" y="-274" on="0"/>
        <pt x="1481" y="-276" on="0"/>
        <pt x="1440" y="-280" on="0"/>
        <pt x="1402" y="-284" on="0"/>
        <pt x="1389" y="-287" on="1"/>
        <pt x="1389" y="-54" on="1"/>
        <pt x="1101" y="-45" on="0"/>
        <pt x="631" y="34" on="0"/>
        <pt x="297" y="198" on="0"/>
        <pt x="115" y="460" on="0"/>
      </contour>
    </TTGlyph>
    <TTGlyph name="D" xMin="100" yMin="0" xMax="3231" yMax="1291">
      <contour>
        <pt x="100" y="94" on="1"/>
        <pt x="250" y="99" on="0"/>
        <pt x="448" y="159" on="0"/>
        <pt x="566" y="291" on="0"/>
        <pt x="615" y="506" on="0"/>
        <pt x="615" y="668" on="1"/>
        <pt x="615" y="777" on="0"/>
        <pt x="590" y="941" on="0"/>
        <pt x="537" y="1058" on="0"/>
        <pt x="454" y="1135" on="0"/>
        <pt x="340" y="1179" on="0"/>
        <pt x="192" y="1197" on="0"/>
        <pt x="100" y="1197" on="1"/>
        <pt x="100" y="1291" on="1"/>
        <pt x="1747" y="1291" on="1"/>
        <pt x="1929" y="1291" on="0"/>
        <pt x="2290" y="1279" on="0"/>
        <pt x="2620" y="1237" on="0"/>
        <pt x="2904" y="1154" on="0"/>
        <pt x="3112" y="1011" on="0"/>
        <pt x="3231" y="799" on="0"/>
        <pt x="3231" y="648" on="1"/>
        <pt x="3231" y="532" on="0"/>
        <pt x="3146" y="352" on="0"/>
        <pt x="2996" y="217" on="0"/>
        <pt x="2791" y="123" on="0"/>
        <pt x="2550" y="59" on="0"/>
        <pt x="2284" y="23" on="0"/>
        <pt x="2011" y="5" on="0"/>
        <pt x="1743" y="0" on="0"/>
        <pt x="1621" y="0" on="1"/>
        <pt x="100" y="0" on="1"/>
      </contour>
      <contour>
        <pt x="1655" y="121" on="1"/>
        <pt x="1750" y="126" on="0"/>
        <pt x="1909" y="172" on="0"/>
        <pt x="2023" y="286" on="0"/>
        <pt x="2087" y="487" on="0"/>
        <pt x="2087" y="648" on="1"/>
        <pt x="2087" y="762" on="0"/>
        <pt x="2060" y="928" on="0"/>
        <pt x="2008" y="1043" on="0"/>
        <pt x="1933" y="1114" on="0"/>
        <pt x="1837" y="1154" on="0"/>
        <pt x="1721" y="1169" on="0"/>
        <pt x="1655" y="1171" on="1"/>
      </contour>
    </TTGlyph>
    <TTGlyph name="E" xMin="100" yMin="0" xMax="3054" yMax="1291">
      <contour>
        <pt x="100" y="94" on="1"/>
        <pt x="250" y="99" on="0"/>
        <pt x="448" y="159" on="0"/>
        <pt x="566" y="291" on="0"/>
        <pt x="615" y="506" on="0"/>
        <pt x="615" y="668" on="1"/>
        <pt x="615" y="777" on="0"/>
        <pt x="590" y="941" on="0"/>
        <pt x="537" y="1058" on="0"/>
        <pt x="454" y="1135" on="0"/>
        <pt x="340" y="1179" on="0"/>
        <pt x="192" y="1197" on="0"/>
        <pt x="100" y="1197" on="1"/>
        <pt x="100" y="1291" on="1"/>
        <pt x="2893" y="1291" on="1"/>
        <pt x="2906" y="1227" on="0"/>
        <pt x="2925" y="1086" on="0"/>
        <pt x="2938" y="945" on="0"/>
        <pt x="2944" y="808" on="0"/>
        <pt x="2944" y="749" on="1"/>
        <pt x="2839" y="749" on="1"/>
        <pt x="2794" y="816" on="0"/>
        <pt x="2647" y="934" on="0"/>
        <pt x="2459" y="1032" on="0"/>
        <pt x="2240" y="1110" on="0"/>
        <pt x="2006" y="1164" on="0"/>
        <pt x="1768" y="1192" on="0"/>
        <pt x="1655" y="1192" on="1"/>
        <pt x="1655" y="686" on="1"/>
        <pt x="1694" y="697" on="0"/>
        <pt x="1811" y="742" on="0"/>
        <pt x="1942" y="798" on="0"/>
        <pt x="2077" y="860" on="0"/>
        <pt x="2194" y="917" on="0"/>
        <pt x="2281" y="963" on="0"/>
        <pt x="2298" y="975" on="1"/>
        <pt x="2306" y="940" on="0"/>
        <pt x="2317" y="851" on="0"/>
        <pt x="2323" y="756" on="0"/>
        <pt x="2325" y="664" on="0"/>
        <pt x="2325" y="626" on="1"/>
        <pt x="2325" y="591" on="0"/>
        <pt x="2322" y="505" on="0"/>
        <pt x="2315" y="417" on="0"/>
        <pt x="2305" y="336" on="0"/>
        <pt x="2298" y="305" on="1"/>
        <pt x="2278" y="317" on="0"/>
        <pt x="2189" y="363" on="0"/>
        <pt x="2073" y="420" on="0"/>
        <pt x="1939" y="481" on="0"/>
        <pt x="1809" y="537" on="0"/>
        <pt x="1694" y="582" on="0"/>
        <pt x="1655" y="593" on="1"/>
        <pt x="1655" y="99" on="1"/>
        <pt x="1768" y="99" on="0"/>
        <pt x="2029" y="131" on="0"/>
        <pt x="2295" y="189" on="0"/>
        <pt x="2550" y="269" on="0"/>
        <pt x="2762" y="368" on="0"/>
        <pt x="2917" y="481" on="0"/>
        <pt x="2949" y="542" on="1"/>
        <pt x="3054" y="542" on="1"/>
        <pt x="3054" y="483" on="0"/>
        <pt x="3048" y="346" on="0"/>
        <pt x="3035" y="205" on="0"/>
        <pt x="3016" y="64" on="0"/>
        <pt x="3003" y="0" on="1"/>
        <pt x="100" y="0" on="1"/>
      </contour>
    </TTGlyph>
    <TTGlyph name="Eacute" xMin="100" yMin="0" xMax="3054" yMax="1885">
      <contour>
        <pt x="1191" y="1525" on="1"/>
        <pt x="1109" y="1546" on="0"/>
        <pt x="1017" y="1646" on="0"/>
        <pt x="1017" y="1715" on="1"/>
        <pt x="1017" y="1757" on="0"/>
        <pt x="1050" y="1821" on="0"/>
        <pt x="1104" y="1863" on="0"/>
        <pt x="1172" y="1885" on="0"/>
        <pt x="1207" y="1885" on="1"/>
        <pt x="1242" y="1885" on="0"/>
        <pt x="1284" y="1874" on="1"/>
        <pt x="1305" y="1868" on="0"/>
        <pt x="1406" y="1823" on="0"/>
        <pt x="1553" y="1755" on="0"/>
        <pt x="1737" y="1669" on="0"/>
        <pt x="1944" y="1576" on="0"/>
        <pt x="2167" y="1479" on="0"/>
        <pt x="2278" y="1435" on="1"/>
        <pt x="2034" y="1435" on="1"/>
        <pt x="1856" y="1459" on="0"/>
        <pt x="1572" y="1487" on="0"/>
        <pt x="1360" y="1505" on="0"/>
        <pt x="1222" y="1517" on="0"/>
      </contour>
      <contour>
        <pt x="100" y="94" on="1"/>
        <pt x="250" y="99" on="0"/>
        <pt x="448" y="159" on="0"/>
        <pt x="566" y="291" on="0"/>
        <pt x="615" y="506" on="0"/>
        <pt x="615" y="668" on="1"/>
        <pt x="615" y="777" on="0"/>
        <pt x="590" y="941" on="0"/>
        <pt x="537" y="1058" on="0"/>
        <pt x="454" y="1135" on="0"/>
        <pt x="340" y="1179" on="0"/>
        <pt x="192" y="1197" on="0"/>
        <pt x="100" y="1197" on="1"/>
        <pt x="100" y="1291" on="1"/>
        <pt x="2893" y="1291" on="1"/>
        <pt x="2906" y="1227" on="0"/>
        <pt x="2925" y="1086" on="0"/>
        <pt x="2938" y="945" on="0"/>
        <pt x="2944" y="808" on="0"/>
        <pt x="2944" y="749" on="1"/>
        <pt x="2839" y="749" on="1"/>
        <pt x="2794" y="816" on="0"/>
        <pt x="2647" y="934" on="0"/>
        <pt x="2459" y="1032" on="0"/>
        <pt x="2240" y="1110" on="0"/>
        <pt x="2006" y="1164" on="0"/>
        <pt x="1768" y="1192" on="0"/>
        <pt x="1655" y="1192" on="1"/>
        <pt x="1655" y="686" on="1"/>
        <pt x="1694" y="697" on="0"/>
        <pt x="1811" y="742" on="0"/>
        <pt x="1942" y="798" on="0"/>
        <pt x="2077" y="860" on="0"/>
        <pt x="2194" y="917" on="0"/>
        <pt x="2281" y="963" on="0"/>
        <pt x="2298" y="975" on="1"/>
        <pt x="2306" y="940" on="0"/>
        <pt x="2317" y="851" on="0"/>
        <pt x="2323" y="756" on="0"/>
        <pt x="2325" y="664" on="0"/>
        <pt x="2325" y="626" on="1"/>
        <pt x="2325" y="591" on="0"/>
        <pt x="2322" y="505" on="0"/>
        <pt x="2315" y="417" on="0"/>
        <pt x="2305" y="336" on="0"/>
        <pt x="2298" y="305" on="1"/>
        <pt x="2278" y="317" on="0"/>
        <pt x="2189" y="363" on="0"/>
        <pt x="2073" y="420" on="0"/>
        <pt x="1939" y="481" on="0"/>
        <pt x="1809" y="537" on="0"/>
        <pt x="1694" y="582" on="0"/>
        <pt x="1655" y="593" on="1"/>
        <pt x="1655" y="99" on="1"/>
        <pt x="1768" y="99" on="0"/>
        <pt x="2029" y="131" on="0"/>
        <pt x="2295" y="189" on="0"/>
        <pt x="2550" y="269" on="0"/>
        <pt x="2762" y="368" on="0"/>
        <pt x="2917" y="481" on="0"/>
        <pt x="2949" y="542" on="1"/>
        <pt x="3054" y="542" on="1"/>
        <pt x="3054" y="483" on="0"/>
        <pt x="3048" y="346" on="0"/>
        <pt x="3035" y="205" on="0"/>
        <pt x="3016" y="64" on="0"/>
        <pt x="3003" y="0" on="1"/>
        <pt x="100" y="0" on="1"/>
      </contour>
    </TTGlyph>
    <TTGlyph name="Ecircumflex" xMin="100" yMin="0" xMax="3054" yMax="1910">
      <contour>
        <pt x="840" y="1401" on="1"/>
        <pt x="933" y="1471" on="0"/>
        <pt x="1083" y="1580" on="0"/>
        <pt x="1205" y="1666" on="0"/>
        <pt x="1305" y="1732" on="0"/>
        <pt x="1391" y="1787" on="0"/>
        <pt x="1468" y="1835" on="0"/>
        <pt x="1506" y="1860" on="1"/>
        <pt x="1535" y="1879" on="0"/>
        <pt x="1602" y="1910" on="0"/>
        <pt x="1655" y="1910" on="1"/>
        <pt x="1708" y="1910" on="0"/>
        <pt x="1775" y="1879" on="0"/>
        <pt x="1804" y="1860" on="1"/>
        <pt x="1842" y="1835" on="0"/>
        <pt x="1919" y="1787" on="0"/>
        <pt x="2005" y="1732" on="0"/>
        <pt x="2105" y="1666" on="0"/>
        <pt x="2227" y="1580" on="0"/>
        <pt x="2377" y="1471" on="0"/>
        <pt x="2470" y="1401" on="1"/>
        <pt x="2306" y="1401" on="1"/>
        <pt x="1655" y="1584" on="1"/>
        <pt x="1004" y="1401" on="1"/>
      </contour>
      <contour>
        <pt x="100" y="94" on="1"/>
        <pt x="250" y="99" on="0"/>
        <pt x="448" y="159" on="0"/>
        <pt x="566" y="291" on="0"/>
        <pt x="615" y="506" on="0"/>
        <pt x="615" y="668" on="1"/>
        <pt x="615" y="777" on="0"/>
        <pt x="590" y="941" on="0"/>
        <pt x="537" y="1058" on="0"/>
        <pt x="454" y="1135" on="0"/>
        <pt x="340" y="1179" on="0"/>
        <pt x="192" y="1197" on="0"/>
        <pt x="100" y="1197" on="1"/>
        <pt x="100" y="1291" on="1"/>
        <pt x="2893" y="1291" on="1"/>
        <pt x="2906" y="1227" on="0"/>
        <pt x="2925" y="1086" on="0"/>
        <pt x="2938" y="945" on="0"/>
        <pt x="2944" y="808" on="0"/>
        <pt x="2944" y="749" on="1"/>
        <pt x="2839" y="749" on="1"/>
        <pt x="2794" y="816" on="0"/>
        <pt x="2647" y="934" on="0"/>
        <pt x="2459" y="1032" on="0"/>
        <pt x="2240" y="1110" on="0"/>
        <pt x="2006" y="1164" on="0"/>
        <pt x="1768" y="1192" on="0"/>
        <pt x="1655" y="1192" on="1"/>
        <pt x="1655" y="686" on="1"/>
        <pt x="1694" y="697" on="0"/>
        <pt x="1811" y="742" on="0"/>
        <pt x="1942" y="798" on="0"/>
        <pt x="2077" y="860" on="0"/>
        <pt x="2194" y="917" on="0"/>
        <pt x="2281" y="963" on="0"/>
        <pt x="2298" y="975" on="1"/>
        <pt x="2306" y="940" on="0"/>
        <pt x="2317" y="851" on="0"/>
        <pt x="2323" y="756" on="0"/>
        <pt x="2325" y="664" on="0"/>
        <pt x="2325" y="626" on="1"/>
        <pt x="2325" y="591" on="0"/>
        <pt x="2322" y="505" on="0"/>
        <pt x="2315" y="417" on="0"/>
        <pt x="2305" y="336" on="0"/>
        <pt x="2298" y="305" on="1"/>
        <pt x="2278" y="317" on="0"/>
        <pt x="2189" y="363" on="0"/>
        <pt x="2073" y="420" on="0"/>
        <pt x="1939" y="481" on="0"/>
        <pt x="1809" y="537" on="0"/>
        <pt x="1694" y="582" on="0"/>
        <pt x="1655" y="593" on="1"/>
        <pt x="1655" y="99" on="1"/>
        <pt x="1768" y="99" on="0"/>
        <pt x="2029" y="131" on="0"/>
        <pt x="2295" y="189" on="0"/>
        <pt x="2550" y="269" on="0"/>
        <pt x="2762" y="368" on="0"/>
        <pt x="2917" y="481" on="0"/>
        <pt x="2949" y="542" on="1"/>
        <pt x="3054" y="542" on="1"/>
        <pt x="3054" y="483" on="0"/>
        <pt x="3048" y="346" on="0"/>
        <pt x="3035" y="205" on="0"/>
        <pt x="3016" y="64" on="0"/>
        <pt x="3003" y="0" on="1"/>
        <pt x="100" y="0" on="1"/>
      </contour>
    </TTGlyph>
    <TTGlyph name="Edieresis" xMin="100" yMin="0" xMax="3054" yMax="1833">
      <contour>
        <pt x="1737" y="1659" on="1"/>
        <pt x="1737" y="1691" on="0"/>
        <pt x="1769" y="1753" on="0"/>
        <pt x="1833" y="1803" on="0"/>
        <pt x="1927" y="1833" on="0"/>
        <pt x="1990" y="1833" on="1"/>
        <pt x="2053" y="1833" on="0"/>
        <pt x="2147" y="1803" on="0"/>
        <pt x="2211" y="1753" on="0"/>
        <pt x="2243" y="1691" on="0"/>
        <pt x="2243" y="1659" on="1"/>
        <pt x="2243" y="1627" on="0"/>
        <pt x="2211" y="1566" on="0"/>
        <pt x="2147" y="1517" on="0"/>
        <pt x="2053" y="1487" on="0"/>
        <pt x="1990" y="1487" on="1"/>
        <pt x="1927" y="1487" on="0"/>
        <pt x="1833" y="1517" on="0"/>
        <pt x="1769" y="1566" on="0"/>
        <pt x="1737" y="1627" on="0"/>
      </contour>
      <contour>
        <pt x="1067" y="1659" on="1"/>
        <pt x="1067" y="1691" on="0"/>
        <pt x="1099" y="1753" on="0"/>
        <pt x="1163" y="1803" on="0"/>
        <pt x="1257" y="1833" on="0"/>
        <pt x="1320" y="1833" on="1"/>
        <pt x="1383" y="1833" on="0"/>
        <pt x="1477" y="1803" on="0"/>
        <pt x="1541" y="1753" on="0"/>
        <pt x="1573" y="1691" on="0"/>
        <pt x="1573" y="1659" on="1"/>
        <pt x="1573" y="1627" on="0"/>
        <pt x="1541" y="1566" on="0"/>
        <pt x="1477" y="1517" on="0"/>
        <pt x="1383" y="1487" on="0"/>
        <pt x="1320" y="1487" on="1"/>
        <pt x="1257" y="1487" on="0"/>
        <pt x="1163" y="1517" on="0"/>
        <pt x="1099" y="1566" on="0"/>
        <pt x="1067" y="1627" on="0"/>
      </contour>
      <contour>
        <pt x="100" y="94" on="1"/>
        <pt x="250" y="99" on="0"/>
        <pt x="448" y="159" on="0"/>
        <pt x="566" y="291" on="0"/>
        <pt x="615" y="506" on="0"/>
        <pt x="615" y="668" on="1"/>
        <pt x="615" y="777" on="0"/>
        <pt x="590" y="941" on="0"/>
        <pt x="537" y="1058" on="0"/>
        <pt x="454" y="1135" on="0"/>
        <pt x="340" y="1179" on="0"/>
        <pt x="192" y="1197" on="0"/>
        <pt x="100" y="1197" on="1"/>
        <pt x="100" y="1291" on="1"/>
        <pt x="2893" y="1291" on="1"/>
        <pt x="2906" y="1227" on="0"/>
        <pt x="2925" y="1086" on="0"/>
        <pt x="2938" y="945" on="0"/>
        <pt x="2944" y="808" on="0"/>
        <pt x="2944" y="749" on="1"/>
        <pt x="2839" y="749" on="1"/>
        <pt x="2794" y="816" on="0"/>
        <pt x="2647" y="934" on="0"/>
        <pt x="2459" y="1032" on="0"/>
        <pt x="2240" y="1110" on="0"/>
        <pt x="2006" y="1164" on="0"/>
        <pt x="1768" y="1192" on="0"/>
        <pt x="1655" y="1192" on="1"/>
        <pt x="1655" y="686" on="1"/>
        <pt x="1694" y="697" on="0"/>
        <pt x="1811" y="742" on="0"/>
        <pt x="1942" y="798" on="0"/>
        <pt x="2077" y="860" on="0"/>
        <pt x="2194" y="917" on="0"/>
        <pt x="2281" y="963" on="0"/>
        <pt x="2298" y="975" on="1"/>
        <pt x="2306" y="940" on="0"/>
        <pt x="2317" y="851" on="0"/>
        <pt x="2323" y="756" on="0"/>
        <pt x="2325" y="664" on="0"/>
        <pt x="2325" y="626" on="1"/>
        <pt x="2325" y="591" on="0"/>
        <pt x="2322" y="505" on="0"/>
        <pt x="2315" y="417" on="0"/>
        <pt x="2305" y="336" on="0"/>
        <pt x="2298" y="305" on="1"/>
        <pt x="2278" y="317" on="0"/>
        <pt x="2189" y="363" on="0"/>
        <pt x="2073" y="420" on="0"/>
        <pt x="1939" y="481" on="0"/>
        <pt x="1809" y="537" on="0"/>
        <pt x="1694" y="582" on="0"/>
        <pt x="1655" y="593" on="1"/>
        <pt x="1655" y="99" on="1"/>
        <pt x="1768" y="99" on="0"/>
        <pt x="2029" y="131" on="0"/>
        <pt x="2295" y="189" on="0"/>
        <pt x="2550" y="269" on="0"/>
        <pt x="2762" y="368" on="0"/>
        <pt x="2917" y="481" on="0"/>
        <pt x="2949" y="542" on="1"/>
        <pt x="3054" y="542" on="1"/>
        <pt x="3054" y="483" on="0"/>
        <pt x="3048" y="346" on="0"/>
        <pt x="3035" y="205" on="0"/>
        <pt x="3016" y="64" on="0"/>
        <pt x="3003" y="0" on="1"/>
        <pt x="100" y="0" on="1"/>
      </contour>
    </TTGlyph>
    <TTGlyph name="Egrave" xMin="100" yMin="0" xMax="3054" yMax="1885">
      <contour>
        <pt x="1007" y="1435" on="1"/>
        <pt x="1118" y="1479" on="0"/>
        <pt x="1341" y="1576" on="0"/>
        <pt x="1548" y="1669" on="0"/>
        <pt x="1732" y="1755" on="0"/>
        <pt x="1879" y="1823" on="0"/>
        <pt x="1980" y="1868" on="0"/>
        <pt x="2001" y="1874" on="1"/>
        <pt x="2043" y="1885" on="0"/>
        <pt x="2078" y="1885" on="1"/>
        <pt x="2113" y="1885" on="0"/>
        <pt x="2181" y="1863" on="0"/>
        <pt x="2235" y="1821" on="0"/>
        <pt x="2268" y="1757" on="0"/>
        <pt x="2268" y="1715" on="1"/>
        <pt x="2268" y="1646" on="0"/>
        <pt x="2176" y="1546" on="0"/>
        <pt x="2094" y="1525" on="1"/>
        <pt x="2062" y="1517" on="0"/>
        <pt x="1924" y="1505" on="0"/>
        <pt x="1713" y="1487" on="0"/>
        <pt x="1429" y="1459" on="0"/>
        <pt x="1251" y="1435" on="1"/>
      </contour>
      <contour>
        <pt x="100" y="94" on="1"/>
        <pt x="250" y="99" on="0"/>
        <pt x="448" y="159" on="0"/>
        <pt x="566" y="291" on="0"/>
        <pt x="615" y="506" on="0"/>
        <pt x="615" y="668" on="1"/>
        <pt x="615" y="777" on="0"/>
        <pt x="590" y="941" on="0"/>
        <pt x="537" y="1058" on="0"/>
        <pt x="454" y="1135" on="0"/>
        <pt x="340" y="1179" on="0"/>
        <pt x="192" y="1197" on="0"/>
        <pt x="100" y="1197" on="1"/>
        <pt x="100" y="1291" on="1"/>
        <pt x="2893" y="1291" on="1"/>
        <pt x="2906" y="1227" on="0"/>
        <pt x="2925" y="1086" on="0"/>
        <pt x="2938" y="945" on="0"/>
        <pt x="2944" y="808" on="0"/>
        <pt x="2944" y="749" on="1"/>
        <pt x="2839" y="749" on="1"/>
        <pt x="2794" y="816" on="0"/>
        <pt x="2647" y="934" on="0"/>
        <pt x="2459" y="1032" on="0"/>
        <pt x="2240" y="1110" on="0"/>
        <pt x="2006" y="1164" on="0"/>
        <pt x="1768" y="1192" on="0"/>
        <pt x="1655" y="1192" on="1"/>
        <pt x="1655" y="686" on="1"/>
        <pt x="1694" y="697" on="0"/>
        <pt x="1811" y="742" on="0"/>
        <pt x="1942" y="798" on="0"/>
        <pt x="2077" y="860" on="0"/>
        <pt x="2194" y="917" on="0"/>
        <pt x="2281" y="963" on="0"/>
        <pt x="2298" y="975" on="1"/>
        <pt x="2306" y="940" on="0"/>
        <pt x="2317" y="851" on="0"/>
        <pt x="2323" y="756" on="0"/>
        <pt x="2325" y="664" on="0"/>
        <pt x="2325" y="626" on="1"/>
        <pt x="2325" y="591" on="0"/>
        <pt x="2322" y="505" on="0"/>
        <pt x="2315" y="417" on="0"/>
        <pt x="2305" y="336" on="0"/>
        <pt x="2298" y="305" on="1"/>
        <pt x="2278" y="317" on="0"/>
        <pt x="2189" y="363" on="0"/>
        <pt x="2073" y="420" on="0"/>
        <pt x="1939" y="481" on="0"/>
        <pt x="1809" y="537" on="0"/>
        <pt x="1694" y="582" on="0"/>
        <pt x="1655" y="593" on="1"/>
        <pt x="1655" y="99" on="1"/>
        <pt x="1768" y="99" on="0"/>
        <pt x="2029" y="131" on="0"/>
        <pt x="2295" y="189" on="0"/>
        <pt x="2550" y="269" on="0"/>
        <pt x="2762" y="368" on="0"/>
        <pt x="2917" y="481" on="0"/>
        <pt x="2949" y="542" on="1"/>
        <pt x="3054" y="542" on="1"/>
        <pt x="3054" y="483" on="0"/>
        <pt x="3048" y="346" on="0"/>
        <pt x="3035" y="205" on="0"/>
        <pt x="3016" y="64" on="0"/>
        <pt x="3003" y="0" on="1"/>
        <pt x="100" y="0" on="1"/>
      </contour>
    </TTGlyph>
    <TTGlyph name="Eth" xMin="100" yMin="0" xMax="3231" yMax="1291">
      <contour>
        <pt x="100" y="94" on="1"/>
        <pt x="238" y="99" on="0"/>
        <pt x="428" y="150" on="0"/>
        <pt x="548" y="261" on="0"/>
        <pt x="607" y="442" on="0"/>
        <pt x="613" y="576" on="1"/>
        <pt x="548" y="575" on="0"/>
        <pt x="423" y="572" on="0"/>
        <pt x="310" y="568" on="0"/>
        <pt x="213" y="564" on="0"/>
        <pt x="177" y="561" on="1"/>
        <pt x="175" y="568" on="0"/>
        <pt x="172" y="591" on="0"/>
        <pt x="169" y="618" on="0"/>
        <pt x="168" y="644" on="0"/>
        <pt x="168" y="653" on="1"/>
        <pt x="168" y="661" on="0"/>
        <pt x="169" y="686" on="0"/>
        <pt x="172" y="712" on="0"/>
        <pt x="175" y="736" on="0"/>
        <pt x="177" y="745" on="1"/>
        <pt x="211" y="742" on="0"/>
        <pt x="307" y="738" on="0"/>
        <pt x="421" y="735" on="0"/>
        <pt x="548" y="731" on="0"/>
        <pt x="614" y="730" on="1"/>
        <pt x="609" y="874" on="0"/>
        <pt x="545" y="1056" on="0"/>
        <pt x="420" y="1159" on="0"/>
        <pt x="231" y="1197" on="0"/>
        <pt x="100" y="1197" on="1"/>
        <pt x="100" y="1291" on="1"/>
        <pt x="1747" y="1291" on="1"/>
        <pt x="1929" y="1291" on="0"/>
        <pt x="2290" y="1279" on="0"/>
        <pt x="2620" y="1237" on="0"/>
        <pt x="2904" y="1154" on="0"/>
        <pt x="3112" y="1011" on="0"/>
        <pt x="3231" y="799" on="0"/>
        <pt x="3231" y="648" on="1"/>
        <pt x="3231" y="532" on="0"/>
        <pt x="3146" y="352" on="0"/>
        <pt x="2996" y="217" on="0"/>
        <pt x="2791" y="123" on="0"/>
        <pt x="2550" y="59" on="0"/>
        <pt x="2284" y="23" on="0"/>
        <pt x="2011" y="5" on="0"/>
        <pt x="1743" y="0" on="0"/>
        <pt x="1621" y="0" on="1"/>
        <pt x="100" y="0" on="1"/>
      </contour>
      <contour>
        <pt x="1655" y="121" on="1"/>
        <pt x="1750" y="126" on="0"/>
        <pt x="1909" y="172" on="0"/>
        <pt x="2023" y="286" on="0"/>
        <pt x="2087" y="487" on="0"/>
        <pt x="2087" y="648" on="1"/>
        <pt x="2087" y="762" on="0"/>
        <pt x="2060" y="928" on="0"/>
        <pt x="2008" y="1043" on="0"/>
        <pt x="1933" y="1114" on="0"/>
        <pt x="1837" y="1154" on="0"/>
        <pt x="1721" y="1169" on="0"/>
        <pt x="1655" y="1171" on="1"/>
        <pt x="1655" y="732" on="1"/>
        <pt x="1743" y="734" on="0"/>
        <pt x="1889" y="741" on="0"/>
        <pt x="1936" y="745" on="1"/>
        <pt x="1941" y="719" on="0"/>
        <pt x="1946" y="679" on="0"/>
        <pt x="1946" y="653" on="1"/>
        <pt x="1946" y="628" on="0"/>
        <pt x="1941" y="587" on="0"/>
        <pt x="1936" y="561" on="1"/>
        <pt x="1891" y="566" on="0"/>
        <pt x="1743" y="573" on="0"/>
        <pt x="1655" y="575" on="1"/>
      </contour>
    </TTGlyph>
    <TTGlyph name="Euro" xMin="106" yMin="-57" xMax="3108" yMax="1346">
      <contour>
        <pt x="115" y="336" on="1"/>
        <pt x="113" y="343" on="0"/>
        <pt x="110" y="370" on="0"/>
        <pt x="107" y="400" on="0"/>
        <pt x="106" y="429" on="0"/>
        <pt x="106" y="438" on="1"/>
        <pt x="106" y="446" on="0"/>
        <pt x="107" y="474" on="0"/>
        <pt x="110" y="504" on="0"/>
        <pt x="113" y="531" on="0"/>
        <pt x="115" y="540" on="1"/>
        <pt x="143" y="538" on="0"/>
        <pt x="225" y="534" on="0"/>
        <pt x="326" y="531" on="0"/>
        <pt x="441" y="528" on="0"/>
        <pt x="502" y="527" on="1"/>
        <pt x="497" y="556" on="0"/>
        <pt x="491" y="618" on="0"/>
        <pt x="491" y="652" on="1"/>
        <pt x="491" y="680" on="0"/>
        <pt x="494" y="707" on="1"/>
        <pt x="403" y="705" on="0"/>
        <pt x="253" y="699" on="0"/>
        <pt x="205" y="696" on="1"/>
        <pt x="203" y="703" on="0"/>
        <pt x="200" y="730" on="0"/>
        <pt x="197" y="760" on="0"/>
        <pt x="196" y="789" on="0"/>
        <pt x="196" y="798" on="1"/>
        <pt x="196" y="806" on="0"/>
        <pt x="197" y="834" on="0"/>
        <pt x="200" y="864" on="0"/>
        <pt x="203" y="891" on="0"/>
        <pt x="205" y="900" on="1"/>
        <pt x="230" y="898" on="0"/>
        <pt x="303" y="894" on="0"/>
        <pt x="391" y="891" on="0"/>
        <pt x="493" y="888" on="0"/>
        <pt x="547" y="887" on="1"/>
        <pt x="602" y="993" on="0"/>
        <pt x="811" y="1164" on="0"/>
        <pt x="1105" y="1282" on="0"/>
        <pt x="1479" y="1346" on="0"/>
        <pt x="1698" y="1346" on="1"/>
        <pt x="1845" y="1346" on="0"/>
        <pt x="2129" y="1328" on="0"/>
        <pt x="2376" y="1303" on="0"/>
        <pt x="2575" y="1277" on="0"/>
        <pt x="2638" y="1270" on="1"/>
        <pt x="2659" y="1267" on="0"/>
        <pt x="2741" y="1249" on="0"/>
        <pt x="2787" y="1249" on="1"/>
        <pt x="2821" y="1249" on="0"/>
        <pt x="2884" y="1266" on="0"/>
        <pt x="2907" y="1291" on="1"/>
        <pt x="2969" y="1249" on="0"/>
        <pt x="3046" y="1155" on="0"/>
        <pt x="3090" y="1053" on="0"/>
        <pt x="3106" y="948" on="0"/>
        <pt x="3108" y="896" on="1"/>
        <pt x="2916" y="896" on="1"/>
        <pt x="2869" y="973" on="0"/>
        <pt x="2717" y="1083" on="0"/>
        <pt x="2537" y="1153" on="0"/>
        <pt x="2346" y="1185" on="0"/>
        <pt x="2261" y="1185" on="1"/>
        <pt x="2157" y="1185" on="0"/>
        <pt x="1987" y="1153" on="0"/>
        <pt x="1857" y="1081" on="0"/>
        <pt x="1767" y="966" on="0"/>
        <pt x="1742" y="883" on="1"/>
        <pt x="1865" y="884" on="0"/>
        <pt x="2114" y="887" on="0"/>
        <pt x="2331" y="892" on="0"/>
        <pt x="2495" y="897" on="0"/>
        <pt x="2533" y="900" on="1"/>
        <pt x="2543" y="851" on="0"/>
        <pt x="2543" y="798" on="1"/>
        <pt x="2543" y="773" on="0"/>
        <pt x="2538" y="722" on="0"/>
        <pt x="2533" y="696" on="1"/>
        <pt x="2508" y="699" on="0"/>
        <pt x="2413" y="703" on="0"/>
        <pt x="2287" y="707" on="0"/>
        <pt x="2135" y="709" on="0"/>
        <pt x="1969" y="712" on="0"/>
        <pt x="1797" y="713" on="0"/>
        <pt x="1713" y="714" on="1"/>
        <pt x="1710" y="673" on="0"/>
        <pt x="1710" y="629" on="1"/>
        <pt x="1710" y="601" on="0"/>
        <pt x="1713" y="549" on="0"/>
        <pt x="1717" y="524" on="1"/>
        <pt x="1833" y="525" on="0"/>
        <pt x="2063" y="528" on="0"/>
        <pt x="2259" y="532" on="0"/>
        <pt x="2408" y="537" on="0"/>
        <pt x="2443" y="540" on="1"/>
        <pt x="2453" y="491" on="0"/>
        <pt x="2453" y="438" on="1"/>
        <pt x="2453" y="413" on="0"/>
        <pt x="2448" y="362" on="0"/>
        <pt x="2443" y="336" on="1"/>
        <pt x="2411" y="339" on="0"/>
        <pt x="2275" y="345" on="0"/>
        <pt x="2093" y="349" on="0"/>
        <pt x="1879" y="352" on="0"/>
        <pt x="1769" y="353" on="1"/>
        <pt x="1835" y="225" on="0"/>
        <pt x="2106" y="102" on="0"/>
        <pt x="2304" y="102" on="1"/>
        <pt x="2397" y="102" on="0"/>
        <pt x="2592" y="136" on="0"/>
        <pt x="2767" y="211" on="0"/>
        <pt x="2905" y="330" on="0"/>
        <pt x="2941" y="416" on="1"/>
        <pt x="3106" y="418" on="1"/>
        <pt x="3051" y="188" on="0"/>
        <pt x="2479" y="-57" on="0"/>
        <pt x="1972" y="-57" on="1"/>
        <pt x="1711" y="-57" on="0"/>
        <pt x="1259" y="-18" on="0"/>
        <pt x="899" y="76" on="0"/>
        <pt x="638" y="233" on="0"/>
        <pt x="568" y="351" on="1"/>
        <pt x="499" y="349" on="0"/>
        <pt x="365" y="346" on="0"/>
        <pt x="247" y="342" on="0"/>
        <pt x="149" y="338" on="0"/>
      </contour>
    </TTGlyph>
    <TTGlyph name="F" xMin="100" yMin="0" xMax="2954" yMax="1291">
      <contour>
        <pt x="100" y="94" on="1"/>
        <pt x="250" y="99" on="0"/>
        <pt x="448" y="159" on="0"/>
        <pt x="566" y="291" on="0"/>
        <pt x="615" y="506" on="0"/>
        <pt x="615" y="668" on="1"/>
        <pt x="615" y="777" on="0"/>
        <pt x="590" y="941" on="0"/>
        <pt x="537" y="1058" on="0"/>
        <pt x="454" y="1135" on="0"/>
        <pt x="340" y="1179" on="0"/>
        <pt x="192" y="1197" on="0"/>
        <pt x="100" y="1197" on="1"/>
        <pt x="100" y="1291" on="1"/>
        <pt x="2903" y="1291" on="1"/>
        <pt x="2916" y="1227" on="0"/>
        <pt x="2935" y="1086" on="0"/>
        <pt x="2948" y="945" on="0"/>
        <pt x="2954" y="808" on="0"/>
        <pt x="2954" y="749" on="1"/>
        <pt x="2849" y="749" on="1"/>
        <pt x="2801" y="823" on="0"/>
        <pt x="2650" y="947" on="0"/>
        <pt x="2460" y="1046" on="0"/>
        <pt x="2239" y="1119" on="0"/>
        <pt x="2006" y="1168" on="0"/>
        <pt x="1768" y="1192" on="0"/>
        <pt x="1655" y="1192" on="1"/>
        <pt x="1655" y="686" on="1"/>
        <pt x="1701" y="696" on="0"/>
        <pt x="1832" y="741" on="0"/>
        <pt x="1976" y="797" on="0"/>
        <pt x="2124" y="860" on="0"/>
        <pt x="2250" y="917" on="0"/>
        <pt x="2342" y="964" on="0"/>
        <pt x="2360" y="976" on="1"/>
        <pt x="2368" y="941" on="0"/>
        <pt x="2379" y="854" on="0"/>
        <pt x="2386" y="762" on="0"/>
        <pt x="2389" y="672" on="0"/>
        <pt x="2389" y="634" on="1"/>
        <pt x="2389" y="599" on="0"/>
        <pt x="2385" y="509" on="0"/>
        <pt x="2378" y="418" on="0"/>
        <pt x="2367" y="333" on="0"/>
        <pt x="2360" y="302" on="1"/>
        <pt x="2340" y="314" on="0"/>
        <pt x="2246" y="360" on="0"/>
        <pt x="2119" y="418" on="0"/>
        <pt x="1973" y="481" on="0"/>
        <pt x="1830" y="537" on="0"/>
        <pt x="1702" y="583" on="0"/>
        <pt x="1658" y="594" on="1"/>
        <pt x="1668" y="454" on="0"/>
        <pt x="1770" y="262" on="0"/>
        <pt x="1959" y="145" on="0"/>
        <pt x="2237" y="94" on="0"/>
        <pt x="2425" y="94" on="1"/>
        <pt x="2425" y="0" on="1"/>
        <pt x="100" y="0" on="1"/>
      </contour>
    </TTGlyph>
    <TTGlyph name="G" xMin="115" yMin="-57" xMax="3004" yMax="1352">
      <contour>
        <pt x="115" y="608" on="1"/>
        <pt x="115" y="776" on="0"/>
        <pt x="269" y="1049" on="0"/>
        <pt x="563" y="1242" on="0"/>
        <pt x="989" y="1347" on="0"/>
        <pt x="1261" y="1347" on="1"/>
        <pt x="1392" y="1347" on="0"/>
        <pt x="1605" y="1335" on="0"/>
        <pt x="1779" y="1318" on="0"/>
        <pt x="1919" y="1298" on="0"/>
        <pt x="2039" y="1281" on="0"/>
        <pt x="2143" y="1269" on="0"/>
        <pt x="2194" y="1269" on="1"/>
        <pt x="2264" y="1269" on="0"/>
        <pt x="2352" y="1308" on="0"/>
        <pt x="2378" y="1352" on="1"/>
        <pt x="2628" y="1352" on="1"/>
        <pt x="2658" y="1300" on="0"/>
        <pt x="2698" y="1155" on="0"/>
        <pt x="2723" y="999" on="0"/>
        <pt x="2733" y="846" on="0"/>
        <pt x="2733" y="786" on="1"/>
        <pt x="2583" y="786" on="1"/>
        <pt x="2564" y="855" on="0"/>
        <pt x="2483" y="968" on="0"/>
        <pt x="2371" y="1056" on="0"/>
        <pt x="2237" y="1122" on="0"/>
        <pt x="2094" y="1164" on="0"/>
        <pt x="1950" y="1185" on="0"/>
        <pt x="1885" y="1185" on="1"/>
        <pt x="1812" y="1185" on="0"/>
        <pt x="1668" y="1156" on="0"/>
        <pt x="1535" y="1096" on="0"/>
        <pt x="1420" y="1005" on="0"/>
        <pt x="1335" y="882" on="0"/>
        <pt x="1287" y="725" on="0"/>
        <pt x="1287" y="630" on="1"/>
        <pt x="1287" y="507" on="0"/>
        <pt x="1369" y="300" on="0"/>
        <pt x="1512" y="150" on="0"/>
        <pt x="1707" y="66" on="0"/>
        <pt x="1821" y="66" on="1"/>
        <pt x="1834" y="66" on="0"/>
        <pt x="1878" y="67" on="0"/>
        <pt x="1925" y="70" on="0"/>
        <pt x="1969" y="73" on="0"/>
        <pt x="1983" y="76" on="1"/>
        <pt x="1983" y="180" on="0"/>
        <pt x="1978" y="328" on="0"/>
        <pt x="1953" y="428" on="0"/>
        <pt x="1900" y="487" on="0"/>
        <pt x="1802" y="518" on="0"/>
        <pt x="1653" y="527" on="0"/>
        <pt x="1545" y="527" on="1"/>
        <pt x="1545" y="621" on="1"/>
        <pt x="3004" y="621" on="1"/>
        <pt x="3004" y="527" on="1"/>
        <pt x="2947" y="527" on="0"/>
        <pt x="2867" y="512" on="0"/>
        <pt x="2818" y="479" on="0"/>
        <pt x="2796" y="425" on="0"/>
        <pt x="2796" y="387" on="1"/>
        <pt x="2796" y="343" on="0"/>
        <pt x="2809" y="245" on="0"/>
        <pt x="2835" y="147" on="0"/>
        <pt x="2872" y="54" on="0"/>
        <pt x="2895" y="14" on="1"/>
        <pt x="2713" y="-4" on="0"/>
        <pt x="2361" y="-30" on="0"/>
        <pt x="2011" y="-48" on="0"/>
        <pt x="1659" y="-57" on="0"/>
        <pt x="1477" y="-57" on="1"/>
        <pt x="1303" y="-57" on="0"/>
        <pt x="966" y="-36" on="0"/>
        <pt x="663" y="20" on="0"/>
        <pt x="407" y="115" on="0"/>
        <pt x="220" y="263" on="0"/>
        <pt x="115" y="469" on="0"/>
      </contour>
    </TTGlyph>
    <TTGlyph name="H" xMin="100" yMin="0" xMax="3650" yMax="1291">
      <contour>
        <pt x="100" y="94" on="1"/>
        <pt x="250" y="99" on="0"/>
        <pt x="448" y="159" on="0"/>
        <pt x="566" y="291" on="0"/>
        <pt x="615" y="506" on="0"/>
        <pt x="615" y="668" on="1"/>
        <pt x="615" y="777" on="0"/>
        <pt x="590" y="941" on="0"/>
        <pt x="537" y="1058" on="0"/>
        <pt x="454" y="1135" on="0"/>
        <pt x="340" y="1179" on="0"/>
        <pt x="192" y="1197" on="0"/>
        <pt x="100" y="1197" on="1"/>
        <pt x="100" y="1291" on="1"/>
        <pt x="1781" y="1291" on="1"/>
        <pt x="1781" y="1197" on="1"/>
        <pt x="1740" y="1197" on="0"/>
        <pt x="1691" y="1157" on="0"/>
        <pt x="1664" y="1047" on="0"/>
        <pt x="1655" y="849" on="0"/>
        <pt x="1655" y="692" on="1"/>
        <pt x="2097" y="692" on="1"/>
        <pt x="2097" y="849" on="0"/>
        <pt x="2087" y="1047" on="0"/>
        <pt x="2060" y="1157" on="0"/>
        <pt x="2011" y="1197" on="0"/>
        <pt x="1971" y="1197" on="1"/>
        <pt x="1971" y="1291" on="1"/>
        <pt x="3650" y="1291" on="1"/>
        <pt x="3650" y="1197" on="1"/>
        <pt x="3513" y="1197" on="0"/>
        <pt x="3318" y="1155" on="0"/>
        <pt x="3194" y="1038" on="0"/>
        <pt x="3136" y="832" on="0"/>
        <pt x="3136" y="668" on="1"/>
        <pt x="3136" y="506" on="0"/>
        <pt x="3185" y="291" on="0"/>
        <pt x="3303" y="159" on="0"/>
        <pt x="3501" y="99" on="0"/>
        <pt x="3650" y="94" on="1"/>
        <pt x="3650" y="0" on="1"/>
        <pt x="1971" y="0" on="1"/>
        <pt x="1971" y="94" on="1"/>
        <pt x="1995" y="98" on="0"/>
        <pt x="2037" y="149" on="0"/>
        <pt x="2070" y="259" on="0"/>
        <pt x="2092" y="436" on="0"/>
        <pt x="2095" y="565" on="1"/>
        <pt x="1656" y="565" on="1"/>
        <pt x="1659" y="436" on="0"/>
        <pt x="1681" y="259" on="0"/>
        <pt x="1714" y="149" on="0"/>
        <pt x="1757" y="98" on="0"/>
        <pt x="1781" y="94" on="1"/>
        <pt x="1781" y="0" on="1"/>
        <pt x="100" y="0" on="1"/>
      </contour>
    </TTGlyph>
    <TTGlyph name="I" xMin="100" yMin="0" xMax="2169" yMax="1291">
      <contour>
        <pt x="100" y="94" on="1"/>
        <pt x="250" y="99" on="0"/>
        <pt x="448" y="159" on="0"/>
        <pt x="566" y="291" on="0"/>
        <pt x="615" y="506" on="0"/>
        <pt x="615" y="668" on="1"/>
        <pt x="615" y="777" on="0"/>
        <pt x="590" y="941" on="0"/>
        <pt x="537" y="1058" on="0"/>
        <pt x="454" y="1135" on="0"/>
        <pt x="340" y="1179" on="0"/>
        <pt x="192" y="1197" on="0"/>
        <pt x="100" y="1197" on="1"/>
        <pt x="100" y="1291" on="1"/>
        <pt x="2169" y="1291" on="1"/>
        <pt x="2169" y="1197" on="1"/>
        <pt x="2031" y="1197" on="0"/>
        <pt x="1836" y="1155" on="0"/>
        <pt x="1712" y="1038" on="0"/>
        <pt x="1655" y="832" on="0"/>
        <pt x="1655" y="668" on="1"/>
        <pt x="1655" y="506" on="0"/>
        <pt x="1703" y="291" on="0"/>
        <pt x="1821" y="159" on="0"/>
        <pt x="2019" y="99" on="0"/>
        <pt x="2169" y="94" on="1"/>
        <pt x="2169" y="0" on="1"/>
        <pt x="100" y="0" on="1"/>
      </contour>
    </TTGlyph>
    <TTGlyph name="Iacute" xMin="100" yMin="0" xMax="2169" yMax="1885">
      <contour>
        <pt x="670" y="1525" on="1"/>
        <pt x="588" y="1546" on="0"/>
        <pt x="496" y="1646" on="0"/>
        <pt x="496" y="1715" on="1"/>
        <pt x="496" y="1757" on="0"/>
        <pt x="529" y="1821" on="0"/>
        <pt x="583" y="1863" on="0"/>
        <pt x="651" y="1885" on="0"/>
        <pt x="686" y="1885" on="1"/>
        <pt x="721" y="1885" on="0"/>
        <pt x="763" y="1874" on="1"/>
        <pt x="784" y="1868" on="0"/>
        <pt x="885" y="1823" on="0"/>
        <pt x="1032" y="1755" on="0"/>
        <pt x="1216" y="1669" on="0"/>
        <pt x="1423" y="1576" on="0"/>
        <pt x="1646" y="1479" on="0"/>
        <pt x="1757" y="1435" on="1"/>
        <pt x="1513" y="1435" on="1"/>
        <pt x="1335" y="1459" on="0"/>
        <pt x="1051" y="1487" on="0"/>
        <pt x="839" y="1505" on="0"/>
        <pt x="701" y="1517" on="0"/>
      </contour>
      <contour>
        <pt x="100" y="94" on="1"/>
        <pt x="250" y="99" on="0"/>
        <pt x="448" y="159" on="0"/>
        <pt x="566" y="291" on="0"/>
        <pt x="615" y="506" on="0"/>
        <pt x="615" y="668" on="1"/>
        <pt x="615" y="777" on="0"/>
        <pt x="590" y="941" on="0"/>
        <pt x="537" y="1058" on="0"/>
        <pt x="454" y="1135" on="0"/>
        <pt x="340" y="1179" on="0"/>
        <pt x="192" y="1197" on="0"/>
        <pt x="100" y="1197" on="1"/>
        <pt x="100" y="1291" on="1"/>
        <pt x="2169" y="1291" on="1"/>
        <pt x="2169" y="1197" on="1"/>
        <pt x="2031" y="1197" on="0"/>
        <pt x="1836" y="1155" on="0"/>
        <pt x="1712" y="1038" on="0"/>
        <pt x="1655" y="832" on="0"/>
        <pt x="1655" y="668" on="1"/>
        <pt x="1655" y="506" on="0"/>
        <pt x="1703" y="291" on="0"/>
        <pt x="1821" y="159" on="0"/>
        <pt x="2019" y="99" on="0"/>
        <pt x="2169" y="94" on="1"/>
        <pt x="2169" y="0" on="1"/>
        <pt x="100" y="0" on="1"/>
      </contour>
    </TTGlyph>
    <TTGlyph name="Icircumflex" xMin="100" yMin="0" xMax="2169" yMax="1910">
      <contour>
        <pt x="319" y="1401" on="1"/>
        <pt x="412" y="1471" on="0"/>
        <pt x="562" y="1580" on="0"/>
        <pt x="684" y="1666" on="0"/>
        <pt x="784" y="1732" on="0"/>
        <pt x="870" y="1787" on="0"/>
        <pt x="947" y="1835" on="0"/>
        <pt x="985" y="1860" on="1"/>
        <pt x="1014" y="1879" on="0"/>
        <pt x="1081" y="1910" on="0"/>
        <pt x="1134" y="1910" on="1"/>
        <pt x="1187" y="1910" on="0"/>
        <pt x="1254" y="1879" on="0"/>
        <pt x="1283" y="1860" on="1"/>
        <pt x="1321" y="1835" on="0"/>
        <pt x="1398" y="1787" on="0"/>
        <pt x="1484" y="1732" on="0"/>
        <pt x="1584" y="1666" on="0"/>
        <pt x="1706" y="1580" on="0"/>
        <pt x="1856" y="1471" on="0"/>
        <pt x="1949" y="1401" on="1"/>
        <pt x="1785" y="1401" on="1"/>
        <pt x="1134" y="1584" on="1"/>
        <pt x="483" y="1401" on="1"/>
      </contour>
      <contour>
        <pt x="100" y="94" on="1"/>
        <pt x="250" y="99" on="0"/>
        <pt x="448" y="159" on="0"/>
        <pt x="566" y="291" on="0"/>
        <pt x="615" y="506" on="0"/>
        <pt x="615" y="668" on="1"/>
        <pt x="615" y="777" on="0"/>
        <pt x="590" y="941" on="0"/>
        <pt x="537" y="1058" on="0"/>
        <pt x="454" y="1135" on="0"/>
        <pt x="340" y="1179" on="0"/>
        <pt x="192" y="1197" on="0"/>
        <pt x="100" y="1197" on="1"/>
        <pt x="100" y="1291" on="1"/>
        <pt x="2169" y="1291" on="1"/>
        <pt x="2169" y="1197" on="1"/>
        <pt x="2031" y="1197" on="0"/>
        <pt x="1836" y="1155" on="0"/>
        <pt x="1712" y="1038" on="0"/>
        <pt x="1655" y="832" on="0"/>
        <pt x="1655" y="668" on="1"/>
        <pt x="1655" y="636" on="1"/>
        <pt x="1657" y="484" on="0"/>
        <pt x="1709" y="280" on="0"/>
        <pt x="1827" y="155" on="0"/>
        <pt x="2023" y="99" on="0"/>
        <pt x="2169" y="94" on="1"/>
        <pt x="2169" y="0" on="1"/>
        <pt x="100" y="0" on="1"/>
      </contour>
    </TTGlyph>
    <TTGlyph name="Idieresis" xMin="100" yMin="0" xMax="2169" yMax="1833">
      <contour>
        <pt x="1216" y="1659" on="1"/>
        <pt x="1216" y="1691" on="0"/>
        <pt x="1248" y="1753" on="0"/>
        <pt x="1312" y="1803" on="0"/>
        <pt x="1406" y="1833" on="0"/>
        <pt x="1469" y="1833" on="1"/>
        <pt x="1532" y="1833" on="0"/>
        <pt x="1626" y="1803" on="0"/>
        <pt x="1690" y="1753" on="0"/>
        <pt x="1722" y="1691" on="0"/>
        <pt x="1722" y="1659" on="1"/>
        <pt x="1722" y="1627" on="0"/>
        <pt x="1690" y="1566" on="0"/>
        <pt x="1626" y="1517" on="0"/>
        <pt x="1532" y="1487" on="0"/>
        <pt x="1469" y="1487" on="1"/>
        <pt x="1406" y="1487" on="0"/>
        <pt x="1312" y="1517" on="0"/>
        <pt x="1248" y="1566" on="0"/>
        <pt x="1216" y="1627" on="0"/>
      </contour>
      <contour>
        <pt x="799" y="1487" on="1"/>
        <pt x="736" y="1487" on="0"/>
        <pt x="642" y="1517" on="0"/>
        <pt x="578" y="1566" on="0"/>
        <pt x="546" y="1627" on="0"/>
        <pt x="546" y="1659" on="1"/>
        <pt x="546" y="1691" on="0"/>
        <pt x="578" y="1753" on="0"/>
        <pt x="642" y="1803" on="0"/>
        <pt x="736" y="1833" on="0"/>
        <pt x="799" y="1833" on="1"/>
        <pt x="862" y="1833" on="0"/>
        <pt x="956" y="1803" on="0"/>
        <pt x="1020" y="1753" on="0"/>
        <pt x="1052" y="1691" on="0"/>
        <pt x="1052" y="1659" on="1"/>
        <pt x="1052" y="1627" on="0"/>
        <pt x="1020" y="1566" on="0"/>
        <pt x="956" y="1517" on="0"/>
        <pt x="862" y="1487" on="0"/>
      </contour>
      <contour>
        <pt x="100" y="94" on="1"/>
        <pt x="250" y="99" on="0"/>
        <pt x="448" y="159" on="0"/>
        <pt x="566" y="291" on="0"/>
        <pt x="615" y="506" on="0"/>
        <pt x="615" y="668" on="1"/>
        <pt x="615" y="777" on="0"/>
        <pt x="590" y="941" on="0"/>
        <pt x="537" y="1058" on="0"/>
        <pt x="454" y="1135" on="0"/>
        <pt x="340" y="1179" on="0"/>
        <pt x="192" y="1197" on="0"/>
        <pt x="100" y="1197" on="1"/>
        <pt x="100" y="1291" on="1"/>
        <pt x="2169" y="1291" on="1"/>
        <pt x="2169" y="1197" on="1"/>
        <pt x="2031" y="1197" on="0"/>
        <pt x="1836" y="1155" on="0"/>
        <pt x="1712" y="1038" on="0"/>
        <pt x="1655" y="832" on="0"/>
        <pt x="1655" y="668" on="1"/>
        <pt x="1655" y="506" on="0"/>
        <pt x="1703" y="291" on="0"/>
        <pt x="1821" y="159" on="0"/>
        <pt x="2019" y="99" on="0"/>
        <pt x="2169" y="94" on="1"/>
        <pt x="2169" y="0" on="1"/>
        <pt x="100" y="0" on="1"/>
      </contour>
    </TTGlyph>
    <TTGlyph name="Igrave" xMin="100" yMin="0" xMax="2169" yMax="1885">
      <contour>
        <pt x="486" y="1435" on="1"/>
        <pt x="597" y="1479" on="0"/>
        <pt x="820" y="1576" on="0"/>
        <pt x="1027" y="1669" on="0"/>
        <pt x="1211" y="1755" on="0"/>
        <pt x="1358" y="1823" on="0"/>
        <pt x="1459" y="1868" on="0"/>
        <pt x="1480" y="1874" on="1"/>
        <pt x="1522" y="1885" on="0"/>
        <pt x="1557" y="1885" on="1"/>
        <pt x="1592" y="1885" on="0"/>
        <pt x="1660" y="1863" on="0"/>
        <pt x="1714" y="1821" on="0"/>
        <pt x="1747" y="1757" on="0"/>
        <pt x="1747" y="1715" on="1"/>
        <pt x="1747" y="1646" on="0"/>
        <pt x="1655" y="1546" on="0"/>
        <pt x="1573" y="1525" on="1"/>
        <pt x="1541" y="1517" on="0"/>
        <pt x="1403" y="1505" on="0"/>
        <pt x="1192" y="1487" on="0"/>
        <pt x="908" y="1459" on="0"/>
        <pt x="730" y="1435" on="1"/>
      </contour>
      <contour>
        <pt x="100" y="94" on="1"/>
        <pt x="250" y="99" on="0"/>
        <pt x="448" y="159" on="0"/>
        <pt x="566" y="291" on="0"/>
        <pt x="615" y="506" on="0"/>
        <pt x="615" y="668" on="1"/>
        <pt x="615" y="777" on="0"/>
        <pt x="590" y="941" on="0"/>
        <pt x="537" y="1058" on="0"/>
        <pt x="454" y="1135" on="0"/>
        <pt x="340" y="1179" on="0"/>
        <pt x="192" y="1197" on="0"/>
        <pt x="100" y="1197" on="1"/>
        <pt x="100" y="1291" on="1"/>
        <pt x="2169" y="1291" on="1"/>
        <pt x="2169" y="1197" on="1"/>
        <pt x="2031" y="1197" on="0"/>
        <pt x="1836" y="1155" on="0"/>
        <pt x="1712" y="1038" on="0"/>
        <pt x="1655" y="832" on="0"/>
        <pt x="1655" y="668" on="1"/>
        <pt x="1655" y="506" on="0"/>
        <pt x="1703" y="291" on="0"/>
        <pt x="1821" y="159" on="0"/>
        <pt x="2019" y="99" on="0"/>
        <pt x="2169" y="94" on="1"/>
        <pt x="2169" y="0" on="1"/>
        <pt x="100" y="0" on="1"/>
      </contour>
    </TTGlyph>
    <TTGlyph name="Itilde" xMin="100" yMin="0" xMax="2169" yMax="1829">
      <contour>
        <pt x="431" y="1525" on="1"/>
        <pt x="480" y="1622" on="0"/>
        <pt x="588" y="1742" on="0"/>
        <pt x="701" y="1807" on="0"/>
        <pt x="815" y="1829" on="0"/>
        <pt x="870" y="1829" on="1"/>
        <pt x="949" y="1829" on="0"/>
        <pt x="1111" y="1791" on="0"/>
        <pt x="1276" y="1746" on="0"/>
        <pt x="1443" y="1709" on="0"/>
        <pt x="1527" y="1709" on="1"/>
        <pt x="1591" y="1709" on="0"/>
        <pt x="1738" y="1731" on="0"/>
        <pt x="1802" y="1758" on="1"/>
        <pt x="1837" y="1714" on="1"/>
        <pt x="1787" y="1616" on="0"/>
        <pt x="1679" y="1497" on="0"/>
        <pt x="1566" y="1431" on="0"/>
        <pt x="1452" y="1409" on="0"/>
        <pt x="1397" y="1409" on="1"/>
        <pt x="1318" y="1409" on="0"/>
        <pt x="1157" y="1447" on="0"/>
        <pt x="992" y="1492" on="0"/>
        <pt x="825" y="1530" on="0"/>
        <pt x="741" y="1530" on="1"/>
        <pt x="677" y="1530" on="0"/>
        <pt x="530" y="1508" on="0"/>
        <pt x="466" y="1481" on="1"/>
      </contour>
      <contour>
        <pt x="100" y="94" on="1"/>
        <pt x="250" y="99" on="0"/>
        <pt x="448" y="159" on="0"/>
        <pt x="566" y="291" on="0"/>
        <pt x="615" y="506" on="0"/>
        <pt x="615" y="668" on="1"/>
        <pt x="615" y="777" on="0"/>
        <pt x="590" y="941" on="0"/>
        <pt x="537" y="1058" on="0"/>
        <pt x="454" y="1135" on="0"/>
        <pt x="340" y="1179" on="0"/>
        <pt x="192" y="1197" on="0"/>
        <pt x="100" y="1197" on="1"/>
        <pt x="100" y="1291" on="1"/>
        <pt x="2169" y="1291" on="1"/>
        <pt x="2169" y="1197" on="1"/>
        <pt x="2031" y="1197" on="0"/>
        <pt x="1836" y="1155" on="0"/>
        <pt x="1712" y="1038" on="0"/>
        <pt x="1655" y="832" on="0"/>
        <pt x="1655" y="668" on="1"/>
        <pt x="1655" y="506" on="0"/>
        <pt x="1703" y="291" on="0"/>
        <pt x="1821" y="159" on="0"/>
        <pt x="2019" y="99" on="0"/>
        <pt x="2169" y="94" on="1"/>
        <pt x="2169" y="0" on="1"/>
        <pt x="100" y="0" on="1"/>
      </contour>
    </TTGlyph>
    <TTGlyph name="J" xMin="120" yMin="-148" xMax="2275" yMax="1291">
      <contour>
        <pt x="138" y="89" on="1"/>
        <pt x="199" y="77" on="0"/>
        <pt x="294" y="60" on="0"/>
        <pt x="375" y="49" on="0"/>
        <pt x="448" y="44" on="0"/>
        <pt x="489" y="44" on="1"/>
        <pt x="572" y="44" on="0"/>
        <pt x="685" y="99" on="0"/>
        <pt x="753" y="233" on="0"/>
        <pt x="782" y="454" on="0"/>
        <pt x="782" y="621" on="1"/>
        <pt x="782" y="744" on="0"/>
        <pt x="748" y="926" on="0"/>
        <pt x="681" y="1054" on="0"/>
        <pt x="583" y="1135" on="0"/>
        <pt x="455" y="1180" on="0"/>
        <pt x="299" y="1197" on="0"/>
        <pt x="207" y="1197" on="1"/>
        <pt x="207" y="1291" on="1"/>
        <pt x="2275" y="1291" on="1"/>
        <pt x="2275" y="1197" on="1"/>
        <pt x="2177" y="1197" on="0"/>
        <pt x="2035" y="1179" on="0"/>
        <pt x="1936" y="1137" on="0"/>
        <pt x="1874" y="1066" on="0"/>
        <pt x="1840" y="958" on="0"/>
        <pt x="1828" y="812" on="0"/>
        <pt x="1828" y="715" on="1"/>
        <pt x="1828" y="661" on="0"/>
        <pt x="1836" y="553" on="0"/>
        <pt x="1847" y="443" on="0"/>
        <pt x="1855" y="331" on="0"/>
        <pt x="1855" y="273" on="1"/>
        <pt x="1855" y="185" on="0"/>
        <pt x="1801" y="54" on="0"/>
        <pt x="1702" y="-40" on="0"/>
        <pt x="1562" y="-100" on="0"/>
        <pt x="1390" y="-135" on="0"/>
        <pt x="1190" y="-148" on="0"/>
        <pt x="1081" y="-148" on="1"/>
        <pt x="912" y="-148" on="0"/>
        <pt x="634" y="-126" on="0"/>
        <pt x="402" y="-89" on="0"/>
        <pt x="206" y="-40" on="0"/>
        <pt x="120" y="-14" on="1"/>
      </contour>
    </TTGlyph>
    <TTGlyph name="Jcircumflex" xMin="120" yMin="-148" xMax="2275" yMax="1910">
      <contour>
        <pt x="426" y="1401" on="1"/>
        <pt x="519" y="1471" on="0"/>
        <pt x="669" y="1580" on="0"/>
        <pt x="791" y="1666" on="0"/>
        <pt x="891" y="1732" on="0"/>
        <pt x="977" y="1787" on="0"/>
        <pt x="1054" y="1835" on="0"/>
        <pt x="1092" y="1860" on="1"/>
        <pt x="1121" y="1879" on="0"/>
        <pt x="1188" y="1910" on="0"/>
        <pt x="1241" y="1910" on="1"/>
        <pt x="1294" y="1910" on="0"/>
        <pt x="1361" y="1879" on="0"/>
        <pt x="1390" y="1860" on="1"/>
        <pt x="1428" y="1835" on="0"/>
        <pt x="1505" y="1787" on="0"/>
        <pt x="1591" y="1732" on="0"/>
        <pt x="1691" y="1666" on="0"/>
        <pt x="1813" y="1580" on="0"/>
        <pt x="1963" y="1471" on="0"/>
        <pt x="2056" y="1401" on="1"/>
        <pt x="1892" y="1401" on="1"/>
        <pt x="1241" y="1584" on="1"/>
        <pt x="590" y="1401" on="1"/>
      </contour>
      <contour>
        <pt x="138" y="89" on="1"/>
        <pt x="199" y="77" on="0"/>
        <pt x="294" y="60" on="0"/>
        <pt x="375" y="49" on="0"/>
        <pt x="448" y="44" on="0"/>
        <pt x="489" y="44" on="1"/>
        <pt x="572" y="44" on="0"/>
        <pt x="685" y="99" on="0"/>
        <pt x="753" y="233" on="0"/>
        <pt x="782" y="454" on="0"/>
        <pt x="782" y="621" on="1"/>
        <pt x="782" y="744" on="0"/>
        <pt x="748" y="926" on="0"/>
        <pt x="681" y="1054" on="0"/>
        <pt x="583" y="1135" on="0"/>
        <pt x="455" y="1180" on="0"/>
        <pt x="299" y="1197" on="0"/>
        <pt x="207" y="1197" on="1"/>
        <pt x="207" y="1291" on="1"/>
        <pt x="2275" y="1291" on="1"/>
        <pt x="2275" y="1197" on="1"/>
        <pt x="2177" y="1197" on="0"/>
        <pt x="2035" y="1179" on="0"/>
        <pt x="1936" y="1137" on="0"/>
        <pt x="1874" y="1066" on="0"/>
        <pt x="1840" y="958" on="0"/>
        <pt x="1828" y="812" on="0"/>
        <pt x="1828" y="715" on="1"/>
        <pt x="1828" y="661" on="0"/>
        <pt x="1836" y="553" on="0"/>
        <pt x="1847" y="443" on="0"/>
        <pt x="1855" y="331" on="0"/>
        <pt x="1855" y="273" on="1"/>
        <pt x="1855" y="185" on="0"/>
        <pt x="1801" y="54" on="0"/>
        <pt x="1702" y="-40" on="0"/>
        <pt x="1562" y="-100" on="0"/>
        <pt x="1390" y="-135" on="0"/>
        <pt x="1190" y="-148" on="0"/>
        <pt x="1081" y="-148" on="1"/>
        <pt x="912" y="-148" on="0"/>
        <pt x="634" y="-126" on="0"/>
        <pt x="402" y="-89" on="0"/>
        <pt x="206" y="-40" on="0"/>
        <pt x="120" y="-14" on="1"/>
      </contour>
    </TTGlyph>
    <TTGlyph name="K" xMin="100" yMin="-57" xMax="3344" yMax="1291">
      <contour>
        <pt x="100" y="94" on="1"/>
        <pt x="250" y="99" on="0"/>
        <pt x="448" y="159" on="0"/>
        <pt x="566" y="291" on="0"/>
        <pt x="615" y="506" on="0"/>
        <pt x="615" y="668" on="1"/>
        <pt x="615" y="777" on="0"/>
        <pt x="590" y="941" on="0"/>
        <pt x="537" y="1058" on="0"/>
        <pt x="454" y="1135" on="0"/>
        <pt x="340" y="1179" on="0"/>
        <pt x="192" y="1197" on="0"/>
        <pt x="100" y="1197" on="1"/>
        <pt x="100" y="1291" on="1"/>
        <pt x="1890" y="1291" on="1"/>
        <pt x="1890" y="1197" on="1"/>
        <pt x="1845" y="1197" on="0"/>
        <pt x="1763" y="1143" on="0"/>
        <pt x="1699" y="1020" on="0"/>
        <pt x="1658" y="820" on="0"/>
        <pt x="1655" y="674" on="1"/>
        <pt x="1720" y="708" on="0"/>
        <pt x="1866" y="786" on="0"/>
        <pt x="2009" y="869" on="0"/>
        <pt x="2139" y="953" on="0"/>
        <pt x="2237" y="1030" on="0"/>
        <pt x="2296" y="1097" on="0"/>
        <pt x="2296" y="1123" on="1"/>
        <pt x="2296" y="1157" on="0"/>
        <pt x="2203" y="1197" on="0"/>
        <pt x="2095" y="1197" on="1"/>
        <pt x="2095" y="1291" on="1"/>
        <pt x="3164" y="1291" on="1"/>
        <pt x="3164" y="1197" on="1"/>
        <pt x="3107" y="1197" on="0"/>
        <pt x="2932" y="1150" on="0"/>
        <pt x="2717" y="1069" on="0"/>
        <pt x="2473" y="964" on="0"/>
        <pt x="2224" y="848" on="0"/>
        <pt x="1981" y="729" on="0"/>
        <pt x="1874" y="676" on="1"/>
        <pt x="1996" y="691" on="0"/>
        <pt x="2179" y="718" on="0"/>
        <pt x="2336" y="739" on="0"/>
        <pt x="2486" y="752" on="0"/>
        <pt x="2574" y="752" on="1"/>
        <pt x="2689" y="752" on="0"/>
        <pt x="2852" y="721" on="0"/>
        <pt x="2965" y="664" on="0"/>
        <pt x="3036" y="580" on="0"/>
        <pt x="3083" y="473" on="0"/>
        <pt x="3113" y="346" on="0"/>
        <pt x="3128" y="273" on="1"/>
        <pt x="3139" y="220" on="0"/>
        <pt x="3163" y="152" on="0"/>
        <pt x="3207" y="112" on="0"/>
        <pt x="3282" y="96" on="0"/>
        <pt x="3344" y="95" on="1"/>
        <pt x="3344" y="-6" on="1"/>
        <pt x="3296" y="-17" on="0"/>
        <pt x="3189" y="-35" on="0"/>
        <pt x="3052" y="-49" on="0"/>
        <pt x="2876" y="-57" on="0"/>
        <pt x="2759" y="-57" on="1"/>
        <pt x="2614" y="-57" on="0"/>
        <pt x="2399" y="-48" on="0"/>
        <pt x="2242" y="-22" on="0"/>
        <pt x="2136" y="24" on="0"/>
        <pt x="2067" y="97" on="0"/>
        <pt x="2027" y="201" on="0"/>
        <pt x="2014" y="271" on="1"/>
        <pt x="2000" y="349" on="0"/>
        <pt x="1952" y="460" on="0"/>
        <pt x="1871" y="532" on="0"/>
        <pt x="1747" y="566" on="0"/>
        <pt x="1656" y="568" on="1"/>
        <pt x="1659" y="436" on="0"/>
        <pt x="1687" y="254" on="0"/>
        <pt x="1744" y="143" on="0"/>
        <pt x="1834" y="94" on="0"/>
        <pt x="1899" y="94" on="1"/>
        <pt x="1899" y="0" on="1"/>
        <pt x="100" y="0" on="1"/>
      </contour>
    </TTGlyph>
    <TTGlyph name="L" xMin="100" yMin="0" xMax="2754" yMax="1291">
      <contour>
        <pt x="100" y="94" on="1"/>
        <pt x="250" y="99" on="0"/>
        <pt x="448" y="159" on="0"/>
        <pt x="566" y="291" on="0"/>
        <pt x="615" y="506" on="0"/>
        <pt x="615" y="668" on="1"/>
        <pt x="615" y="777" on="0"/>
        <pt x="590" y="941" on="0"/>
        <pt x="537" y="1058" on="0"/>
        <pt x="454" y="1135" on="0"/>
        <pt x="340" y="1179" on="0"/>
        <pt x="192" y="1197" on="0"/>
        <pt x="100" y="1197" on="1"/>
        <pt x="100" y="1291" on="1"/>
        <pt x="2169" y="1291" on="1"/>
        <pt x="2169" y="1197" on="1"/>
        <pt x="2031" y="1197" on="0"/>
        <pt x="1836" y="1155" on="0"/>
        <pt x="1712" y="1038" on="0"/>
        <pt x="1655" y="832" on="0"/>
        <pt x="1655" y="668" on="1"/>
        <pt x="1655" y="99" on="1"/>
        <pt x="1786" y="99" on="0"/>
        <pt x="2032" y="153" on="0"/>
        <pt x="2249" y="247" on="0"/>
        <pt x="2431" y="372" on="0"/>
        <pt x="2564" y="515" on="0"/>
        <pt x="2643" y="668" on="0"/>
        <pt x="2649" y="742" on="1"/>
        <pt x="2754" y="742" on="1"/>
        <pt x="2754" y="702" on="0"/>
        <pt x="2751" y="586" on="0"/>
        <pt x="2746" y="450" on="0"/>
        <pt x="2738" y="304" on="0"/>
        <pt x="2727" y="166" on="0"/>
        <pt x="2712" y="44" on="0"/>
        <pt x="2703" y="0" on="1"/>
        <pt x="100" y="0" on="1"/>
      </contour>
    </TTGlyph>
    <TTGlyph name="Lslash" xMin="100" yMin="0" xMax="2754" yMax="1291">
      <contour>
        <pt x="100" y="94" on="1"/>
        <pt x="227" y="98" on="0"/>
        <pt x="408" y="142" on="0"/>
        <pt x="528" y="235" on="0"/>
        <pt x="594" y="383" on="0"/>
        <pt x="606" y="493" on="1"/>
        <pt x="535" y="480" on="0"/>
        <pt x="401" y="454" on="0"/>
        <pt x="283" y="430" on="0"/>
        <pt x="185" y="410" on="0"/>
        <pt x="152" y="402" on="1"/>
        <pt x="137" y="434" on="0"/>
        <pt x="120" y="520" on="0"/>
        <pt x="120" y="563" on="1"/>
        <pt x="154" y="566" on="0"/>
        <pt x="259" y="581" on="0"/>
        <pt x="390" y="600" on="0"/>
        <pt x="538" y="624" on="0"/>
        <pt x="615" y="637" on="1"/>
        <pt x="615" y="668" on="1"/>
        <pt x="615" y="777" on="0"/>
        <pt x="590" y="941" on="0"/>
        <pt x="537" y="1058" on="0"/>
        <pt x="454" y="1135" on="0"/>
        <pt x="340" y="1179" on="0"/>
        <pt x="192" y="1197" on="0"/>
        <pt x="100" y="1197" on="1"/>
        <pt x="100" y="1291" on="1"/>
        <pt x="2169" y="1291" on="1"/>
        <pt x="2169" y="1197" on="1"/>
        <pt x="2048" y="1197" on="0"/>
        <pt x="1869" y="1165" on="0"/>
        <pt x="1745" y="1080" on="0"/>
        <pt x="1674" y="932" on="0"/>
        <pt x="1662" y="816" on="1"/>
        <pt x="1772" y="835" on="0"/>
        <pt x="1994" y="875" on="0"/>
        <pt x="2185" y="911" on="0"/>
        <pt x="2332" y="941" on="0"/>
        <pt x="2367" y="950" on="1"/>
        <pt x="2380" y="918" on="0"/>
        <pt x="2400" y="844" on="0"/>
        <pt x="2400" y="810" on="1"/>
        <pt x="2400" y="805" on="0"/>
        <pt x="2399" y="794" on="0"/>
        <pt x="2399" y="788" on="1"/>
        <pt x="2375" y="786" on="0"/>
        <pt x="2288" y="776" on="0"/>
        <pt x="2173" y="760" on="0"/>
        <pt x="2036" y="739" on="0"/>
        <pt x="1887" y="715" on="0"/>
        <pt x="1731" y="690" on="0"/>
        <pt x="1655" y="677" on="1"/>
        <pt x="1655" y="99" on="1"/>
        <pt x="1786" y="99" on="0"/>
        <pt x="2032" y="153" on="0"/>
        <pt x="2249" y="247" on="0"/>
        <pt x="2431" y="372" on="0"/>
        <pt x="2564" y="515" on="0"/>
        <pt x="2643" y="668" on="0"/>
        <pt x="2649" y="742" on="1"/>
        <pt x="2754" y="742" on="1"/>
        <pt x="2754" y="702" on="0"/>
        <pt x="2751" y="586" on="0"/>
        <pt x="2746" y="450" on="0"/>
        <pt x="2738" y="304" on="0"/>
        <pt x="2727" y="166" on="0"/>
        <pt x="2712" y="44" on="0"/>
        <pt x="2703" y="0" on="1"/>
        <pt x="100" y="0" on="1"/>
      </contour>
    </TTGlyph>
    <TTGlyph name="M" xMin="86" yMin="-36" xMax="3590" yMax="1291">
      <contour>
        <pt x="100" y="94" on="1"/>
        <pt x="250" y="99" on="0"/>
        <pt x="448" y="159" on="0"/>
        <pt x="566" y="291" on="0"/>
        <pt x="615" y="506" on="0"/>
        <pt x="615" y="668" on="1"/>
        <pt x="615" y="832" on="0"/>
        <pt x="553" y="1038" on="0"/>
        <pt x="424" y="1155" on="0"/>
        <pt x="224" y="1197" on="0"/>
        <pt x="86" y="1197" on="1"/>
        <pt x="86" y="1291" on="1"/>
        <pt x="1558" y="1291" on="1"/>
        <pt x="1892" y="907" on="1"/>
        <pt x="2126" y="1291" on="1"/>
        <pt x="3590" y="1291" on="1"/>
        <pt x="3590" y="1197" on="1"/>
        <pt x="3452" y="1197" on="0"/>
        <pt x="3257" y="1155" on="0"/>
        <pt x="3133" y="1038" on="0"/>
        <pt x="3076" y="832" on="0"/>
        <pt x="3076" y="668" on="1"/>
        <pt x="3076" y="506" on="0"/>
        <pt x="3124" y="291" on="0"/>
        <pt x="3242" y="159" on="0"/>
        <pt x="3440" y="99" on="0"/>
        <pt x="3590" y="94" on="1"/>
        <pt x="3590" y="0" on="1"/>
        <pt x="1702" y="0" on="1"/>
        <pt x="1702" y="94" on="1"/>
        <pt x="1801" y="97" on="0"/>
        <pt x="1942" y="141" on="0"/>
        <pt x="2036" y="217" on="0"/>
        <pt x="2091" y="321" on="0"/>
        <pt x="2118" y="446" on="0"/>
        <pt x="2126" y="590" on="0"/>
        <pt x="2126" y="668" on="1"/>
        <pt x="2126" y="1045" on="1"/>
        <pt x="1449" y="-36" on="1"/>
        <pt x="736" y="848" on="1"/>
        <pt x="736" y="668" on="1"/>
        <pt x="736" y="590" on="0"/>
        <pt x="743" y="446" on="0"/>
        <pt x="771" y="321" on="0"/>
        <pt x="826" y="217" on="0"/>
        <pt x="920" y="142" on="0"/>
        <pt x="1060" y="97" on="0"/>
        <pt x="1160" y="94" on="1"/>
        <pt x="1160" y="0" on="1"/>
        <pt x="100" y="0" on="1"/>
      </contour>
    </TTGlyph>
    <TTGlyph name="N" xMin="80" yMin="0" xMax="3295" yMax="1291">
      <contour>
        <pt x="80" y="94" on="1"/>
        <pt x="230" y="99" on="0"/>
        <pt x="428" y="159" on="0"/>
        <pt x="546" y="291" on="0"/>
        <pt x="595" y="506" on="0"/>
        <pt x="595" y="668" on="1"/>
        <pt x="595" y="777" on="0"/>
        <pt x="570" y="941" on="0"/>
        <pt x="517" y="1058" on="0"/>
        <pt x="434" y="1135" on="0"/>
        <pt x="320" y="1179" on="0"/>
        <pt x="172" y="1197" on="0"/>
        <pt x="80" y="1197" on="1"/>
        <pt x="80" y="1291" on="1"/>
        <pt x="1826" y="1291" on="1"/>
        <pt x="2707" y="575" on="1"/>
        <pt x="2709" y="668" on="1"/>
        <pt x="2709" y="832" on="0"/>
        <pt x="2652" y="1038" on="0"/>
        <pt x="2528" y="1155" on="0"/>
        <pt x="2333" y="1197" on="0"/>
        <pt x="2195" y="1197" on="1"/>
        <pt x="2195" y="1291" on="1"/>
        <pt x="3295" y="1291" on="1"/>
        <pt x="3295" y="1197" on="1"/>
        <pt x="3203" y="1197" on="0"/>
        <pt x="3063" y="1179" on="0"/>
        <pt x="2960" y="1135" on="0"/>
        <pt x="2891" y="1058" on="0"/>
        <pt x="2849" y="941" on="0"/>
        <pt x="2831" y="777" on="0"/>
        <pt x="2831" y="668" on="1"/>
        <pt x="2831" y="0" on="1"/>
        <pt x="1805" y="0" on="1"/>
        <pt x="1625" y="156" on="0"/>
        <pt x="1439" y="315" on="1"/>
        <pt x="1360" y="383" on="0"/>
        <pt x="1184" y="534" on="0"/>
        <pt x="1003" y="689" on="0"/>
        <pt x="823" y="843" on="0"/>
        <pt x="739" y="915" on="1"/>
        <pt x="727" y="865" on="0"/>
        <pt x="716" y="743" on="0"/>
        <pt x="716" y="668" on="1"/>
        <pt x="716" y="506" on="0"/>
        <pt x="765" y="291" on="0"/>
        <pt x="883" y="159" on="0"/>
        <pt x="1081" y="99" on="0"/>
        <pt x="1230" y="94" on="1"/>
        <pt x="1230" y="0" on="1"/>
        <pt x="80" y="0" on="1"/>
      </contour>
    </TTGlyph>
    <TTGlyph name="Nacute" xMin="80" yMin="0" xMax="3295" yMax="1885">
      <contour>
        <pt x="1248" y="1525" on="1"/>
        <pt x="1166" y="1546" on="0"/>
        <pt x="1074" y="1646" on="0"/>
        <pt x="1074" y="1715" on="1"/>
        <pt x="1074" y="1757" on="0"/>
        <pt x="1107" y="1821" on="0"/>
        <pt x="1161" y="1863" on="0"/>
        <pt x="1229" y="1885" on="0"/>
        <pt x="1264" y="1885" on="1"/>
        <pt x="1299" y="1885" on="0"/>
        <pt x="1341" y="1874" on="1"/>
        <pt x="1362" y="1868" on="0"/>
        <pt x="1463" y="1823" on="0"/>
        <pt x="1610" y="1755" on="0"/>
        <pt x="1794" y="1669" on="0"/>
        <pt x="2001" y="1576" on="0"/>
        <pt x="2224" y="1479" on="0"/>
        <pt x="2335" y="1435" on="1"/>
        <pt x="2091" y="1435" on="1"/>
        <pt x="1913" y="1459" on="0"/>
        <pt x="1629" y="1487" on="0"/>
        <pt x="1417" y="1505" on="0"/>
        <pt x="1279" y="1517" on="0"/>
      </contour>
      <contour>
        <pt x="80" y="94" on="1"/>
        <pt x="226" y="99" on="0"/>
        <pt x="422" y="155" on="0"/>
        <pt x="541" y="280" on="0"/>
        <pt x="593" y="484" on="0"/>
        <pt x="595" y="636" on="1"/>
        <pt x="595" y="668" on="1"/>
        <pt x="595" y="777" on="0"/>
        <pt x="570" y="941" on="0"/>
        <pt x="517" y="1058" on="0"/>
        <pt x="434" y="1135" on="0"/>
        <pt x="320" y="1179" on="0"/>
        <pt x="172" y="1197" on="0"/>
        <pt x="80" y="1197" on="1"/>
        <pt x="80" y="1291" on="1"/>
        <pt x="1826" y="1291" on="1"/>
        <pt x="2707" y="575" on="1"/>
        <pt x="2708" y="597" on="0"/>
        <pt x="2709" y="643" on="0"/>
        <pt x="2709" y="668" on="1"/>
        <pt x="2709" y="832" on="0"/>
        <pt x="2652" y="1038" on="0"/>
        <pt x="2528" y="1155" on="0"/>
        <pt x="2333" y="1197" on="0"/>
        <pt x="2195" y="1197" on="1"/>
        <pt x="2195" y="1291" on="1"/>
        <pt x="3295" y="1291" on="1"/>
        <pt x="3295" y="1197" on="1"/>
        <pt x="3203" y="1197" on="0"/>
        <pt x="3063" y="1179" on="0"/>
        <pt x="2960" y="1135" on="0"/>
        <pt x="2891" y="1058" on="0"/>
        <pt x="2849" y="941" on="0"/>
        <pt x="2831" y="777" on="0"/>
        <pt x="2831" y="668" on="1"/>
        <pt x="2831" y="0" on="1"/>
        <pt x="1805" y="0" on="1"/>
        <pt x="1625" y="156" on="0"/>
        <pt x="1439" y="315" on="1"/>
        <pt x="1360" y="383" on="0"/>
        <pt x="1184" y="534" on="0"/>
        <pt x="1003" y="689" on="0"/>
        <pt x="823" y="843" on="0"/>
        <pt x="739" y="915" on="1"/>
        <pt x="727" y="865" on="0"/>
        <pt x="716" y="743" on="0"/>
        <pt x="716" y="668" on="1"/>
        <pt x="716" y="506" on="0"/>
        <pt x="765" y="291" on="0"/>
        <pt x="883" y="159" on="0"/>
        <pt x="1081" y="99" on="0"/>
        <pt x="1230" y="94" on="1"/>
        <pt x="1230" y="0" on="1"/>
        <pt x="80" y="0" on="1"/>
      </contour>
    </TTGlyph>
    <TTGlyph name="Ntilde" xMin="80" yMin="0" xMax="3295" yMax="1829">
      <contour>
        <pt x="1009" y="1525" on="1"/>
        <pt x="1058" y="1622" on="0"/>
        <pt x="1166" y="1742" on="0"/>
        <pt x="1279" y="1807" on="0"/>
        <pt x="1393" y="1829" on="0"/>
        <pt x="1448" y="1829" on="1"/>
        <pt x="1527" y="1829" on="0"/>
        <pt x="1689" y="1791" on="0"/>
        <pt x="1854" y="1746" on="0"/>
        <pt x="2021" y="1709" on="0"/>
        <pt x="2105" y="1709" on="1"/>
        <pt x="2169" y="1709" on="0"/>
        <pt x="2316" y="1731" on="0"/>
        <pt x="2380" y="1758" on="1"/>
        <pt x="2415" y="1714" on="1"/>
        <pt x="2365" y="1616" on="0"/>
        <pt x="2257" y="1497" on="0"/>
        <pt x="2144" y="1431" on="0"/>
        <pt x="2030" y="1409" on="0"/>
        <pt x="1975" y="1409" on="1"/>
        <pt x="1896" y="1409" on="0"/>
        <pt x="1735" y="1447" on="0"/>
        <pt x="1570" y="1492" on="0"/>
        <pt x="1403" y="1530" on="0"/>
        <pt x="1319" y="1530" on="1"/>
        <pt x="1255" y="1530" on="0"/>
        <pt x="1108" y="1508" on="0"/>
        <pt x="1044" y="1481" on="1"/>
      </contour>
      <contour>
        <pt x="80" y="94" on="1"/>
        <pt x="230" y="99" on="0"/>
        <pt x="428" y="159" on="0"/>
        <pt x="546" y="291" on="0"/>
        <pt x="595" y="506" on="0"/>
        <pt x="595" y="668" on="1"/>
        <pt x="595" y="777" on="0"/>
        <pt x="570" y="941" on="0"/>
        <pt x="517" y="1058" on="0"/>
        <pt x="434" y="1135" on="0"/>
        <pt x="320" y="1179" on="0"/>
        <pt x="172" y="1197" on="0"/>
        <pt x="80" y="1197" on="1"/>
        <pt x="80" y="1291" on="1"/>
        <pt x="1826" y="1291" on="1"/>
        <pt x="2707" y="575" on="1"/>
        <pt x="2708" y="597" on="0"/>
        <pt x="2709" y="643" on="0"/>
        <pt x="2709" y="668" on="1"/>
        <pt x="2709" y="832" on="0"/>
        <pt x="2652" y="1038" on="0"/>
        <pt x="2528" y="1155" on="0"/>
        <pt x="2333" y="1197" on="0"/>
        <pt x="2195" y="1197" on="1"/>
        <pt x="2195" y="1291" on="1"/>
        <pt x="3295" y="1291" on="1"/>
        <pt x="3295" y="1197" on="1"/>
        <pt x="3203" y="1197" on="0"/>
        <pt x="3063" y="1179" on="0"/>
        <pt x="2960" y="1135" on="0"/>
        <pt x="2891" y="1058" on="0"/>
        <pt x="2849" y="941" on="0"/>
        <pt x="2831" y="777" on="0"/>
        <pt x="2831" y="668" on="1"/>
        <pt x="2831" y="0" on="1"/>
        <pt x="1805" y="0" on="1"/>
        <pt x="1625" y="156" on="0"/>
        <pt x="1439" y="315" on="1"/>
        <pt x="1360" y="383" on="0"/>
        <pt x="1184" y="534" on="0"/>
        <pt x="1003" y="689" on="0"/>
        <pt x="823" y="843" on="0"/>
        <pt x="739" y="915" on="1"/>
        <pt x="727" y="865" on="0"/>
        <pt x="716" y="743" on="0"/>
        <pt x="716" y="668" on="1"/>
        <pt x="716" y="636" on="1"/>
        <pt x="718" y="484" on="0"/>
        <pt x="770" y="280" on="0"/>
        <pt x="889" y="155" on="0"/>
        <pt x="1084" y="99" on="0"/>
        <pt x="1230" y="94" on="1"/>
        <pt x="1230" y="0" on="1"/>
        <pt x="80" y="0" on="1"/>
      </contour>
    </TTGlyph>
    <TTGlyph name="O" xMin="105" yMin="-57" xMax="2918" yMax="1347">
      <contour>
        <pt x="105" y="645" on="1"/>
        <pt x="105" y="792" on="0"/>
        <pt x="218" y="1010" on="0"/>
        <pt x="415" y="1166" on="0"/>
        <pt x="684" y="1266" on="0"/>
        <pt x="996" y="1325" on="0"/>
        <pt x="1339" y="1347" on="0"/>
        <pt x="1511" y="1347" on="1"/>
        <pt x="1683" y="1347" on="0"/>
        <pt x="2026" y="1325" on="0"/>
        <pt x="2339" y="1266" on="0"/>
        <pt x="2608" y="1166" on="0"/>
        <pt x="2805" y="1010" on="0"/>
        <pt x="2918" y="792" on="0"/>
        <pt x="2918" y="645" on="1"/>
        <pt x="2918" y="498" on="0"/>
        <pt x="2805" y="280" on="0"/>
        <pt x="2608" y="124" on="0"/>
        <pt x="2339" y="24" on="0"/>
        <pt x="2026" y="-35" on="0"/>
        <pt x="1683" y="-57" on="0"/>
        <pt x="1511" y="-57" on="1"/>
        <pt x="1339" y="-57" on="0"/>
        <pt x="996" y="-35" on="0"/>
        <pt x="684" y="24" on="0"/>
        <pt x="415" y="124" on="0"/>
        <pt x="218" y="280" on="0"/>
        <pt x="105" y="498" on="0"/>
      </contour>
      <contour>
        <pt x="1270" y="645" on="1"/>
        <pt x="1270" y="519" on="0"/>
        <pt x="1289" y="303" on="0"/>
        <pt x="1341" y="146" on="0"/>
        <pt x="1433" y="56" on="0"/>
        <pt x="1506" y="56" on="1"/>
        <pt x="1579" y="56" on="0"/>
        <pt x="1674" y="146" on="0"/>
        <pt x="1730" y="303" on="0"/>
        <pt x="1753" y="519" on="0"/>
        <pt x="1753" y="645" on="1"/>
        <pt x="1753" y="771" on="0"/>
        <pt x="1730" y="987" on="0"/>
        <pt x="1674" y="1145" on="0"/>
        <pt x="1579" y="1234" on="0"/>
        <pt x="1506" y="1234" on="1"/>
        <pt x="1457" y="1234" on="0"/>
        <pt x="1384" y="1188" on="0"/>
        <pt x="1332" y="1107" on="0"/>
        <pt x="1298" y="995" on="0"/>
        <pt x="1278" y="864" on="0"/>
        <pt x="1270" y="719" on="0"/>
      </contour>
    </TTGlyph>
    <TTGlyph name="OE" xMin="105" yMin="0" xMax="3951" yMax="1291">
      <contour>
        <pt x="105" y="645" on="1"/>
        <pt x="105" y="784" on="0"/>
        <pt x="216" y="988" on="0"/>
        <pt x="412" y="1132" on="0"/>
        <pt x="678" y="1222" on="0"/>
        <pt x="988" y="1273" on="0"/>
        <pt x="1327" y="1291" on="0"/>
        <pt x="1497" y="1291" on="1"/>
        <pt x="3840" y="1291" on="1"/>
        <pt x="3853" y="1227" on="0"/>
        <pt x="3872" y="1086" on="0"/>
        <pt x="3885" y="945" on="0"/>
        <pt x="3891" y="808" on="0"/>
        <pt x="3891" y="749" on="1"/>
        <pt x="3786" y="749" on="1"/>
        <pt x="3739" y="804" on="0"/>
        <pt x="3603" y="910" on="0"/>
        <pt x="3436" y="1007" on="0"/>
        <pt x="3240" y="1089" on="0"/>
        <pt x="3029" y="1148" on="0"/>
        <pt x="2805" y="1182" on="0"/>
        <pt x="2692" y="1182" on="1"/>
        <pt x="2692" y="686" on="1"/>
        <pt x="2729" y="697" on="0"/>
        <pt x="2829" y="740" on="0"/>
        <pt x="2938" y="794" on="0"/>
        <pt x="3049" y="854" on="0"/>
        <pt x="3145" y="908" on="0"/>
        <pt x="3218" y="953" on="0"/>
        <pt x="3235" y="965" on="1"/>
        <pt x="3243" y="930" on="0"/>
        <pt x="3254" y="844" on="0"/>
        <pt x="3260" y="753" on="0"/>
        <pt x="3262" y="664" on="0"/>
        <pt x="3262" y="626" on="1"/>
        <pt x="3262" y="591" on="0"/>
        <pt x="3259" y="508" on="0"/>
        <pt x="3252" y="424" on="0"/>
        <pt x="3242" y="346" on="0"/>
        <pt x="3235" y="315" on="1"/>
        <pt x="3215" y="327" on="0"/>
        <pt x="3140" y="371" on="0"/>
        <pt x="3044" y="425" on="0"/>
        <pt x="2935" y="485" on="0"/>
        <pt x="2827" y="538" on="0"/>
        <pt x="2729" y="581" on="0"/>
        <pt x="2692" y="592" on="1"/>
        <pt x="2692" y="109" on="1"/>
        <pt x="2805" y="109" on="0"/>
        <pt x="3037" y="143" on="0"/>
        <pt x="3263" y="202" on="0"/>
        <pt x="3473" y="284" on="0"/>
        <pt x="3655" y="381" on="0"/>
        <pt x="3799" y="487" on="0"/>
        <pt x="3846" y="542" on="1"/>
        <pt x="3951" y="542" on="1"/>
        <pt x="3951" y="483" on="0"/>
        <pt x="3945" y="346" on="0"/>
        <pt x="3932" y="205" on="0"/>
        <pt x="3913" y="64" on="0"/>
        <pt x="3900" y="0" on="1"/>
        <pt x="1497" y="0" on="1"/>
        <pt x="1326" y="0" on="0"/>
        <pt x="988" y="18" on="0"/>
        <pt x="678" y="69" on="0"/>
        <pt x="412" y="159" on="0"/>
        <pt x="216" y="302" on="0"/>
        <pt x="105" y="506" on="0"/>
      </contour>
      <contour>
        <pt x="1248" y="645" on="1"/>
        <pt x="1248" y="519" on="0"/>
        <pt x="1270" y="321" on="0"/>
        <pt x="1325" y="185" on="0"/>
        <pt x="1420" y="113" on="0"/>
        <pt x="1492" y="113" on="1"/>
        <pt x="1564" y="113" on="0"/>
        <pt x="1659" y="185" on="0"/>
        <pt x="1714" y="321" on="0"/>
        <pt x="1737" y="519" on="0"/>
        <pt x="1737" y="645" on="1"/>
        <pt x="1737" y="771" on="0"/>
        <pt x="1714" y="970" on="0"/>
        <pt x="1659" y="1106" on="0"/>
        <pt x="1564" y="1178" on="0"/>
        <pt x="1492" y="1178" on="1"/>
        <pt x="1420" y="1178" on="0"/>
        <pt x="1325" y="1106" on="0"/>
        <pt x="1270" y="970" on="0"/>
        <pt x="1248" y="771" on="0"/>
      </contour>
    </TTGlyph>
    <TTGlyph name="Oacute" xMin="105" yMin="-57" xMax="2918" yMax="1885">
      <contour>
        <pt x="1012" y="1525" on="1"/>
        <pt x="930" y="1546" on="0"/>
        <pt x="838" y="1646" on="0"/>
        <pt x="838" y="1715" on="1"/>
        <pt x="838" y="1757" on="0"/>
        <pt x="871" y="1821" on="0"/>
        <pt x="925" y="1863" on="0"/>
        <pt x="993" y="1885" on="0"/>
        <pt x="1028" y="1885" on="1"/>
        <pt x="1063" y="1885" on="0"/>
        <pt x="1105" y="1874" on="1"/>
        <pt x="1126" y="1868" on="0"/>
        <pt x="1227" y="1823" on="0"/>
        <pt x="1374" y="1755" on="0"/>
        <pt x="1558" y="1669" on="0"/>
        <pt x="1765" y="1576" on="0"/>
        <pt x="1988" y="1479" on="0"/>
        <pt x="2099" y="1435" on="1"/>
        <pt x="1855" y="1435" on="1"/>
        <pt x="1677" y="1459" on="0"/>
        <pt x="1393" y="1487" on="0"/>
        <pt x="1181" y="1505" on="0"/>
        <pt x="1043" y="1517" on="0"/>
      </contour>
      <contour>
        <pt x="105" y="645" on="1"/>
        <pt x="105" y="792" on="0"/>
        <pt x="218" y="1010" on="0"/>
        <pt x="415" y="1166" on="0"/>
        <pt x="684" y="1266" on="0"/>
        <pt x="996" y="1325" on="0"/>
        <pt x="1339" y="1347" on="0"/>
        <pt x="1511" y="1347" on="1"/>
        <pt x="1683" y="1347" on="0"/>
        <pt x="2026" y="1325" on="0"/>
        <pt x="2339" y="1266" on="0"/>
        <pt x="2608" y="1166" on="0"/>
        <pt x="2805" y="1010" on="0"/>
        <pt x="2918" y="792" on="0"/>
        <pt x="2918" y="645" on="1"/>
        <pt x="2918" y="498" on="0"/>
        <pt x="2805" y="280" on="0"/>
        <pt x="2608" y="124" on="0"/>
        <pt x="2339" y="24" on="0"/>
        <pt x="2026" y="-35" on="0"/>
        <pt x="1683" y="-57" on="0"/>
        <pt x="1511" y="-57" on="1"/>
        <pt x="1339" y="-57" on="0"/>
        <pt x="996" y="-35" on="0"/>
        <pt x="684" y="24" on="0"/>
        <pt x="415" y="124" on="0"/>
        <pt x="218" y="280" on="0"/>
        <pt x="105" y="498" on="0"/>
      </contour>
      <contour>
        <pt x="1270" y="645" on="1"/>
        <pt x="1270" y="519" on="0"/>
        <pt x="1289" y="303" on="0"/>
        <pt x="1341" y="146" on="0"/>
        <pt x="1433" y="56" on="0"/>
        <pt x="1506" y="56" on="1"/>
        <pt x="1579" y="56" on="0"/>
        <pt x="1674" y="146" on="0"/>
        <pt x="1730" y="303" on="0"/>
        <pt x="1753" y="519" on="0"/>
        <pt x="1753" y="645" on="1"/>
        <pt x="1753" y="771" on="0"/>
        <pt x="1730" y="987" on="0"/>
        <pt x="1674" y="1145" on="0"/>
        <pt x="1579" y="1234" on="0"/>
        <pt x="1506" y="1234" on="1"/>
        <pt x="1457" y="1234" on="0"/>
        <pt x="1384" y="1188" on="0"/>
        <pt x="1332" y="1107" on="0"/>
        <pt x="1298" y="995" on="0"/>
        <pt x="1278" y="864" on="0"/>
        <pt x="1270" y="719" on="0"/>
      </contour>
    </TTGlyph>
    <TTGlyph name="Ocircumflex" xMin="105" yMin="-57" xMax="2918" yMax="1910">
      <contour>
        <pt x="661" y="1401" on="1"/>
        <pt x="754" y="1471" on="0"/>
        <pt x="904" y="1580" on="0"/>
        <pt x="1026" y="1666" on="0"/>
        <pt x="1126" y="1732" on="0"/>
        <pt x="1212" y="1787" on="0"/>
        <pt x="1289" y="1835" on="0"/>
        <pt x="1327" y="1860" on="1"/>
        <pt x="1356" y="1879" on="0"/>
        <pt x="1423" y="1910" on="0"/>
        <pt x="1476" y="1910" on="1"/>
        <pt x="1529" y="1910" on="0"/>
        <pt x="1596" y="1879" on="0"/>
        <pt x="1625" y="1860" on="1"/>
        <pt x="1663" y="1835" on="0"/>
        <pt x="1740" y="1787" on="0"/>
        <pt x="1826" y="1732" on="0"/>
        <pt x="1926" y="1666" on="0"/>
        <pt x="2048" y="1580" on="0"/>
        <pt x="2198" y="1471" on="0"/>
        <pt x="2291" y="1401" on="1"/>
        <pt x="2127" y="1401" on="1"/>
        <pt x="1476" y="1584" on="1"/>
        <pt x="825" y="1401" on="1"/>
      </contour>
      <contour>
        <pt x="105" y="645" on="1"/>
        <pt x="105" y="792" on="0"/>
        <pt x="218" y="1010" on="0"/>
        <pt x="415" y="1166" on="0"/>
        <pt x="684" y="1266" on="0"/>
        <pt x="996" y="1325" on="0"/>
        <pt x="1339" y="1347" on="0"/>
        <pt x="1511" y="1347" on="1"/>
        <pt x="1683" y="1347" on="0"/>
        <pt x="2026" y="1325" on="0"/>
        <pt x="2339" y="1266" on="0"/>
        <pt x="2608" y="1166" on="0"/>
        <pt x="2805" y="1010" on="0"/>
        <pt x="2918" y="792" on="0"/>
        <pt x="2918" y="645" on="1"/>
        <pt x="2918" y="498" on="0"/>
        <pt x="2805" y="280" on="0"/>
        <pt x="2608" y="124" on="0"/>
        <pt x="2339" y="24" on="0"/>
        <pt x="2026" y="-35" on="0"/>
        <pt x="1683" y="-57" on="0"/>
        <pt x="1511" y="-57" on="1"/>
        <pt x="1339" y="-57" on="0"/>
        <pt x="996" y="-35" on="0"/>
        <pt x="684" y="24" on="0"/>
        <pt x="415" y="124" on="0"/>
        <pt x="218" y="280" on="0"/>
        <pt x="105" y="498" on="0"/>
      </contour>
      <contour>
        <pt x="1270" y="645" on="1"/>
        <pt x="1270" y="519" on="0"/>
        <pt x="1289" y="303" on="0"/>
        <pt x="1341" y="146" on="0"/>
        <pt x="1433" y="56" on="0"/>
        <pt x="1506" y="56" on="1"/>
        <pt x="1579" y="56" on="0"/>
        <pt x="1674" y="146" on="0"/>
        <pt x="1730" y="303" on="0"/>
        <pt x="1753" y="519" on="0"/>
        <pt x="1753" y="645" on="1"/>
        <pt x="1753" y="771" on="0"/>
        <pt x="1730" y="987" on="0"/>
        <pt x="1674" y="1145" on="0"/>
        <pt x="1579" y="1234" on="0"/>
        <pt x="1506" y="1234" on="1"/>
        <pt x="1457" y="1234" on="0"/>
        <pt x="1384" y="1188" on="0"/>
        <pt x="1332" y="1107" on="0"/>
        <pt x="1298" y="995" on="0"/>
        <pt x="1278" y="864" on="0"/>
        <pt x="1270" y="719" on="0"/>
      </contour>
    </TTGlyph>
    <TTGlyph name="Odieresis" xMin="105" yMin="-57" xMax="2918" yMax="1833">
      <contour>
        <pt x="1558" y="1659" on="1"/>
        <pt x="1558" y="1691" on="0"/>
        <pt x="1590" y="1753" on="0"/>
        <pt x="1654" y="1803" on="0"/>
        <pt x="1748" y="1833" on="0"/>
        <pt x="1811" y="1833" on="1"/>
        <pt x="1874" y="1833" on="0"/>
        <pt x="1968" y="1803" on="0"/>
        <pt x="2032" y="1753" on="0"/>
        <pt x="2064" y="1691" on="0"/>
        <pt x="2064" y="1659" on="1"/>
        <pt x="2064" y="1627" on="0"/>
        <pt x="2032" y="1566" on="0"/>
        <pt x="1968" y="1517" on="0"/>
        <pt x="1874" y="1487" on="0"/>
        <pt x="1811" y="1487" on="1"/>
        <pt x="1748" y="1487" on="0"/>
        <pt x="1654" y="1517" on="0"/>
        <pt x="1590" y="1566" on="0"/>
        <pt x="1558" y="1627" on="0"/>
      </contour>
      <contour>
        <pt x="1141" y="1487" on="1"/>
        <pt x="1078" y="1487" on="0"/>
        <pt x="984" y="1517" on="0"/>
        <pt x="920" y="1566" on="0"/>
        <pt x="888" y="1627" on="0"/>
        <pt x="888" y="1659" on="1"/>
        <pt x="888" y="1691" on="0"/>
        <pt x="920" y="1753" on="0"/>
        <pt x="984" y="1803" on="0"/>
        <pt x="1078" y="1833" on="0"/>
        <pt x="1141" y="1833" on="1"/>
        <pt x="1204" y="1833" on="0"/>
        <pt x="1298" y="1803" on="0"/>
        <pt x="1362" y="1753" on="0"/>
        <pt x="1394" y="1691" on="0"/>
        <pt x="1394" y="1659" on="1"/>
        <pt x="1394" y="1627" on="0"/>
        <pt x="1362" y="1566" on="0"/>
        <pt x="1298" y="1517" on="0"/>
        <pt x="1204" y="1487" on="0"/>
      </contour>
      <contour>
        <pt x="105" y="645" on="1"/>
        <pt x="105" y="792" on="0"/>
        <pt x="218" y="1010" on="0"/>
        <pt x="415" y="1166" on="0"/>
        <pt x="684" y="1266" on="0"/>
        <pt x="996" y="1325" on="0"/>
        <pt x="1339" y="1347" on="0"/>
        <pt x="1511" y="1347" on="1"/>
        <pt x="1683" y="1347" on="0"/>
        <pt x="2026" y="1325" on="0"/>
        <pt x="2339" y="1266" on="0"/>
        <pt x="2608" y="1166" on="0"/>
        <pt x="2805" y="1010" on="0"/>
        <pt x="2918" y="792" on="0"/>
        <pt x="2918" y="645" on="1"/>
        <pt x="2918" y="498" on="0"/>
        <pt x="2805" y="280" on="0"/>
        <pt x="2608" y="124" on="0"/>
        <pt x="2339" y="24" on="0"/>
        <pt x="2026" y="-35" on="0"/>
        <pt x="1683" y="-57" on="0"/>
        <pt x="1511" y="-57" on="1"/>
        <pt x="1339" y="-57" on="0"/>
        <pt x="996" y="-35" on="0"/>
        <pt x="684" y="24" on="0"/>
        <pt x="415" y="124" on="0"/>
        <pt x="218" y="280" on="0"/>
        <pt x="105" y="498" on="0"/>
      </contour>
      <contour>
        <pt x="1270" y="645" on="1"/>
        <pt x="1270" y="519" on="0"/>
        <pt x="1289" y="303" on="0"/>
        <pt x="1341" y="146" on="0"/>
        <pt x="1433" y="56" on="0"/>
        <pt x="1506" y="56" on="1"/>
        <pt x="1579" y="56" on="0"/>
        <pt x="1674" y="146" on="0"/>
        <pt x="1730" y="303" on="0"/>
        <pt x="1753" y="519" on="0"/>
        <pt x="1753" y="645" on="1"/>
        <pt x="1753" y="771" on="0"/>
        <pt x="1730" y="987" on="0"/>
        <pt x="1674" y="1145" on="0"/>
        <pt x="1579" y="1234" on="0"/>
        <pt x="1506" y="1234" on="1"/>
        <pt x="1457" y="1234" on="0"/>
        <pt x="1384" y="1188" on="0"/>
        <pt x="1332" y="1107" on="0"/>
        <pt x="1298" y="995" on="0"/>
        <pt x="1278" y="864" on="0"/>
        <pt x="1270" y="719" on="0"/>
      </contour>
    </TTGlyph>
    <TTGlyph name="Ograve" xMin="105" yMin="-57" xMax="2918" yMax="1885">
      <contour>
        <pt x="828" y="1435" on="1"/>
        <pt x="939" y="1479" on="0"/>
        <pt x="1162" y="1576" on="0"/>
        <pt x="1369" y="1669" on="0"/>
        <pt x="1553" y="1755" on="0"/>
        <pt x="1700" y="1823" on="0"/>
        <pt x="1801" y="1868" on="0"/>
        <pt x="1822" y="1874" on="1"/>
        <pt x="1864" y="1885" on="0"/>
        <pt x="1899" y="1885" on="1"/>
        <pt x="1934" y="1885" on="0"/>
        <pt x="2002" y="1863" on="0"/>
        <pt x="2056" y="1821" on="0"/>
        <pt x="2089" y="1757" on="0"/>
        <pt x="2089" y="1715" on="1"/>
        <pt x="2089" y="1646" on="0"/>
        <pt x="1997" y="1546" on="0"/>
        <pt x="1915" y="1525" on="1"/>
        <pt x="1883" y="1517" on="0"/>
        <pt x="1745" y="1505" on="0"/>
        <pt x="1534" y="1487" on="0"/>
        <pt x="1250" y="1459" on="0"/>
        <pt x="1072" y="1435" on="1"/>
      </contour>
      <contour>
        <pt x="105" y="645" on="1"/>
        <pt x="105" y="792" on="0"/>
        <pt x="218" y="1010" on="0"/>
        <pt x="415" y="1166" on="0"/>
        <pt x="684" y="1266" on="0"/>
        <pt x="996" y="1325" on="0"/>
        <pt x="1339" y="1347" on="0"/>
        <pt x="1511" y="1347" on="1"/>
        <pt x="1683" y="1347" on="0"/>
        <pt x="2026" y="1325" on="0"/>
        <pt x="2339" y="1266" on="0"/>
        <pt x="2608" y="1166" on="0"/>
        <pt x="2805" y="1010" on="0"/>
        <pt x="2918" y="792" on="0"/>
        <pt x="2918" y="645" on="1"/>
        <pt x="2918" y="498" on="0"/>
        <pt x="2805" y="280" on="0"/>
        <pt x="2608" y="124" on="0"/>
        <pt x="2339" y="24" on="0"/>
        <pt x="2026" y="-35" on="0"/>
        <pt x="1683" y="-57" on="0"/>
        <pt x="1511" y="-57" on="1"/>
        <pt x="1339" y="-57" on="0"/>
        <pt x="996" y="-35" on="0"/>
        <pt x="684" y="24" on="0"/>
        <pt x="415" y="124" on="0"/>
        <pt x="218" y="280" on="0"/>
        <pt x="105" y="498" on="0"/>
      </contour>
      <contour>
        <pt x="1270" y="645" on="1"/>
        <pt x="1270" y="519" on="0"/>
        <pt x="1289" y="303" on="0"/>
        <pt x="1341" y="146" on="0"/>
        <pt x="1433" y="56" on="0"/>
        <pt x="1506" y="56" on="1"/>
        <pt x="1579" y="56" on="0"/>
        <pt x="1674" y="146" on="0"/>
        <pt x="1730" y="303" on="0"/>
        <pt x="1753" y="519" on="0"/>
        <pt x="1753" y="645" on="1"/>
        <pt x="1753" y="771" on="0"/>
        <pt x="1730" y="987" on="0"/>
        <pt x="1674" y="1145" on="0"/>
        <pt x="1579" y="1234" on="0"/>
        <pt x="1506" y="1234" on="1"/>
        <pt x="1457" y="1234" on="0"/>
        <pt x="1384" y="1188" on="0"/>
        <pt x="1332" y="1107" on="0"/>
        <pt x="1298" y="995" on="0"/>
        <pt x="1278" y="864" on="0"/>
        <pt x="1270" y="719" on="0"/>
      </contour>
    </TTGlyph>
    <TTGlyph name="Oslash" xMin="105" yMin="-166" xMax="2918" yMax="1447">
      <contour>
        <pt x="194" y="-6" on="1"/>
        <pt x="226" y="9" on="0"/>
        <pt x="353" y="77" on="0"/>
        <pt x="438" y="124" on="1"/>
        <pt x="362" y="164" on="0"/>
        <pt x="239" y="266" on="0"/>
        <pt x="152" y="395" on="0"/>
        <pt x="105" y="551" on="0"/>
        <pt x="105" y="645" on="1"/>
        <pt x="105" y="792" on="0"/>
        <pt x="218" y="1010" on="0"/>
        <pt x="415" y="1166" on="0"/>
        <pt x="684" y="1266" on="0"/>
        <pt x="996" y="1325" on="0"/>
        <pt x="1339" y="1347" on="0"/>
        <pt x="1511" y="1347" on="1"/>
        <pt x="1626" y="1347" on="0"/>
        <pt x="1858" y="1337" on="0"/>
        <pt x="2081" y="1314" on="0"/>
        <pt x="2291" y="1275" on="0"/>
        <pt x="2386" y="1246" on="1"/>
        <pt x="2445" y="1281" on="0"/>
        <pt x="2549" y="1344" on="0"/>
        <pt x="2634" y="1396" on="0"/>
        <pt x="2696" y="1435" on="0"/>
        <pt x="2713" y="1447" on="1"/>
        <pt x="2745" y="1411" on="0"/>
        <pt x="2789" y="1335" on="0"/>
        <pt x="2805" y="1288" on="1"/>
        <pt x="2778" y="1276" on="0"/>
        <pt x="2659" y="1213" on="0"/>
        <pt x="2578" y="1169" on="1"/>
        <pt x="2656" y="1129" on="0"/>
        <pt x="2781" y="1026" on="0"/>
        <pt x="2870" y="897" on="0"/>
        <pt x="2918" y="739" on="0"/>
        <pt x="2918" y="645" on="1"/>
        <pt x="2918" y="498" on="0"/>
        <pt x="2805" y="280" on="0"/>
        <pt x="2608" y="124" on="0"/>
        <pt x="2339" y="24" on="0"/>
        <pt x="2026" y="-35" on="0"/>
        <pt x="1683" y="-57" on="0"/>
        <pt x="1511" y="-57" on="1"/>
        <pt x="1394" y="-57" on="0"/>
        <pt x="1161" y="-47" on="0"/>
        <pt x="937" y="-23" on="0"/>
        <pt x="725" y="16" on="0"/>
        <pt x="630" y="46" on="1"/>
        <pt x="570" y="10" on="0"/>
        <pt x="463" y="-55" on="0"/>
        <pt x="374" y="-110" on="0"/>
        <pt x="306" y="-153" on="0"/>
        <pt x="286" y="-166" on="1"/>
        <pt x="272" y="-153" on="0"/>
        <pt x="244" y="-116" on="0"/>
        <pt x="220" y="-74" on="0"/>
        <pt x="201" y="-28" on="0"/>
      </contour>
      <contour>
        <pt x="1449" y="695" on="1"/>
        <pt x="1486" y="716" on="0"/>
        <pt x="1641" y="805" on="0"/>
        <pt x="1743" y="865" on="1"/>
        <pt x="1734" y="948" on="0"/>
        <pt x="1700" y="1084" on="0"/>
        <pt x="1643" y="1181" on="0"/>
        <pt x="1561" y="1234" on="0"/>
        <pt x="1506" y="1234" on="1"/>
        <pt x="1457" y="1234" on="0"/>
        <pt x="1384" y="1188" on="0"/>
        <pt x="1332" y="1107" on="0"/>
        <pt x="1298" y="995" on="0"/>
        <pt x="1278" y="864" on="0"/>
        <pt x="1270" y="719" on="0"/>
        <pt x="1270" y="645" on="1"/>
        <pt x="1270" y="592" on="1"/>
      </contour>
      <contour>
        <pt x="1278" y="428" on="1"/>
        <pt x="1285" y="345" on="0"/>
        <pt x="1316" y="208" on="0"/>
        <pt x="1370" y="110" on="0"/>
        <pt x="1450" y="56" on="0"/>
        <pt x="1506" y="56" on="1"/>
        <pt x="1579" y="56" on="0"/>
        <pt x="1674" y="146" on="0"/>
        <pt x="1730" y="303" on="0"/>
        <pt x="1753" y="519" on="0"/>
        <pt x="1753" y="645" on="1"/>
        <pt x="1753" y="660" on="0"/>
        <pt x="1753" y="689" on="0"/>
        <pt x="1752" y="703" on="1"/>
        <pt x="1521" y="570" on="1"/>
        <pt x="1483" y="548" on="0"/>
        <pt x="1357" y="475" on="0"/>
      </contour>
    </TTGlyph>
    <TTGlyph name="Otilde" xMin="105" yMin="-57" xMax="2918" yMax="1829">
      <contour>
        <pt x="773" y="1525" on="1"/>
        <pt x="822" y="1622" on="0"/>
        <pt x="930" y="1742" on="0"/>
        <pt x="1043" y="1807" on="0"/>
        <pt x="1157" y="1829" on="0"/>
        <pt x="1212" y="1829" on="1"/>
        <pt x="1291" y="1829" on="0"/>
        <pt x="1453" y="1791" on="0"/>
        <pt x="1618" y="1746" on="0"/>
        <pt x="1785" y="1709" on="0"/>
        <pt x="1869" y="1709" on="1"/>
        <pt x="1933" y="1709" on="0"/>
        <pt x="2080" y="1731" on="0"/>
        <pt x="2144" y="1758" on="1"/>
        <pt x="2179" y="1714" on="1"/>
        <pt x="2129" y="1616" on="0"/>
        <pt x="2021" y="1497" on="0"/>
        <pt x="1908" y="1431" on="0"/>
        <pt x="1794" y="1409" on="0"/>
        <pt x="1739" y="1409" on="1"/>
        <pt x="1660" y="1409" on="0"/>
        <pt x="1499" y="1447" on="0"/>
        <pt x="1334" y="1492" on="0"/>
        <pt x="1167" y="1530" on="0"/>
        <pt x="1083" y="1530" on="1"/>
        <pt x="1019" y="1530" on="0"/>
        <pt x="872" y="1508" on="0"/>
        <pt x="808" y="1481" on="1"/>
      </contour>
      <contour>
        <pt x="105" y="645" on="1"/>
        <pt x="105" y="792" on="0"/>
        <pt x="218" y="1010" on="0"/>
        <pt x="415" y="1166" on="0"/>
        <pt x="684" y="1266" on="0"/>
        <pt x="996" y="1325" on="0"/>
        <pt x="1339" y="1347" on="0"/>
        <pt x="1511" y="1347" on="1"/>
        <pt x="1683" y="1347" on="0"/>
        <pt x="2026" y="1325" on="0"/>
        <pt x="2339" y="1266" on="0"/>
        <pt x="2608" y="1166" on="0"/>
        <pt x="2805" y="1010" on="0"/>
        <pt x="2918" y="792" on="0"/>
        <pt x="2918" y="645" on="1"/>
        <pt x="2918" y="498" on="0"/>
        <pt x="2805" y="280" on="0"/>
        <pt x="2608" y="124" on="0"/>
        <pt x="2339" y="24" on="0"/>
        <pt x="2026" y="-35" on="0"/>
        <pt x="1683" y="-57" on="0"/>
        <pt x="1511" y="-57" on="1"/>
        <pt x="1339" y="-57" on="0"/>
        <pt x="996" y="-35" on="0"/>
        <pt x="684" y="24" on="0"/>
        <pt x="415" y="124" on="0"/>
        <pt x="218" y="280" on="0"/>
        <pt x="105" y="498" on="0"/>
      </contour>
      <contour>
        <pt x="1270" y="645" on="1"/>
        <pt x="1270" y="519" on="0"/>
        <pt x="1289" y="303" on="0"/>
        <pt x="1341" y="146" on="0"/>
        <pt x="1433" y="56" on="0"/>
        <pt x="1506" y="56" on="1"/>
        <pt x="1579" y="56" on="0"/>
        <pt x="1674" y="146" on="0"/>
        <pt x="1730" y="303" on="0"/>
        <pt x="1753" y="519" on="0"/>
        <pt x="1753" y="645" on="1"/>
        <pt x="1753" y="771" on="0"/>
        <pt x="1730" y="987" on="0"/>
        <pt x="1674" y="1145" on="0"/>
        <pt x="1579" y="1234" on="0"/>
        <pt x="1506" y="1234" on="1"/>
        <pt x="1457" y="1234" on="0"/>
        <pt x="1384" y="1188" on="0"/>
        <pt x="1332" y="1107" on="0"/>
        <pt x="1298" y="995" on="0"/>
        <pt x="1278" y="864" on="0"/>
        <pt x="1270" y="719" on="0"/>
      </contour>
    </TTGlyph>
    <TTGlyph name="P" xMin="100" yMin="0" xMax="3135" yMax="1291">
      <contour>
        <pt x="100" y="94" on="1"/>
        <pt x="250" y="99" on="0"/>
        <pt x="448" y="159" on="0"/>
        <pt x="566" y="291" on="0"/>
        <pt x="615" y="506" on="0"/>
        <pt x="615" y="668" on="1"/>
        <pt x="615" y="777" on="0"/>
        <pt x="590" y="941" on="0"/>
        <pt x="537" y="1058" on="0"/>
        <pt x="454" y="1135" on="0"/>
        <pt x="340" y="1179" on="0"/>
        <pt x="192" y="1197" on="0"/>
        <pt x="100" y="1197" on="1"/>
        <pt x="100" y="1291" on="1"/>
        <pt x="1720" y="1291" on="1"/>
        <pt x="2095" y="1291" on="0"/>
        <pt x="2631" y="1256" on="0"/>
        <pt x="2974" y="1158" on="0"/>
        <pt x="3135" y="983" on="0"/>
        <pt x="3135" y="843" on="1"/>
        <pt x="3135" y="755" on="0"/>
        <pt x="3077" y="624" on="0"/>
        <pt x="2972" y="531" on="0"/>
        <pt x="2825" y="471" on="0"/>
        <pt x="2648" y="436" on="0"/>
        <pt x="2447" y="423" on="0"/>
        <pt x="2339" y="423" on="1"/>
        <pt x="2248" y="423" on="0"/>
        <pt x="2077" y="430" on="0"/>
        <pt x="1913" y="439" on="0"/>
        <pt x="1751" y="447" on="0"/>
        <pt x="1669" y="449" on="1"/>
        <pt x="1685" y="352" on="0"/>
        <pt x="1761" y="221" on="0"/>
        <pt x="1900" y="139" on="0"/>
        <pt x="2109" y="99" on="0"/>
        <pt x="2259" y="94" on="1"/>
        <pt x="2259" y="0" on="1"/>
        <pt x="100" y="0" on="1"/>
      </contour>
      <contour>
        <pt x="1657" y="573" on="1"/>
        <pt x="1746" y="579" on="0"/>
        <pt x="1895" y="616" on="0"/>
        <pt x="2002" y="687" on="0"/>
        <pt x="2061" y="795" on="0"/>
        <pt x="2061" y="873" on="1"/>
        <pt x="2061" y="959" on="0"/>
        <pt x="2005" y="1070" on="0"/>
        <pt x="1900" y="1137" on="0"/>
        <pt x="1749" y="1166" on="0"/>
        <pt x="1655" y="1170" on="1"/>
        <pt x="1655" y="668" on="1"/>
        <pt x="1655" y="642" on="0"/>
        <pt x="1655" y="596" on="0"/>
      </contour>
    </TTGlyph>
    <TTGlyph name="Q" xMin="105" yMin="-491" xMax="2918" yMax="1347">
      <contour>
        <pt x="105" y="645" on="1"/>
        <pt x="105" y="792" on="0"/>
        <pt x="218" y="1010" on="0"/>
        <pt x="415" y="1166" on="0"/>
        <pt x="684" y="1266" on="0"/>
        <pt x="996" y="1325" on="0"/>
        <pt x="1339" y="1347" on="0"/>
        <pt x="1511" y="1347" on="1"/>
        <pt x="1683" y="1347" on="0"/>
        <pt x="2026" y="1325" on="0"/>
        <pt x="2339" y="1266" on="0"/>
        <pt x="2608" y="1166" on="0"/>
        <pt x="2805" y="1010" on="0"/>
        <pt x="2918" y="792" on="0"/>
        <pt x="2918" y="645" on="1"/>
        <pt x="2918" y="507" on="0"/>
        <pt x="2819" y="298" on="0"/>
        <pt x="2642" y="145" on="0"/>
        <pt x="2401" y="42" on="0"/>
        <pt x="2116" y="-22" on="0"/>
        <pt x="1801" y="-51" on="0"/>
        <pt x="1639" y="-55" on="1"/>
        <pt x="1637" y="-64" on="0"/>
        <pt x="1637" y="-82" on="0"/>
        <pt x="1637" y="-90" on="1"/>
        <pt x="1637" y="-137" on="0"/>
        <pt x="1675" y="-210" on="0"/>
        <pt x="1743" y="-267" on="0"/>
        <pt x="1835" y="-307" on="0"/>
        <pt x="1943" y="-332" on="0"/>
        <pt x="2063" y="-344" on="0"/>
        <pt x="2124" y="-344" on="1"/>
        <pt x="2149" y="-344" on="0"/>
        <pt x="2199" y="-340" on="0"/>
        <pt x="2224" y="-337" on="1"/>
        <pt x="2224" y="-419" on="1"/>
        <pt x="2157" y="-434" on="0"/>
        <pt x="2039" y="-461" on="0"/>
        <pt x="1911" y="-480" on="0"/>
        <pt x="1759" y="-491" on="0"/>
        <pt x="1657" y="-491" on="1"/>
        <pt x="1564" y="-491" on="0"/>
        <pt x="1385" y="-471" on="0"/>
        <pt x="1246" y="-422" on="0"/>
        <pt x="1160" y="-339" on="0"/>
        <pt x="1160" y="-276" on="1"/>
        <pt x="1160" y="-245" on="0"/>
        <pt x="1182" y="-183" on="0"/>
        <pt x="1221" y="-126" on="0"/>
        <pt x="1275" y="-74" on="0"/>
        <pt x="1307" y="-53" on="1"/>
        <pt x="1152" y="-47" on="0"/>
        <pt x="854" y="-13" on="0"/>
        <pt x="587" y="54" on="0"/>
        <pt x="361" y="158" on="0"/>
        <pt x="197" y="309" on="0"/>
        <pt x="105" y="513" on="0"/>
      </contour>
      <contour>
        <pt x="1270" y="645" on="1"/>
        <pt x="1270" y="519" on="0"/>
        <pt x="1289" y="303" on="0"/>
        <pt x="1341" y="146" on="0"/>
        <pt x="1433" y="56" on="0"/>
        <pt x="1506" y="56" on="1"/>
        <pt x="1579" y="56" on="0"/>
        <pt x="1674" y="146" on="0"/>
        <pt x="1730" y="303" on="0"/>
        <pt x="1753" y="519" on="0"/>
        <pt x="1753" y="645" on="1"/>
        <pt x="1753" y="771" on="0"/>
        <pt x="1730" y="987" on="0"/>
        <pt x="1674" y="1145" on="0"/>
        <pt x="1579" y="1234" on="0"/>
        <pt x="1506" y="1234" on="1"/>
        <pt x="1457" y="1234" on="0"/>
        <pt x="1384" y="1188" on="0"/>
        <pt x="1332" y="1107" on="0"/>
        <pt x="1298" y="995" on="0"/>
        <pt x="1278" y="864" on="0"/>
        <pt x="1270" y="719" on="0"/>
      </contour>
    </TTGlyph>
    <TTGlyph name="R" xMin="100" yMin="-57" xMax="3344" yMax="1291">
      <contour>
        <pt x="100" y="94" on="1"/>
        <pt x="250" y="99" on="0"/>
        <pt x="448" y="159" on="0"/>
        <pt x="566" y="291" on="0"/>
        <pt x="615" y="506" on="0"/>
        <pt x="615" y="668" on="1"/>
        <pt x="615" y="777" on="0"/>
        <pt x="590" y="941" on="0"/>
        <pt x="537" y="1058" on="0"/>
        <pt x="454" y="1135" on="0"/>
        <pt x="340" y="1179" on="0"/>
        <pt x="192" y="1197" on="0"/>
        <pt x="100" y="1197" on="1"/>
        <pt x="100" y="1291" on="1"/>
        <pt x="1720" y="1291" on="1"/>
        <pt x="1980" y="1291" on="0"/>
        <pt x="2390" y="1283" on="0"/>
        <pt x="2700" y="1260" on="0"/>
        <pt x="2918" y="1218" on="0"/>
        <pt x="3055" y="1148" on="0"/>
        <pt x="3117" y="1046" on="0"/>
        <pt x="3117" y="976" on="1"/>
        <pt x="3117" y="906" on="0"/>
        <pt x="3039" y="799" on="0"/>
        <pt x="2897" y="721" on="0"/>
        <pt x="2698" y="668" on="0"/>
        <pt x="2456" y="636" on="0"/>
        <pt x="2179" y="622" on="0"/>
        <pt x="2029" y="621" on="1"/>
        <pt x="2454" y="621" on="1"/>
        <pt x="2588" y="621" on="0"/>
        <pt x="2784" y="602" on="0"/>
        <pt x="2924" y="561" on="0"/>
        <pt x="3018" y="498" on="0"/>
        <pt x="3080" y="411" on="0"/>
        <pt x="3120" y="299" on="0"/>
        <pt x="3137" y="230" on="1"/>
        <pt x="3147" y="190" on="0"/>
        <pt x="3174" y="138" on="0"/>
        <pt x="3220" y="107" on="0"/>
        <pt x="3290" y="95" on="0"/>
        <pt x="3344" y="95" on="1"/>
        <pt x="3344" y="-6" on="1"/>
        <pt x="3231" y="-19" on="0"/>
        <pt x="3040" y="-38" on="0"/>
        <pt x="2875" y="-51" on="0"/>
        <pt x="2733" y="-57" on="0"/>
        <pt x="2669" y="-57" on="1"/>
        <pt x="2524" y="-57" on="0"/>
        <pt x="2319" y="-46" on="0"/>
        <pt x="2178" y="-17" on="0"/>
        <pt x="2093" y="30" on="0"/>
        <pt x="2044" y="103" on="0"/>
        <pt x="2021" y="204" on="0"/>
        <pt x="2014" y="271" on="1"/>
        <pt x="2005" y="352" on="0"/>
        <pt x="1969" y="463" on="0"/>
        <pt x="1892" y="535" on="0"/>
        <pt x="1761" y="572" on="0"/>
        <pt x="1656" y="578" on="1"/>
        <pt x="1659" y="443" on="0"/>
        <pt x="1686" y="258" on="0"/>
        <pt x="1743" y="144" on="0"/>
        <pt x="1833" y="94" on="0"/>
        <pt x="1899" y="94" on="1"/>
        <pt x="1899" y="0" on="1"/>
        <pt x="100" y="0" on="1"/>
      </contour>
      <contour>
        <pt x="1655" y="688" on="1"/>
        <pt x="1752" y="692" on="0"/>
        <pt x="1918" y="719" on="0"/>
        <pt x="2038" y="774" on="0"/>
        <pt x="2106" y="864" on="0"/>
        <pt x="2106" y="932" on="1"/>
        <pt x="2106" y="1003" on="0"/>
        <pt x="2041" y="1093" on="0"/>
        <pt x="1922" y="1146" on="0"/>
        <pt x="1756" y="1168" on="0"/>
        <pt x="1655" y="1171" on="1"/>
      </contour>
    </TTGlyph>
    <TTGlyph name="Racute" xMin="100" yMin="-57" xMax="3344" yMax="1885">
      <contour>
        <pt x="1258" y="1525" on="1"/>
        <pt x="1176" y="1546" on="0"/>
        <pt x="1084" y="1646" on="0"/>
        <pt x="1084" y="1715" on="1"/>
        <pt x="1084" y="1757" on="0"/>
        <pt x="1117" y="1821" on="0"/>
        <pt x="1171" y="1863" on="0"/>
        <pt x="1239" y="1885" on="0"/>
        <pt x="1274" y="1885" on="1"/>
        <pt x="1309" y="1885" on="0"/>
        <pt x="1351" y="1874" on="1"/>
        <pt x="1372" y="1868" on="0"/>
        <pt x="1473" y="1823" on="0"/>
        <pt x="1620" y="1755" on="0"/>
        <pt x="1804" y="1669" on="0"/>
        <pt x="2011" y="1576" on="0"/>
        <pt x="2234" y="1479" on="0"/>
        <pt x="2345" y="1435" on="1"/>
        <pt x="2101" y="1435" on="1"/>
        <pt x="1923" y="1459" on="0"/>
        <pt x="1639" y="1487" on="0"/>
        <pt x="1427" y="1505" on="0"/>
        <pt x="1289" y="1517" on="0"/>
      </contour>
      <contour>
        <pt x="100" y="94" on="1"/>
        <pt x="250" y="99" on="0"/>
        <pt x="448" y="159" on="0"/>
        <pt x="566" y="291" on="0"/>
        <pt x="615" y="506" on="0"/>
        <pt x="615" y="668" on="1"/>
        <pt x="615" y="777" on="0"/>
        <pt x="590" y="941" on="0"/>
        <pt x="537" y="1058" on="0"/>
        <pt x="454" y="1135" on="0"/>
        <pt x="340" y="1179" on="0"/>
        <pt x="192" y="1197" on="0"/>
        <pt x="100" y="1197" on="1"/>
        <pt x="100" y="1291" on="1"/>
        <pt x="1720" y="1291" on="1"/>
        <pt x="1980" y="1291" on="0"/>
        <pt x="2390" y="1283" on="0"/>
        <pt x="2700" y="1260" on="0"/>
        <pt x="2918" y="1218" on="0"/>
        <pt x="3055" y="1148" on="0"/>
        <pt x="3117" y="1046" on="0"/>
        <pt x="3117" y="976" on="1"/>
        <pt x="3117" y="906" on="0"/>
        <pt x="3039" y="799" on="0"/>
        <pt x="2897" y="721" on="0"/>
        <pt x="2698" y="668" on="0"/>
        <pt x="2456" y="636" on="0"/>
        <pt x="2179" y="622" on="0"/>
        <pt x="2029" y="621" on="1"/>
        <pt x="2454" y="621" on="1"/>
        <pt x="2588" y="621" on="0"/>
        <pt x="2784" y="602" on="0"/>
        <pt x="2924" y="561" on="0"/>
        <pt x="3018" y="498" on="0"/>
        <pt x="3080" y="411" on="0"/>
        <pt x="3120" y="299" on="0"/>
        <pt x="3137" y="230" on="1"/>
        <pt x="3147" y="190" on="0"/>
        <pt x="3174" y="138" on="0"/>
        <pt x="3220" y="107" on="0"/>
        <pt x="3290" y="95" on="0"/>
        <pt x="3344" y="95" on="1"/>
        <pt x="3344" y="-6" on="1"/>
        <pt x="3231" y="-19" on="0"/>
        <pt x="3040" y="-38" on="0"/>
        <pt x="2875" y="-51" on="0"/>
        <pt x="2733" y="-57" on="0"/>
        <pt x="2669" y="-57" on="1"/>
        <pt x="2524" y="-57" on="0"/>
        <pt x="2319" y="-46" on="0"/>
        <pt x="2178" y="-17" on="0"/>
        <pt x="2093" y="30" on="0"/>
        <pt x="2044" y="103" on="0"/>
        <pt x="2021" y="204" on="0"/>
        <pt x="2014" y="271" on="1"/>
        <pt x="2005" y="352" on="0"/>
        <pt x="1969" y="463" on="0"/>
        <pt x="1892" y="535" on="0"/>
        <pt x="1761" y="572" on="0"/>
        <pt x="1656" y="578" on="1"/>
        <pt x="1659" y="443" on="0"/>
        <pt x="1686" y="258" on="0"/>
        <pt x="1743" y="144" on="0"/>
        <pt x="1833" y="94" on="0"/>
        <pt x="1899" y="94" on="1"/>
        <pt x="1899" y="0" on="1"/>
        <pt x="100" y="0" on="1"/>
      </contour>
      <contour>
        <pt x="1655" y="688" on="1"/>
        <pt x="1752" y="692" on="0"/>
        <pt x="1918" y="719" on="0"/>
        <pt x="2038" y="774" on="0"/>
        <pt x="2106" y="864" on="0"/>
        <pt x="2106" y="932" on="1"/>
        <pt x="2106" y="1003" on="0"/>
        <pt x="2041" y="1093" on="0"/>
        <pt x="1922" y="1146" on="0"/>
        <pt x="1756" y="1168" on="0"/>
        <pt x="1655" y="1171" on="1"/>
      </contour>
    </TTGlyph>
    <TTGlyph name="Rcaron" xMin="100" yMin="-57" xMax="3344" yMax="1877">
      <contour>
        <pt x="1012" y="1796" on="1"/>
        <pt x="979" y="1815" on="0"/>
        <pt x="979" y="1839" on="1"/>
        <pt x="979" y="1853" on="0"/>
        <pt x="999" y="1877" on="0"/>
        <pt x="1020" y="1877" on="1"/>
        <pt x="1030" y="1877" on="0"/>
        <pt x="1049" y="1874" on="0"/>
        <pt x="1095" y="1864" on="0"/>
        <pt x="1181" y="1842" on="0"/>
        <pt x="1332" y="1805" on="0"/>
        <pt x="1563" y="1748" on="0"/>
        <pt x="1731" y="1707" on="1"/>
        <pt x="1899" y="1748" on="0"/>
        <pt x="2130" y="1805" on="0"/>
        <pt x="2281" y="1842" on="0"/>
        <pt x="2367" y="1864" on="0"/>
        <pt x="2413" y="1874" on="0"/>
        <pt x="2432" y="1877" on="0"/>
        <pt x="2442" y="1877" on="1"/>
        <pt x="2462" y="1877" on="0"/>
        <pt x="2482" y="1853" on="0"/>
        <pt x="2482" y="1840" on="1"/>
        <pt x="2482" y="1829" on="0"/>
        <pt x="2467" y="1806" on="0"/>
        <pt x="2450" y="1796" on="1"/>
        <pt x="2401" y="1767" on="0"/>
        <pt x="2278" y="1689" on="0"/>
        <pt x="2149" y="1605" on="0"/>
        <pt x="2025" y="1522" on="0"/>
        <pt x="1924" y="1454" on="0"/>
        <pt x="1857" y="1407" on="0"/>
        <pt x="1850" y="1402" on="1"/>
        <pt x="1612" y="1402" on="1"/>
        <pt x="1605" y="1407" on="0"/>
        <pt x="1538" y="1454" on="0"/>
        <pt x="1437" y="1522" on="0"/>
        <pt x="1313" y="1605" on="0"/>
        <pt x="1184" y="1689" on="0"/>
        <pt x="1061" y="1767" on="0"/>
      </contour>
      <contour>
        <pt x="100" y="94" on="1"/>
        <pt x="250" y="99" on="0"/>
        <pt x="448" y="159" on="0"/>
        <pt x="566" y="291" on="0"/>
        <pt x="615" y="506" on="0"/>
        <pt x="615" y="668" on="1"/>
        <pt x="615" y="777" on="0"/>
        <pt x="590" y="941" on="0"/>
        <pt x="537" y="1058" on="0"/>
        <pt x="454" y="1135" on="0"/>
        <pt x="340" y="1179" on="0"/>
        <pt x="192" y="1197" on="0"/>
        <pt x="100" y="1197" on="1"/>
        <pt x="100" y="1291" on="1"/>
        <pt x="1720" y="1291" on="1"/>
        <pt x="1980" y="1291" on="0"/>
        <pt x="2390" y="1283" on="0"/>
        <pt x="2700" y="1260" on="0"/>
        <pt x="2918" y="1218" on="0"/>
        <pt x="3055" y="1148" on="0"/>
        <pt x="3117" y="1046" on="0"/>
        <pt x="3117" y="976" on="1"/>
        <pt x="3117" y="906" on="0"/>
        <pt x="3039" y="799" on="0"/>
        <pt x="2897" y="721" on="0"/>
        <pt x="2698" y="668" on="0"/>
        <pt x="2456" y="636" on="0"/>
        <pt x="2179" y="622" on="0"/>
        <pt x="2029" y="621" on="1"/>
        <pt x="2454" y="621" on="1"/>
        <pt x="2588" y="621" on="0"/>
        <pt x="2784" y="602" on="0"/>
        <pt x="2924" y="561" on="0"/>
        <pt x="3018" y="498" on="0"/>
        <pt x="3080" y="411" on="0"/>
        <pt x="3120" y="299" on="0"/>
        <pt x="3137" y="230" on="1"/>
        <pt x="3147" y="190" on="0"/>
        <pt x="3174" y="138" on="0"/>
        <pt x="3220" y="107" on="0"/>
        <pt x="3290" y="95" on="0"/>
        <pt x="3344" y="95" on="1"/>
        <pt x="3344" y="-6" on="1"/>
        <pt x="3231" y="-19" on="0"/>
        <pt x="3040" y="-38" on="0"/>
        <pt x="2875" y="-51" on="0"/>
        <pt x="2733" y="-57" on="0"/>
        <pt x="2669" y="-57" on="1"/>
        <pt x="2524" y="-57" on="0"/>
        <pt x="2319" y="-46" on="0"/>
        <pt x="2178" y="-17" on="0"/>
        <pt x="2093" y="30" on="0"/>
        <pt x="2044" y="103" on="0"/>
        <pt x="2021" y="204" on="0"/>
        <pt x="2014" y="271" on="1"/>
        <pt x="2005" y="352" on="0"/>
        <pt x="1969" y="463" on="0"/>
        <pt x="1892" y="535" on="0"/>
        <pt x="1761" y="572" on="0"/>
        <pt x="1656" y="578" on="1"/>
        <pt x="1659" y="443" on="0"/>
        <pt x="1686" y="258" on="0"/>
        <pt x="1743" y="144" on="0"/>
        <pt x="1833" y="94" on="0"/>
        <pt x="1899" y="94" on="1"/>
        <pt x="1899" y="0" on="1"/>
        <pt x="100" y="0" on="1"/>
      </contour>
      <contour>
        <pt x="1655" y="688" on="1"/>
        <pt x="1752" y="692" on="0"/>
        <pt x="1918" y="719" on="0"/>
        <pt x="2038" y="774" on="0"/>
        <pt x="2106" y="864" on="0"/>
        <pt x="2106" y="932" on="1"/>
        <pt x="2106" y="1003" on="0"/>
        <pt x="2041" y="1093" on="0"/>
        <pt x="1922" y="1146" on="0"/>
        <pt x="1756" y="1168" on="0"/>
        <pt x="1655" y="1171" on="1"/>
      </contour>
    </TTGlyph>
    <TTGlyph name="Rcommaaccent" xMin="100" yMin="-589" xMax="3344" yMax="1291">
      <contour>
        <pt x="100" y="94" on="1"/>
        <pt x="250" y="99" on="0"/>
        <pt x="448" y="159" on="0"/>
        <pt x="566" y="291" on="0"/>
        <pt x="615" y="506" on="0"/>
        <pt x="615" y="668" on="1"/>
        <pt x="615" y="777" on="0"/>
        <pt x="590" y="941" on="0"/>
        <pt x="537" y="1058" on="0"/>
        <pt x="454" y="1135" on="0"/>
        <pt x="340" y="1179" on="0"/>
        <pt x="192" y="1197" on="0"/>
        <pt x="100" y="1197" on="1"/>
        <pt x="100" y="1291" on="1"/>
        <pt x="1720" y="1291" on="1"/>
        <pt x="1980" y="1291" on="0"/>
        <pt x="2390" y="1283" on="0"/>
        <pt x="2700" y="1260" on="0"/>
        <pt x="2918" y="1218" on="0"/>
        <pt x="3055" y="1148" on="0"/>
        <pt x="3117" y="1046" on="0"/>
        <pt x="3117" y="976" on="1"/>
        <pt x="3117" y="906" on="0"/>
        <pt x="3039" y="799" on="0"/>
        <pt x="2897" y="721" on="0"/>
        <pt x="2698" y="668" on="0"/>
        <pt x="2456" y="636" on="0"/>
        <pt x="2179" y="622" on="0"/>
        <pt x="2029" y="621" on="1"/>
        <pt x="2454" y="621" on="1"/>
        <pt x="2588" y="621" on="0"/>
        <pt x="2784" y="602" on="0"/>
        <pt x="2924" y="561" on="0"/>
        <pt x="3018" y="498" on="0"/>
        <pt x="3080" y="411" on="0"/>
        <pt x="3120" y="299" on="0"/>
        <pt x="3137" y="230" on="1"/>
        <pt x="3147" y="190" on="0"/>
        <pt x="3174" y="138" on="0"/>
        <pt x="3220" y="107" on="0"/>
        <pt x="3290" y="95" on="0"/>
        <pt x="3344" y="95" on="1"/>
        <pt x="3344" y="-6" on="1"/>
        <pt x="3231" y="-19" on="0"/>
        <pt x="3040" y="-38" on="0"/>
        <pt x="2875" y="-51" on="0"/>
        <pt x="2733" y="-57" on="0"/>
        <pt x="2669" y="-57" on="1"/>
        <pt x="2524" y="-57" on="0"/>
        <pt x="2319" y="-46" on="0"/>
        <pt x="2178" y="-17" on="0"/>
        <pt x="2093" y="30" on="0"/>
        <pt x="2044" y="103" on="0"/>
        <pt x="2021" y="204" on="0"/>
        <pt x="2014" y="271" on="1"/>
        <pt x="2005" y="352" on="0"/>
        <pt x="1969" y="463" on="0"/>
        <pt x="1892" y="535" on="0"/>
        <pt x="1761" y="572" on="0"/>
        <pt x="1656" y="578" on="1"/>
        <pt x="1659" y="443" on="0"/>
        <pt x="1686" y="258" on="0"/>
        <pt x="1743" y="144" on="0"/>
        <pt x="1833" y="94" on="0"/>
        <pt x="1899" y="94" on="1"/>
        <pt x="1899" y="0" on="1"/>
        <pt x="100" y="0" on="1"/>
      </contour>
      <contour>
        <pt x="1655" y="688" on="1"/>
        <pt x="1752" y="692" on="0"/>
        <pt x="1918" y="719" on="0"/>
        <pt x="2038" y="774" on="0"/>
        <pt x="2106" y="864" on="0"/>
        <pt x="2106" y="932" on="1"/>
        <pt x="2106" y="1003" on="0"/>
        <pt x="2041" y="1093" on="0"/>
        <pt x="1922" y="1146" on="0"/>
        <pt x="1756" y="1168" on="0"/>
        <pt x="1655" y="1171" on="1"/>
      </contour>
      <contour>
        <pt x="1226" y="-259" on="1"/>
        <pt x="1226" y="-216" on="0"/>
        <pt x="1311" y="-155" on="0"/>
        <pt x="1444" y="-117" on="0"/>
        <pt x="1606" y="-99" on="0"/>
        <pt x="1683" y="-99" on="1"/>
        <pt x="1787" y="-99" on="0"/>
        <pt x="1972" y="-125" on="0"/>
        <pt x="2111" y="-179" on="0"/>
        <pt x="2192" y="-262" on="0"/>
        <pt x="2192" y="-319" on="1"/>
        <pt x="2192" y="-382" on="0"/>
        <pt x="2127" y="-470" on="0"/>
        <pt x="2018" y="-529" on="0"/>
        <pt x="1879" y="-564" on="0"/>
        <pt x="1730" y="-582" on="0"/>
        <pt x="1584" y="-588" on="0"/>
        <pt x="1524" y="-589" on="1"/>
        <pt x="1517" y="-502" on="1"/>
        <pt x="1614" y="-502" on="0"/>
        <pt x="1787" y="-486" on="0"/>
        <pt x="1919" y="-450" on="0"/>
        <pt x="1999" y="-391" on="0"/>
        <pt x="2004" y="-347" on="1"/>
        <pt x="1929" y="-381" on="0"/>
        <pt x="1737" y="-407" on="0"/>
        <pt x="1621" y="-407" on="1"/>
        <pt x="1585" y="-407" on="0"/>
        <pt x="1498" y="-402" on="0"/>
        <pt x="1411" y="-389" on="0"/>
        <pt x="1328" y="-368" on="0"/>
        <pt x="1265" y="-335" on="0"/>
        <pt x="1226" y="-289" on="0"/>
      </contour>
    </TTGlyph>
    <TTGlyph name="S" xMin="205" yMin="-57" xMax="2737" yMax="1347">
      <contour>
        <pt x="302" y="-57" on="1"/>
        <pt x="291" y="-36" on="0"/>
        <pt x="271" y="39" on="0"/>
        <pt x="254" y="131" on="0"/>
        <pt x="239" y="230" on="0"/>
        <pt x="229" y="323" on="0"/>
        <pt x="224" y="400" on="0"/>
        <pt x="224" y="423" on="1"/>
        <pt x="326" y="423" on="1"/>
        <pt x="359" y="356" on="0"/>
        <pt x="467" y="252" on="0"/>
        <pt x="605" y="174" on="0"/>
        <pt x="767" y="120" on="0"/>
        <pt x="942" y="87" on="0"/>
        <pt x="1123" y="72" on="0"/>
        <pt x="1211" y="72" on="1"/>
        <pt x="1355" y="72" on="0"/>
        <pt x="1547" y="97" on="0"/>
        <pt x="1663" y="140" on="0"/>
        <pt x="1711" y="198" on="0"/>
        <pt x="1711" y="232" on="1"/>
        <pt x="1711" y="281" on="0"/>
        <pt x="1627" y="342" on="0"/>
        <pt x="1482" y="378" on="0"/>
        <pt x="1289" y="398" on="0"/>
        <pt x="1072" y="414" on="0"/>
        <pt x="844" y="433" on="0"/>
        <pt x="627" y="470" on="0"/>
        <pt x="434" y="531" on="0"/>
        <pt x="289" y="629" on="0"/>
        <pt x="205" y="772" on="0"/>
        <pt x="205" y="873" on="1"/>
        <pt x="205" y="965" on="0"/>
        <pt x="293" y="1106" on="0"/>
        <pt x="449" y="1212" on="0"/>
        <pt x="665" y="1284" on="0"/>
        <pt x="920" y="1328" on="0"/>
        <pt x="1205" y="1347" on="0"/>
        <pt x="1353" y="1347" on="1"/>
        <pt x="1471" y="1347" on="0"/>
        <pt x="1697" y="1333" on="0"/>
        <pt x="1908" y="1317" on="0"/>
        <pt x="2101" y="1303" on="0"/>
        <pt x="2187" y="1303" on="1"/>
        <pt x="2241" y="1303" on="0"/>
        <pt x="2322" y="1307" on="0"/>
        <pt x="2398" y="1317" on="0"/>
        <pt x="2476" y="1334" on="0"/>
        <pt x="2527" y="1347" on="1"/>
        <pt x="2538" y="1325" on="0"/>
        <pt x="2557" y="1257" on="0"/>
        <pt x="2574" y="1175" on="0"/>
        <pt x="2588" y="1087" on="0"/>
        <pt x="2598" y="1005" on="0"/>
        <pt x="2603" y="934" on="0"/>
        <pt x="2603" y="911" on="1"/>
        <pt x="2490" y="911" on="1"/>
        <pt x="2476" y="950" on="0"/>
        <pt x="2395" y="1028" on="0"/>
        <pt x="2269" y="1100" on="0"/>
        <pt x="2105" y="1162" on="0"/>
        <pt x="1911" y="1208" on="0"/>
        <pt x="1693" y="1234" on="0"/>
        <pt x="1577" y="1234" on="1"/>
        <pt x="1511" y="1234" on="0"/>
        <pt x="1410" y="1210" on="0"/>
        <pt x="1340" y="1171" on="0"/>
        <pt x="1304" y="1120" on="0"/>
        <pt x="1304" y="1093" on="1"/>
        <pt x="1304" y="1034" on="0"/>
        <pt x="1384" y="959" on="0"/>
        <pt x="1522" y="914" on="0"/>
        <pt x="1705" y="890" on="0"/>
        <pt x="1912" y="872" on="0"/>
        <pt x="2129" y="852" on="0"/>
        <pt x="2336" y="815" on="0"/>
        <pt x="2519" y="753" on="0"/>
        <pt x="2657" y="651" on="0"/>
        <pt x="2737" y="500" on="0"/>
        <pt x="2737" y="393" on="1"/>
        <pt x="2737" y="295" on="0"/>
        <pt x="2645" y="152" on="0"/>
        <pt x="2482" y="52" on="0"/>
        <pt x="2260" y="-10" on="0"/>
        <pt x="2002" y="-45" on="0"/>
        <pt x="1718" y="-57" on="0"/>
        <pt x="1574" y="-57" on="1"/>
        <pt x="1446" y="-57" on="0"/>
        <pt x="1220" y="-43" on="0"/>
        <pt x="998" y="-27" on="0"/>
        <pt x="769" y="-13" on="0"/>
        <pt x="639" y="-13" on="1"/>
        <pt x="586" y="-13" on="0"/>
        <pt x="505" y="-17" on="0"/>
        <pt x="430" y="-27" on="0"/>
        <pt x="352" y="-44" on="0"/>
      </contour>
    </TTGlyph>
    <TTGlyph name="T" xMin="116" yMin="0" xMax="2754" yMax="1291">
      <contour>
        <pt x="400" y="94" on="1"/>
        <pt x="550" y="99" on="0"/>
        <pt x="748" y="159" on="0"/>
        <pt x="866" y="291" on="0"/>
        <pt x="915" y="506" on="0"/>
        <pt x="915" y="668" on="1"/>
        <pt x="915" y="1169" on="1"/>
        <pt x="795" y="1147" on="0"/>
        <pt x="573" y="1051" on="0"/>
        <pt x="390" y="909" on="0"/>
        <pt x="254" y="727" on="0"/>
        <pt x="221" y="619" on="1"/>
        <pt x="116" y="619" on="1"/>
        <pt x="116" y="658" on="0"/>
        <pt x="119" y="765" on="0"/>
        <pt x="124" y="886" on="0"/>
        <pt x="133" y="1015" on="0"/>
        <pt x="144" y="1138" on="0"/>
        <pt x="158" y="1248" on="0"/>
        <pt x="167" y="1291" on="1"/>
        <pt x="2703" y="1291" on="1"/>
        <pt x="2712" y="1248" on="0"/>
        <pt x="2726" y="1138" on="0"/>
        <pt x="2737" y="1015" on="0"/>
        <pt x="2746" y="886" on="0"/>
        <pt x="2751" y="765" on="0"/>
        <pt x="2754" y="658" on="0"/>
        <pt x="2754" y="619" on="1"/>
        <pt x="2649" y="619" on="1"/>
        <pt x="2613" y="720" on="0"/>
        <pt x="2469" y="901" on="0"/>
        <pt x="2282" y="1046" on="0"/>
        <pt x="2065" y="1147" on="0"/>
        <pt x="1955" y="1169" on="1"/>
        <pt x="1955" y="636" on="1"/>
        <pt x="1957" y="484" on="0"/>
        <pt x="2009" y="280" on="0"/>
        <pt x="2127" y="155" on="0"/>
        <pt x="2322" y="99" on="0"/>
        <pt x="2468" y="94" on="1"/>
        <pt x="2468" y="0" on="1"/>
        <pt x="400" y="0" on="1"/>
      </contour>
    </TTGlyph>
    <TTGlyph name="Thorn" xMin="100" yMin="0" xMax="3231" yMax="1291">
      <contour>
        <pt x="100" y="94" on="1"/>
        <pt x="246" y="99" on="0"/>
        <pt x="442" y="155" on="0"/>
        <pt x="561" y="280" on="0"/>
        <pt x="613" y="484" on="0"/>
        <pt x="615" y="636" on="1"/>
        <pt x="615" y="668" on="1"/>
        <pt x="615" y="777" on="0"/>
        <pt x="590" y="941" on="0"/>
        <pt x="537" y="1058" on="0"/>
        <pt x="454" y="1135" on="0"/>
        <pt x="340" y="1179" on="0"/>
        <pt x="192" y="1197" on="0"/>
        <pt x="100" y="1197" on="1"/>
        <pt x="100" y="1291" on="1"/>
        <pt x="2169" y="1291" on="1"/>
        <pt x="2169" y="1197" on="1"/>
        <pt x="2088" y="1197" on="0"/>
        <pt x="1954" y="1183" on="0"/>
        <pt x="1847" y="1150" on="0"/>
        <pt x="1765" y="1094" on="0"/>
        <pt x="1735" y="1051" on="1"/>
        <pt x="1747" y="1051" on="1"/>
        <pt x="2120" y="1051" on="0"/>
        <pt x="2677" y="1018" on="0"/>
        <pt x="3047" y="931" on="0"/>
        <pt x="3231" y="778" on="0"/>
        <pt x="3231" y="658" on="1"/>
        <pt x="3231" y="565" on="0"/>
        <pt x="3130" y="432" on="0"/>
        <pt x="2943" y="340" on="0"/>
        <pt x="2677" y="283" on="0"/>
        <pt x="2348" y="252" on="0"/>
        <pt x="1962" y="241" on="0"/>
        <pt x="1749" y="240" on="1"/>
        <pt x="1807" y="166" on="0"/>
        <pt x="2011" y="99" on="0"/>
        <pt x="2169" y="94" on="1"/>
        <pt x="2169" y="0" on="1"/>
        <pt x="100" y="0" on="1"/>
      </contour>
      <contour>
        <pt x="1689" y="359" on="1"/>
        <pt x="1782" y="360" on="0"/>
        <pt x="1945" y="380" on="0"/>
        <pt x="2066" y="440" on="0"/>
        <pt x="2137" y="553" on="0"/>
        <pt x="2137" y="648" on="1"/>
        <pt x="2137" y="743" on="0"/>
        <pt x="2068" y="854" on="0"/>
        <pt x="1946" y="912" on="0"/>
        <pt x="1779" y="930" on="0"/>
        <pt x="1682" y="931" on="1"/>
        <pt x="1668" y="879" on="0"/>
        <pt x="1655" y="749" on="0"/>
        <pt x="1655" y="668" on="1"/>
        <pt x="1655" y="636" on="1"/>
        <pt x="1655" y="551" on="0"/>
        <pt x="1673" y="414" on="0"/>
      </contour>
    </TTGlyph>
    <TTGlyph name="U" xMin="90" yMin="-57" xMax="3423" yMax="1291">
      <contour>
        <pt x="605" y="678" on="1"/>
        <pt x="605" y="841" on="0"/>
        <pt x="544" y="1044" on="0"/>
        <pt x="418" y="1157" on="0"/>
        <pt x="224" y="1197" on="0"/>
        <pt x="90" y="1197" on="1"/>
        <pt x="90" y="1291" on="1"/>
        <pt x="2113" y="1291" on="1"/>
        <pt x="2113" y="1197" on="1"/>
        <pt x="2020" y="1197" on="0"/>
        <pt x="1878" y="1143" on="0"/>
        <pt x="1783" y="1019" on="0"/>
        <pt x="1734" y="814" on="0"/>
        <pt x="1734" y="663" on="1"/>
        <pt x="1734" y="528" on="0"/>
        <pt x="1823" y="324" on="0"/>
        <pt x="1969" y="187" on="0"/>
        <pt x="2158" y="119" on="0"/>
        <pt x="2257" y="119" on="1"/>
        <pt x="2364" y="119" on="0"/>
        <pt x="2545" y="183" on="0"/>
        <pt x="2677" y="315" on="0"/>
        <pt x="2751" y="517" on="0"/>
        <pt x="2751" y="654" on="1"/>
        <pt x="2751" y="809" on="0"/>
        <pt x="2703" y="1017" on="0"/>
        <pt x="2608" y="1143" on="0"/>
        <pt x="2465" y="1197" on="0"/>
        <pt x="2371" y="1197" on="1"/>
        <pt x="2371" y="1291" on="1"/>
        <pt x="3423" y="1291" on="1"/>
        <pt x="3423" y="1197" on="1"/>
        <pt x="3285" y="1197" on="0"/>
        <pt x="3084" y="1159" on="0"/>
        <pt x="2954" y="1048" on="0"/>
        <pt x="2891" y="845" on="0"/>
        <pt x="2891" y="681" on="1"/>
        <pt x="2891" y="522" on="0"/>
        <pt x="2827" y="289" on="0"/>
        <pt x="2705" y="125" on="0"/>
        <pt x="2530" y="22" on="0"/>
        <pt x="2308" y="-36" on="0"/>
        <pt x="2044" y="-57" on="0"/>
        <pt x="1894" y="-57" on="1"/>
        <pt x="1733" y="-57" on="0"/>
        <pt x="1416" y="-46" on="0"/>
        <pt x="1130" y="-2" on="0"/>
        <pt x="885" y="83" on="0"/>
        <pt x="706" y="233" on="0"/>
        <pt x="605" y="456" on="0"/>
        <pt x="605" y="615" on="1"/>
      </contour>
    </TTGlyph>
    <TTGlyph name="Uacute" xMin="90" yMin="-57" xMax="3423" yMax="1885">
      <contour>
        <pt x="1359" y="1525" on="1"/>
        <pt x="1277" y="1546" on="0"/>
        <pt x="1185" y="1646" on="0"/>
        <pt x="1185" y="1715" on="1"/>
        <pt x="1185" y="1757" on="0"/>
        <pt x="1218" y="1821" on="0"/>
        <pt x="1272" y="1863" on="0"/>
        <pt x="1340" y="1885" on="0"/>
        <pt x="1375" y="1885" on="1"/>
        <pt x="1410" y="1885" on="0"/>
        <pt x="1452" y="1874" on="1"/>
        <pt x="1473" y="1868" on="0"/>
        <pt x="1574" y="1823" on="0"/>
        <pt x="1721" y="1755" on="0"/>
        <pt x="1905" y="1669" on="0"/>
        <pt x="2112" y="1576" on="0"/>
        <pt x="2335" y="1479" on="0"/>
        <pt x="2446" y="1435" on="1"/>
        <pt x="2202" y="1435" on="1"/>
        <pt x="2024" y="1459" on="0"/>
        <pt x="1740" y="1487" on="0"/>
        <pt x="1528" y="1505" on="0"/>
        <pt x="1390" y="1517" on="0"/>
      </contour>
      <contour>
        <pt x="605" y="678" on="1"/>
        <pt x="605" y="841" on="0"/>
        <pt x="544" y="1044" on="0"/>
        <pt x="418" y="1157" on="0"/>
        <pt x="224" y="1197" on="0"/>
        <pt x="90" y="1197" on="1"/>
        <pt x="90" y="1291" on="1"/>
        <pt x="2113" y="1291" on="1"/>
        <pt x="2113" y="1197" on="1"/>
        <pt x="2020" y="1197" on="0"/>
        <pt x="1878" y="1143" on="0"/>
        <pt x="1783" y="1019" on="0"/>
        <pt x="1734" y="814" on="0"/>
        <pt x="1734" y="663" on="1"/>
        <pt x="1734" y="528" on="0"/>
        <pt x="1823" y="324" on="0"/>
        <pt x="1969" y="187" on="0"/>
        <pt x="2158" y="119" on="0"/>
        <pt x="2257" y="119" on="1"/>
        <pt x="2364" y="119" on="0"/>
        <pt x="2545" y="183" on="0"/>
        <pt x="2677" y="315" on="0"/>
        <pt x="2751" y="517" on="0"/>
        <pt x="2751" y="654" on="1"/>
        <pt x="2751" y="809" on="0"/>
        <pt x="2703" y="1017" on="0"/>
        <pt x="2608" y="1143" on="0"/>
        <pt x="2465" y="1197" on="0"/>
        <pt x="2371" y="1197" on="1"/>
        <pt x="2371" y="1291" on="1"/>
        <pt x="3423" y="1291" on="1"/>
        <pt x="3423" y="1197" on="1"/>
        <pt x="3285" y="1197" on="0"/>
        <pt x="3084" y="1159" on="0"/>
        <pt x="2954" y="1048" on="0"/>
        <pt x="2891" y="845" on="0"/>
        <pt x="2891" y="681" on="1"/>
        <pt x="2891" y="522" on="0"/>
        <pt x="2827" y="289" on="0"/>
        <pt x="2705" y="125" on="0"/>
        <pt x="2530" y="22" on="0"/>
        <pt x="2308" y="-36" on="0"/>
        <pt x="2044" y="-57" on="0"/>
        <pt x="1894" y="-57" on="1"/>
        <pt x="1733" y="-57" on="0"/>
        <pt x="1416" y="-46" on="0"/>
        <pt x="1130" y="-2" on="0"/>
        <pt x="885" y="83" on="0"/>
        <pt x="706" y="233" on="0"/>
        <pt x="605" y="456" on="0"/>
        <pt x="605" y="615" on="1"/>
      </contour>
    </TTGlyph>
    <TTGlyph name="Ucircumflex" xMin="90" yMin="-57" xMax="3423" yMax="1910">
      <contour>
        <pt x="1177" y="1401" on="1"/>
        <pt x="1270" y="1471" on="0"/>
        <pt x="1420" y="1580" on="0"/>
        <pt x="1542" y="1666" on="0"/>
        <pt x="1642" y="1732" on="0"/>
        <pt x="1728" y="1787" on="0"/>
        <pt x="1805" y="1835" on="0"/>
        <pt x="1843" y="1860" on="1"/>
        <pt x="1872" y="1879" on="0"/>
        <pt x="1939" y="1910" on="0"/>
        <pt x="1992" y="1910" on="1"/>
        <pt x="2045" y="1910" on="0"/>
        <pt x="2112" y="1879" on="0"/>
        <pt x="2141" y="1860" on="1"/>
        <pt x="2179" y="1835" on="0"/>
        <pt x="2256" y="1787" on="0"/>
        <pt x="2342" y="1732" on="0"/>
        <pt x="2442" y="1666" on="0"/>
        <pt x="2564" y="1580" on="0"/>
        <pt x="2714" y="1471" on="0"/>
        <pt x="2807" y="1401" on="1"/>
        <pt x="2643" y="1401" on="1"/>
        <pt x="1992" y="1584" on="1"/>
        <pt x="1341" y="1401" on="1"/>
      </contour>
      <contour>
        <pt x="605" y="678" on="1"/>
        <pt x="605" y="841" on="0"/>
        <pt x="544" y="1044" on="0"/>
        <pt x="418" y="1157" on="0"/>
        <pt x="224" y="1197" on="0"/>
        <pt x="90" y="1197" on="1"/>
        <pt x="90" y="1291" on="1"/>
        <pt x="2113" y="1291" on="1"/>
        <pt x="2113" y="1197" on="1"/>
        <pt x="2020" y="1197" on="0"/>
        <pt x="1878" y="1143" on="0"/>
        <pt x="1783" y="1019" on="0"/>
        <pt x="1734" y="814" on="0"/>
        <pt x="1734" y="663" on="1"/>
        <pt x="1734" y="528" on="0"/>
        <pt x="1823" y="324" on="0"/>
        <pt x="1969" y="187" on="0"/>
        <pt x="2158" y="119" on="0"/>
        <pt x="2257" y="119" on="1"/>
        <pt x="2364" y="119" on="0"/>
        <pt x="2545" y="183" on="0"/>
        <pt x="2677" y="315" on="0"/>
        <pt x="2751" y="517" on="0"/>
        <pt x="2751" y="654" on="1"/>
        <pt x="2751" y="809" on="0"/>
        <pt x="2703" y="1017" on="0"/>
        <pt x="2608" y="1143" on="0"/>
        <pt x="2465" y="1197" on="0"/>
        <pt x="2371" y="1197" on="1"/>
        <pt x="2371" y="1291" on="1"/>
        <pt x="3423" y="1291" on="1"/>
        <pt x="3423" y="1197" on="1"/>
        <pt x="3285" y="1197" on="0"/>
        <pt x="3084" y="1159" on="0"/>
        <pt x="2954" y="1048" on="0"/>
        <pt x="2891" y="845" on="0"/>
        <pt x="2891" y="681" on="1"/>
        <pt x="2891" y="522" on="0"/>
        <pt x="2827" y="289" on="0"/>
        <pt x="2705" y="125" on="0"/>
        <pt x="2530" y="22" on="0"/>
        <pt x="2308" y="-36" on="0"/>
        <pt x="2044" y="-57" on="0"/>
        <pt x="1894" y="-57" on="1"/>
        <pt x="1733" y="-57" on="0"/>
        <pt x="1416" y="-46" on="0"/>
        <pt x="1130" y="-2" on="0"/>
        <pt x="885" y="83" on="0"/>
        <pt x="706" y="233" on="0"/>
        <pt x="605" y="456" on="0"/>
        <pt x="605" y="615" on="1"/>
      </contour>
    </TTGlyph>
    <TTGlyph name="Udieresis" xMin="90" yMin="-57" xMax="3423" yMax="1833">
      <contour>
        <pt x="2077" y="1659" on="1"/>
        <pt x="2077" y="1691" on="0"/>
        <pt x="2109" y="1753" on="0"/>
        <pt x="2173" y="1803" on="0"/>
        <pt x="2267" y="1833" on="0"/>
        <pt x="2330" y="1833" on="1"/>
        <pt x="2393" y="1833" on="0"/>
        <pt x="2487" y="1803" on="0"/>
        <pt x="2551" y="1753" on="0"/>
        <pt x="2583" y="1691" on="0"/>
        <pt x="2583" y="1659" on="1"/>
        <pt x="2583" y="1627" on="0"/>
        <pt x="2551" y="1566" on="0"/>
        <pt x="2487" y="1517" on="0"/>
        <pt x="2393" y="1487" on="0"/>
        <pt x="2330" y="1487" on="1"/>
        <pt x="2267" y="1487" on="0"/>
        <pt x="2173" y="1517" on="0"/>
        <pt x="2109" y="1566" on="0"/>
        <pt x="2077" y="1627" on="0"/>
      </contour>
      <contour>
        <pt x="1407" y="1659" on="1"/>
        <pt x="1407" y="1691" on="0"/>
        <pt x="1439" y="1753" on="0"/>
        <pt x="1503" y="1803" on="0"/>
        <pt x="1597" y="1833" on="0"/>
        <pt x="1660" y="1833" on="1"/>
        <pt x="1723" y="1833" on="0"/>
        <pt x="1817" y="1803" on="0"/>
        <pt x="1881" y="1753" on="0"/>
        <pt x="1913" y="1691" on="0"/>
        <pt x="1913" y="1659" on="1"/>
        <pt x="1913" y="1627" on="0"/>
        <pt x="1881" y="1566" on="0"/>
        <pt x="1817" y="1517" on="0"/>
        <pt x="1723" y="1487" on="0"/>
        <pt x="1660" y="1487" on="1"/>
        <pt x="1597" y="1487" on="0"/>
        <pt x="1503" y="1517" on="0"/>
        <pt x="1439" y="1566" on="0"/>
        <pt x="1407" y="1627" on="0"/>
      </contour>
      <contour>
        <pt x="605" y="678" on="1"/>
        <pt x="605" y="841" on="0"/>
        <pt x="544" y="1044" on="0"/>
        <pt x="418" y="1157" on="0"/>
        <pt x="224" y="1197" on="0"/>
        <pt x="90" y="1197" on="1"/>
        <pt x="90" y="1291" on="1"/>
        <pt x="2113" y="1291" on="1"/>
        <pt x="2113" y="1197" on="1"/>
        <pt x="2020" y="1197" on="0"/>
        <pt x="1878" y="1143" on="0"/>
        <pt x="1783" y="1019" on="0"/>
        <pt x="1734" y="814" on="0"/>
        <pt x="1734" y="663" on="1"/>
        <pt x="1734" y="528" on="0"/>
        <pt x="1823" y="324" on="0"/>
        <pt x="1969" y="187" on="0"/>
        <pt x="2158" y="119" on="0"/>
        <pt x="2257" y="119" on="1"/>
        <pt x="2364" y="119" on="0"/>
        <pt x="2545" y="183" on="0"/>
        <pt x="2677" y="315" on="0"/>
        <pt x="2751" y="517" on="0"/>
        <pt x="2751" y="654" on="1"/>
        <pt x="2751" y="809" on="0"/>
        <pt x="2703" y="1017" on="0"/>
        <pt x="2608" y="1143" on="0"/>
        <pt x="2465" y="1197" on="0"/>
        <pt x="2371" y="1197" on="1"/>
        <pt x="2371" y="1291" on="1"/>
        <pt x="3423" y="1291" on="1"/>
        <pt x="3423" y="1197" on="1"/>
        <pt x="3285" y="1197" on="0"/>
        <pt x="3084" y="1159" on="0"/>
        <pt x="2954" y="1048" on="0"/>
        <pt x="2891" y="845" on="0"/>
        <pt x="2891" y="681" on="1"/>
        <pt x="2891" y="522" on="0"/>
        <pt x="2827" y="289" on="0"/>
        <pt x="2705" y="125" on="0"/>
        <pt x="2530" y="22" on="0"/>
        <pt x="2308" y="-36" on="0"/>
        <pt x="2044" y="-57" on="0"/>
        <pt x="1894" y="-57" on="1"/>
        <pt x="1733" y="-57" on="0"/>
        <pt x="1416" y="-46" on="0"/>
        <pt x="1130" y="-2" on="0"/>
        <pt x="885" y="83" on="0"/>
        <pt x="706" y="233" on="0"/>
        <pt x="605" y="456" on="0"/>
        <pt x="605" y="615" on="1"/>
      </contour>
    </TTGlyph>
    <TTGlyph name="Ugrave" xMin="90" yMin="-57" xMax="3423" yMax="1885">
      <contour>
        <pt x="1363" y="1435" on="1"/>
        <pt x="1474" y="1479" on="0"/>
        <pt x="1697" y="1576" on="0"/>
        <pt x="1904" y="1669" on="0"/>
        <pt x="2088" y="1755" on="0"/>
        <pt x="2235" y="1823" on="0"/>
        <pt x="2336" y="1868" on="0"/>
        <pt x="2357" y="1874" on="1"/>
        <pt x="2399" y="1885" on="0"/>
        <pt x="2434" y="1885" on="1"/>
        <pt x="2469" y="1885" on="0"/>
        <pt x="2537" y="1863" on="0"/>
        <pt x="2591" y="1821" on="0"/>
        <pt x="2624" y="1757" on="0"/>
        <pt x="2624" y="1715" on="1"/>
        <pt x="2624" y="1646" on="0"/>
        <pt x="2532" y="1546" on="0"/>
        <pt x="2450" y="1525" on="1"/>
        <pt x="2418" y="1517" on="0"/>
        <pt x="2280" y="1505" on="0"/>
        <pt x="2069" y="1487" on="0"/>
        <pt x="1785" y="1459" on="0"/>
        <pt x="1607" y="1435" on="1"/>
      </contour>
      <contour>
        <pt x="605" y="678" on="1"/>
        <pt x="605" y="841" on="0"/>
        <pt x="544" y="1044" on="0"/>
        <pt x="418" y="1157" on="0"/>
        <pt x="224" y="1197" on="0"/>
        <pt x="90" y="1197" on="1"/>
        <pt x="90" y="1291" on="1"/>
        <pt x="2113" y="1291" on="1"/>
        <pt x="2113" y="1197" on="1"/>
        <pt x="2020" y="1197" on="0"/>
        <pt x="1878" y="1143" on="0"/>
        <pt x="1783" y="1019" on="0"/>
        <pt x="1734" y="814" on="0"/>
        <pt x="1734" y="663" on="1"/>
        <pt x="1734" y="528" on="0"/>
        <pt x="1823" y="324" on="0"/>
        <pt x="1969" y="187" on="0"/>
        <pt x="2158" y="119" on="0"/>
        <pt x="2257" y="119" on="1"/>
        <pt x="2364" y="119" on="0"/>
        <pt x="2545" y="183" on="0"/>
        <pt x="2677" y="315" on="0"/>
        <pt x="2751" y="517" on="0"/>
        <pt x="2751" y="654" on="1"/>
        <pt x="2751" y="809" on="0"/>
        <pt x="2703" y="1017" on="0"/>
        <pt x="2608" y="1143" on="0"/>
        <pt x="2465" y="1197" on="0"/>
        <pt x="2371" y="1197" on="1"/>
        <pt x="2371" y="1291" on="1"/>
        <pt x="3423" y="1291" on="1"/>
        <pt x="3423" y="1197" on="1"/>
        <pt x="3285" y="1197" on="0"/>
        <pt x="3084" y="1159" on="0"/>
        <pt x="2954" y="1048" on="0"/>
        <pt x="2891" y="845" on="0"/>
        <pt x="2891" y="681" on="1"/>
        <pt x="2891" y="522" on="0"/>
        <pt x="2827" y="289" on="0"/>
        <pt x="2705" y="125" on="0"/>
        <pt x="2530" y="22" on="0"/>
        <pt x="2308" y="-36" on="0"/>
        <pt x="2044" y="-57" on="0"/>
        <pt x="1894" y="-57" on="1"/>
        <pt x="1733" y="-57" on="0"/>
        <pt x="1416" y="-46" on="0"/>
        <pt x="1130" y="-2" on="0"/>
        <pt x="885" y="83" on="0"/>
        <pt x="706" y="233" on="0"/>
        <pt x="605" y="456" on="0"/>
        <pt x="605" y="615" on="1"/>
      </contour>
    </TTGlyph>
    <TTGlyph name="V" xMin="100" yMin="0" xMax="3055" yMax="1291">
      <contour>
        <pt x="982" y="0" on="1"/>
        <pt x="857" y="273" on="0"/>
        <pt x="623" y="716" on="0"/>
        <pt x="404" y="1028" on="0"/>
        <pt x="198" y="1197" on="0"/>
        <pt x="100" y="1197" on="1"/>
        <pt x="100" y="1291" on="1"/>
        <pt x="1875" y="1291" on="1"/>
        <pt x="1875" y="1197" on="1"/>
        <pt x="1823" y="1197" on="0"/>
        <pt x="1732" y="1185" on="0"/>
        <pt x="1665" y="1155" on="0"/>
        <pt x="1627" y="1103" on="0"/>
        <pt x="1627" y="1063" on="1"/>
        <pt x="1627" y="1039" on="0"/>
        <pt x="1658" y="937" on="0"/>
        <pt x="1713" y="797" on="0"/>
        <pt x="1786" y="628" on="0"/>
        <pt x="1871" y="447" on="0"/>
        <pt x="1964" y="262" on="0"/>
        <pt x="2010" y="177" on="1"/>
        <pt x="2029" y="206" on="0"/>
        <pt x="2083" y="304" on="0"/>
        <pt x="2145" y="427" on="0"/>
        <pt x="2212" y="566" on="0"/>
        <pt x="2275" y="707" on="0"/>
        <pt x="2332" y="841" on="0"/>
        <pt x="2375" y="954" on="0"/>
        <pt x="2400" y="1038" on="0"/>
        <pt x="2400" y="1058" on="1"/>
        <pt x="2400" y="1093" on="0"/>
        <pt x="2375" y="1145" on="0"/>
        <pt x="2317" y="1180" on="0"/>
        <pt x="2223" y="1197" on="0"/>
        <pt x="2153" y="1197" on="1"/>
        <pt x="2153" y="1291" on="1"/>
        <pt x="3055" y="1291" on="1"/>
        <pt x="3055" y="1197" on="1"/>
        <pt x="2958" y="1197" on="0"/>
        <pt x="2789" y="1130" on="0"/>
        <pt x="2635" y="996" on="0"/>
        <pt x="2491" y="795" on="0"/>
        <pt x="2346" y="529" on="0"/>
        <pt x="2195" y="198" on="0"/>
        <pt x="2112" y="0" on="1"/>
      </contour>
    </TTGlyph>
    <TTGlyph name="W" xMin="100" yMin="0" xMax="4211" yMax="1291">
      <contour>
        <pt x="823" y="0" on="1"/>
        <pt x="782" y="162" on="0"/>
        <pt x="691" y="468" on="0"/>
        <pt x="603" y="725" on="0"/>
        <pt x="525" y="919" on="0"/>
        <pt x="497" y="970" on="1"/>
        <pt x="462" y="1033" on="0"/>
        <pt x="372" y="1119" on="0"/>
        <pt x="269" y="1173" on="0"/>
        <pt x="157" y="1197" on="0"/>
        <pt x="100" y="1197" on="1"/>
        <pt x="100" y="1291" on="1"/>
        <pt x="1687" y="1291" on="1"/>
        <pt x="1687" y="1194" on="1"/>
        <pt x="1625" y="1194" on="0"/>
        <pt x="1563" y="1121" on="0"/>
        <pt x="1563" y="1063" on="1"/>
        <pt x="1563" y="1039" on="0"/>
        <pt x="1576" y="948" on="0"/>
        <pt x="1601" y="826" on="0"/>
        <pt x="1640" y="678" on="0"/>
        <pt x="1692" y="515" on="0"/>
        <pt x="1757" y="345" on="0"/>
        <pt x="1797" y="262" on="1"/>
        <pt x="1837" y="379" on="0"/>
        <pt x="1913" y="600" on="0"/>
        <pt x="1972" y="796" on="0"/>
        <pt x="2008" y="963" on="0"/>
        <pt x="2008" y="1027" on="1"/>
        <pt x="2008" y="1104" on="0"/>
        <pt x="1946" y="1191" on="0"/>
        <pt x="1873" y="1191" on="1"/>
        <pt x="1873" y="1291" on="1"/>
        <pt x="3250" y="1291" on="1"/>
        <pt x="3250" y="1195" on="1"/>
        <pt x="3216" y="1195" on="0"/>
        <pt x="3166" y="1173" on="0"/>
        <pt x="3133" y="1136" on="0"/>
        <pt x="3116" y="1088" on="0"/>
        <pt x="3116" y="1063" on="1"/>
        <pt x="3116" y="1027" on="0"/>
        <pt x="3141" y="859" on="0"/>
        <pt x="3196" y="636" on="0"/>
        <pt x="3282" y="378" on="0"/>
        <pt x="3342" y="252" on="1"/>
        <pt x="3366" y="310" on="0"/>
        <pt x="3417" y="450" on="0"/>
        <pt x="3464" y="600" on="0"/>
        <pt x="3507" y="753" on="0"/>
        <pt x="3538" y="893" on="0"/>
        <pt x="3557" y="1014" on="0"/>
        <pt x="3557" y="1058" on="1"/>
        <pt x="3557" y="1081" on="0"/>
        <pt x="3540" y="1130" on="0"/>
        <pt x="3505" y="1170" on="0"/>
        <pt x="3451" y="1196" on="0"/>
        <pt x="3414" y="1196" on="1"/>
        <pt x="3414" y="1291" on="1"/>
        <pt x="4211" y="1291" on="1"/>
        <pt x="4211" y="1197" on="1"/>
        <pt x="4108" y="1197" on="0"/>
        <pt x="3947" y="1130" on="0"/>
        <pt x="3816" y="996" on="0"/>
        <pt x="3705" y="795" on="0"/>
        <pt x="3600" y="529" on="0"/>
        <pt x="3493" y="198" on="0"/>
        <pt x="3431" y="0" on="1"/>
        <pt x="2390" y="0" on="1"/>
        <pt x="2318" y="239" on="0"/>
        <pt x="2197" y="612" on="0"/>
        <pt x="2145" y="757" on="1"/>
        <pt x="2085" y="613" on="0"/>
        <pt x="1967" y="235" on="0"/>
        <pt x="1891" y="0" on="1"/>
      </contour>
    </TTGlyph>
    <TTGlyph name="X" xMin="100" yMin="0" xMax="3154" yMax="1291">
      <contour>
        <pt x="100" y="94" on="1"/>
        <pt x="144" y="94" on="0"/>
        <pt x="267" y="136" on="0"/>
        <pt x="413" y="212" on="0"/>
        <pt x="578" y="318" on="0"/>
        <pt x="753" y="444" on="0"/>
        <pt x="932" y="588" on="0"/>
        <pt x="1019" y="664" on="1"/>
        <pt x="962" y="731" on="0"/>
        <pt x="841" y="863" on="0"/>
        <pt x="724" y="978" on="0"/>
        <pt x="613" y="1070" on="0"/>
        <pt x="566" y="1098" on="1"/>
        <pt x="521" y="1124" on="0"/>
        <pt x="409" y="1162" on="0"/>
        <pt x="294" y="1186" on="0"/>
        <pt x="182" y="1197" on="0"/>
        <pt x="137" y="1197" on="1"/>
        <pt x="137" y="1291" on="1"/>
        <pt x="2060" y="1291" on="1"/>
        <pt x="2060" y="1197" on="1"/>
        <pt x="2026" y="1197" on="0"/>
        <pt x="1966" y="1186" on="0"/>
        <pt x="1922" y="1164" on="0"/>
        <pt x="1897" y="1129" on="0"/>
        <pt x="1897" y="1105" on="1"/>
        <pt x="1897" y="1097" on="0"/>
        <pt x="1930" y="1043" on="0"/>
        <pt x="1990" y="959" on="0"/>
        <pt x="2072" y="852" on="0"/>
        <pt x="2121" y="792" on="1"/>
        <pt x="2179" y="834" on="0"/>
        <pt x="2286" y="920" on="0"/>
        <pt x="2367" y="1000" on="0"/>
        <pt x="2416" y="1067" on="0"/>
        <pt x="2416" y="1090" on="1"/>
        <pt x="2416" y="1197" on="0"/>
        <pt x="2244" y="1197" on="1"/>
        <pt x="2244" y="1291" on="1"/>
        <pt x="3061" y="1291" on="1"/>
        <pt x="3061" y="1197" on="1"/>
        <pt x="3019" y="1197" on="0"/>
        <pt x="2940" y="1178" on="0"/>
        <pt x="2855" y="1142" on="0"/>
        <pt x="2759" y="1089" on="0"/>
        <pt x="2699" y="1055" on="1"/>
        <pt x="2559" y="974" on="0"/>
        <pt x="2309" y="802" on="0"/>
        <pt x="2188" y="711" on="1"/>
        <pt x="2249" y="639" on="0"/>
        <pt x="2382" y="492" on="0"/>
        <pt x="2513" y="361" on="0"/>
        <pt x="2638" y="254" on="0"/>
        <pt x="2691" y="222" on="1"/>
        <pt x="2750" y="186" on="0"/>
        <pt x="2872" y="137" on="0"/>
        <pt x="2992" y="107" on="0"/>
        <pt x="3105" y="94" on="0"/>
        <pt x="3154" y="94" on="1"/>
        <pt x="3154" y="0" on="1"/>
        <pt x="1147" y="0" on="1"/>
        <pt x="1147" y="94" on="1"/>
        <pt x="1186" y="94" on="0"/>
        <pt x="1259" y="105" on="0"/>
        <pt x="1317" y="130" on="0"/>
        <pt x="1352" y="173" on="0"/>
        <pt x="1352" y="205" on="1"/>
        <pt x="1352" y="215" on="0"/>
        <pt x="1312" y="282" on="0"/>
        <pt x="1242" y="382" on="0"/>
        <pt x="1146" y="508" on="0"/>
        <pt x="1091" y="577" on="1"/>
        <pt x="1029" y="527" on="0"/>
        <pt x="905" y="417" on="0"/>
        <pt x="806" y="314" on="0"/>
        <pt x="744" y="227" on="0"/>
        <pt x="744" y="201" on="1"/>
        <pt x="744" y="94" on="0"/>
        <pt x="952" y="94" on="1"/>
        <pt x="952" y="0" on="1"/>
        <pt x="100" y="0" on="1"/>
      </contour>
    </TTGlyph>
    <TTGlyph name="Y" xMin="100" yMin="0" xMax="3123" yMax="1291">
      <contour>
        <pt x="497" y="94" on="1"/>
        <pt x="642" y="97" on="0"/>
        <pt x="849" y="162" on="0"/>
        <pt x="981" y="255" on="0"/>
        <pt x="1042" y="360" on="0"/>
        <pt x="1042" y="404" on="1"/>
        <pt x="1042" y="542" on="1"/>
        <pt x="982" y="633" on="0"/>
        <pt x="839" y="801" on="0"/>
        <pt x="682" y="947" on="0"/>
        <pt x="514" y="1066" on="0"/>
        <pt x="344" y="1151" on="0"/>
        <pt x="177" y="1197" on="0"/>
        <pt x="100" y="1197" on="1"/>
        <pt x="100" y="1291" on="1"/>
        <pt x="1898" y="1291" on="1"/>
        <pt x="1898" y="1197" on="1"/>
        <pt x="1810" y="1197" on="0"/>
        <pt x="1716" y="1125" on="0"/>
        <pt x="1716" y="1063" on="1"/>
        <pt x="1716" y="1031" on="0"/>
        <pt x="1757" y="936" on="0"/>
        <pt x="1835" y="811" on="0"/>
        <pt x="1947" y="656" on="0"/>
        <pt x="2017" y="564" on="1"/>
        <pt x="2056" y="621" on="0"/>
        <pt x="2150" y="762" on="0"/>
        <pt x="2231" y="901" on="0"/>
        <pt x="2285" y="1022" on="0"/>
        <pt x="2285" y="1058" on="1"/>
        <pt x="2285" y="1084" on="0"/>
        <pt x="2267" y="1134" on="0"/>
        <pt x="2222" y="1173" on="0"/>
        <pt x="2144" y="1197" on="0"/>
        <pt x="2083" y="1197" on="1"/>
        <pt x="2083" y="1291" on="1"/>
        <pt x="3123" y="1291" on="1"/>
        <pt x="3123" y="1197" on="1"/>
        <pt x="2988" y="1194" on="0"/>
        <pt x="2740" y="1108" on="0"/>
        <pt x="2525" y="972" on="0"/>
        <pt x="2348" y="803" on="0"/>
        <pt x="2222" y="633" on="0"/>
        <pt x="2153" y="477" on="0"/>
        <pt x="2153" y="422" on="1"/>
        <pt x="2153" y="333" on="0"/>
        <pt x="2246" y="208" on="0"/>
        <pt x="2405" y="130" on="0"/>
        <pt x="2619" y="94" on="0"/>
        <pt x="2740" y="94" on="1"/>
        <pt x="2740" y="0" on="1"/>
        <pt x="497" y="0" on="1"/>
      </contour>
    </TTGlyph>
    <TTGlyph name="Yacute" xMin="100" yMin="0" xMax="3123" yMax="1885">
      <contour>
        <pt x="1132" y="1525" on="1"/>
        <pt x="1050" y="1546" on="0"/>
        <pt x="958" y="1646" on="0"/>
        <pt x="958" y="1715" on="1"/>
        <pt x="958" y="1757" on="0"/>
        <pt x="991" y="1821" on="0"/>
        <pt x="1045" y="1863" on="0"/>
        <pt x="1113" y="1885" on="0"/>
        <pt x="1148" y="1885" on="1"/>
        <pt x="1183" y="1885" on="0"/>
        <pt x="1225" y="1874" on="1"/>
        <pt x="1246" y="1868" on="0"/>
        <pt x="1347" y="1823" on="0"/>
        <pt x="1494" y="1755" on="0"/>
        <pt x="1678" y="1669" on="0"/>
        <pt x="1885" y="1576" on="0"/>
        <pt x="2108" y="1479" on="0"/>
        <pt x="2219" y="1435" on="1"/>
        <pt x="1975" y="1435" on="1"/>
        <pt x="1797" y="1459" on="0"/>
        <pt x="1513" y="1487" on="0"/>
        <pt x="1301" y="1505" on="0"/>
        <pt x="1163" y="1517" on="0"/>
      </contour>
      <contour>
        <pt x="497" y="94" on="1"/>
        <pt x="642" y="97" on="0"/>
        <pt x="849" y="162" on="0"/>
        <pt x="981" y="255" on="0"/>
        <pt x="1042" y="360" on="0"/>
        <pt x="1042" y="404" on="1"/>
        <pt x="1042" y="542" on="1"/>
        <pt x="982" y="633" on="0"/>
        <pt x="839" y="801" on="0"/>
        <pt x="682" y="947" on="0"/>
        <pt x="514" y="1066" on="0"/>
        <pt x="344" y="1151" on="0"/>
        <pt x="177" y="1197" on="0"/>
        <pt x="100" y="1197" on="1"/>
        <pt x="100" y="1291" on="1"/>
        <pt x="1898" y="1291" on="1"/>
        <pt x="1898" y="1197" on="1"/>
        <pt x="1810" y="1197" on="0"/>
        <pt x="1716" y="1125" on="0"/>
        <pt x="1716" y="1063" on="1"/>
        <pt x="1716" y="1031" on="0"/>
        <pt x="1757" y="936" on="0"/>
        <pt x="1835" y="811" on="0"/>
        <pt x="1947" y="656" on="0"/>
        <pt x="2017" y="564" on="1"/>
        <pt x="2056" y="621" on="0"/>
        <pt x="2150" y="762" on="0"/>
        <pt x="2231" y="901" on="0"/>
        <pt x="2285" y="1022" on="0"/>
        <pt x="2285" y="1058" on="1"/>
        <pt x="2285" y="1084" on="0"/>
        <pt x="2267" y="1134" on="0"/>
        <pt x="2222" y="1173" on="0"/>
        <pt x="2144" y="1197" on="0"/>
        <pt x="2083" y="1197" on="1"/>
        <pt x="2083" y="1291" on="1"/>
        <pt x="3123" y="1291" on="1"/>
        <pt x="3123" y="1197" on="1"/>
        <pt x="2988" y="1194" on="0"/>
        <pt x="2740" y="1108" on="0"/>
        <pt x="2525" y="972" on="0"/>
        <pt x="2348" y="803" on="0"/>
        <pt x="2222" y="633" on="0"/>
        <pt x="2153" y="477" on="0"/>
        <pt x="2153" y="422" on="1"/>
        <pt x="2153" y="333" on="0"/>
        <pt x="2246" y="208" on="0"/>
        <pt x="2405" y="130" on="0"/>
        <pt x="2619" y="94" on="0"/>
        <pt x="2740" y="94" on="1"/>
        <pt x="2740" y="0" on="1"/>
        <pt x="497" y="0" on="1"/>
      </contour>
    </TTGlyph>
    <TTGlyph name="Z" xMin="95" yMin="0" xMax="2677" yMax="1291">
      <contour>
        <pt x="95" y="108" on="1"/>
        <pt x="133" y="108" on="0"/>
        <pt x="218" y="143" on="0"/>
        <pt x="334" y="234" on="0"/>
        <pt x="492" y="389" on="0"/>
        <pt x="715" y="629" on="0"/>
        <pt x="1016" y="962" on="0"/>
        <pt x="1216" y="1186" on="1"/>
        <pt x="1038" y="1185" on="0"/>
        <pt x="764" y="1171" on="0"/>
        <pt x="561" y="1138" on="0"/>
        <pt x="422" y="1081" on="0"/>
        <pt x="338" y="993" on="0"/>
        <pt x="301" y="868" on="0"/>
        <pt x="301" y="784" on="1"/>
        <pt x="300" y="784" on="0"/>
        <pt x="271" y="783" on="0"/>
        <pt x="253" y="783" on="1"/>
        <pt x="205" y="783" on="1"/>
        <pt x="205" y="1291" on="1"/>
        <pt x="2673" y="1291" on="1"/>
        <pt x="2673" y="1197" on="1"/>
        <pt x="2632" y="1197" on="0"/>
        <pt x="2553" y="1160" on="0"/>
        <pt x="2449" y="1068" on="0"/>
        <pt x="2305" y="911" on="0"/>
        <pt x="2095" y="670" on="0"/>
        <pt x="1804" y="336" on="0"/>
        <pt x="1604" y="113" on="1"/>
        <pt x="1869" y="116" on="0"/>
        <pt x="2242" y="147" on="0"/>
        <pt x="2477" y="232" on="0"/>
        <pt x="2584" y="384" on="0"/>
        <pt x="2584" y="507" on="1"/>
        <pt x="2631" y="507" on="1"/>
        <pt x="2651" y="507" on="0"/>
        <pt x="2677" y="508" on="1"/>
        <pt x="2677" y="0" on="1"/>
        <pt x="95" y="0" on="1"/>
      </contour>
    </TTGlyph>
    <TTGlyph name="a" xMin="125" yMin="-45" xMax="2814" yMax="1092">
      <contour>
        <pt x="125" y="221" on="1"/>
        <pt x="125" y="309" on="0"/>
        <pt x="233" y="425" on="0"/>
        <pt x="411" y="492" on="0"/>
        <pt x="640" y="519" on="0"/>
        <pt x="761" y="519" on="1"/>
        <pt x="868" y="519" on="0"/>
        <pt x="1074" y="515" on="0"/>
        <pt x="1257" y="508" on="0"/>
        <pt x="1407" y="498" on="0"/>
        <pt x="1458" y="492" on="1"/>
        <pt x="1458" y="709" on="1"/>
        <pt x="1458" y="789" on="0"/>
        <pt x="1413" y="899" on="0"/>
        <pt x="1320" y="966" on="0"/>
        <pt x="1176" y="996" on="0"/>
        <pt x="1078" y="996" on="1"/>
        <pt x="1007" y="996" on="0"/>
        <pt x="864" y="992" on="0"/>
        <pt x="804" y="988" on="1"/>
        <pt x="898" y="988" on="0"/>
        <pt x="1054" y="961" on="0"/>
        <pt x="1166" y="911" on="0"/>
        <pt x="1227" y="840" on="0"/>
        <pt x="1227" y="796" on="1"/>
        <pt x="1227" y="746" on="0"/>
        <pt x="1155" y="671" on="0"/>
        <pt x="1030" y="621" on="0"/>
        <pt x="861" y="595" on="0"/>
        <pt x="764" y="595" on="1"/>
        <pt x="675" y="595" on="0"/>
        <pt x="514" y="629" on="0"/>
        <pt x="390" y="688" on="0"/>
        <pt x="317" y="769" on="0"/>
        <pt x="317" y="816" on="1"/>
        <pt x="317" y="865" on="0"/>
        <pt x="394" y="945" on="0"/>
        <pt x="525" y="1006" on="0"/>
        <pt x="698" y="1050" on="0"/>
        <pt x="891" y="1079" on="0"/>
        <pt x="1093" y="1092" on="0"/>
        <pt x="1187" y="1092" on="1"/>
        <pt x="1326" y="1092" on="0"/>
        <pt x="1610" y="1087" on="0"/>
        <pt x="1874" y="1063" on="0"/>
        <pt x="2106" y="1013" on="0"/>
        <pt x="2278" y="923" on="0"/>
        <pt x="2377" y="787" on="0"/>
        <pt x="2377" y="688" on="1"/>
        <pt x="2377" y="449" on="1"/>
        <pt x="2377" y="356" on="0"/>
        <pt x="2402" y="241" on="0"/>
        <pt x="2446" y="178" on="0"/>
        <pt x="2506" y="157" on="0"/>
        <pt x="2540" y="157" on="1"/>
        <pt x="2571" y="157" on="0"/>
        <pt x="2627" y="182" on="0"/>
        <pt x="2671" y="232" on="0"/>
        <pt x="2699" y="307" on="0"/>
        <pt x="2701" y="356" on="1"/>
        <pt x="2814" y="356" on="1"/>
        <pt x="2814" y="266" on="0"/>
        <pt x="2760" y="137" on="0"/>
        <pt x="2663" y="47" on="0"/>
        <pt x="2529" y="-6" on="0"/>
        <pt x="2370" y="-36" on="0"/>
        <pt x="2192" y="-45" on="0"/>
        <pt x="2099" y="-45" on="1"/>
        <pt x="1986" y="-45" on="0"/>
        <pt x="1795" y="-35" on="0"/>
        <pt x="1643" y="-2" on="0"/>
        <pt x="1533" y="60" on="0"/>
        <pt x="1501" y="112" on="1"/>
        <pt x="1459" y="83" on="0"/>
        <pt x="1330" y="27" on="0"/>
        <pt x="1137" y="-18" on="0"/>
        <pt x="869" y="-45" on="0"/>
        <pt x="689" y="-45" on="1"/>
        <pt x="571" y="-45" on="0"/>
        <pt x="366" y="-9" on="0"/>
        <pt x="213" y="59" on="0"/>
        <pt x="125" y="158" on="0"/>
      </contour>
      <contour>
        <pt x="1010" y="270" on="1"/>
        <pt x="1010" y="250" on="0"/>
        <pt x="1027" y="205" on="0"/>
        <pt x="1066" y="167" on="0"/>
        <pt x="1129" y="142" on="0"/>
        <pt x="1176" y="142" on="1"/>
        <pt x="1203" y="142" on="0"/>
        <pt x="1268" y="144" on="0"/>
        <pt x="1342" y="153" on="0"/>
        <pt x="1424" y="173" on="0"/>
        <pt x="1468" y="191" on="1"/>
        <pt x="1458" y="232" on="0"/>
        <pt x="1458" y="289" on="1"/>
        <pt x="1458" y="396" on="1"/>
        <pt x="1415" y="398" on="0"/>
        <pt x="1327" y="399" on="0"/>
        <pt x="1286" y="399" on="1"/>
        <pt x="1218" y="399" on="0"/>
        <pt x="1114" y="389" on="0"/>
        <pt x="1045" y="360" on="0"/>
        <pt x="1010" y="310" on="0"/>
      </contour>
    </TTGlyph>
    <TTGlyph name="aacute" xMin="125" yMin="-45" xMax="2814" yMax="1761">
      <contour>
        <pt x="798" y="1187" on="1"/>
        <pt x="901" y="1248" on="0"/>
        <pt x="1098" y="1371" on="0"/>
        <pt x="1275" y="1488" on="0"/>
        <pt x="1430" y="1591" on="0"/>
        <pt x="1553" y="1673" on="0"/>
        <pt x="1638" y="1727" on="0"/>
        <pt x="1658" y="1736" on="1"/>
        <pt x="1687" y="1749" on="0"/>
        <pt x="1746" y="1761" on="0"/>
        <pt x="1773" y="1761" on="1"/>
        <pt x="1806" y="1761" on="0"/>
        <pt x="1869" y="1738" on="0"/>
        <pt x="1918" y="1695" on="0"/>
        <pt x="1949" y="1631" on="0"/>
        <pt x="1949" y="1589" on="1"/>
        <pt x="1949" y="1531" on="0"/>
        <pt x="1872" y="1434" on="0"/>
        <pt x="1803" y="1405" on="1"/>
        <pt x="1773" y="1392" on="0"/>
        <pt x="1638" y="1359" on="0"/>
        <pt x="1432" y="1309" on="0"/>
        <pt x="1155" y="1238" on="0"/>
        <pt x="983" y="1187" on="1"/>
      </contour>
      <contour>
        <pt x="125" y="221" on="1"/>
        <pt x="125" y="309" on="0"/>
        <pt x="233" y="425" on="0"/>
        <pt x="411" y="492" on="0"/>
        <pt x="640" y="519" on="0"/>
        <pt x="761" y="519" on="1"/>
        <pt x="868" y="519" on="0"/>
        <pt x="1074" y="515" on="0"/>
        <pt x="1257" y="508" on="0"/>
        <pt x="1407" y="498" on="0"/>
        <pt x="1458" y="492" on="1"/>
        <pt x="1458" y="709" on="1"/>
        <pt x="1458" y="789" on="0"/>
        <pt x="1413" y="899" on="0"/>
        <pt x="1320" y="966" on="0"/>
        <pt x="1176" y="996" on="0"/>
        <pt x="1078" y="996" on="1"/>
        <pt x="1007" y="996" on="0"/>
        <pt x="864" y="992" on="0"/>
        <pt x="804" y="988" on="1"/>
        <pt x="898" y="988" on="0"/>
        <pt x="1054" y="961" on="0"/>
        <pt x="1166" y="911" on="0"/>
        <pt x="1227" y="840" on="0"/>
        <pt x="1227" y="796" on="1"/>
        <pt x="1227" y="746" on="0"/>
        <pt x="1155" y="671" on="0"/>
        <pt x="1030" y="621" on="0"/>
        <pt x="861" y="595" on="0"/>
        <pt x="764" y="595" on="1"/>
        <pt x="675" y="595" on="0"/>
        <pt x="514" y="629" on="0"/>
        <pt x="390" y="688" on="0"/>
        <pt x="317" y="769" on="0"/>
        <pt x="317" y="816" on="1"/>
        <pt x="317" y="865" on="0"/>
        <pt x="394" y="945" on="0"/>
        <pt x="525" y="1006" on="0"/>
        <pt x="698" y="1050" on="0"/>
        <pt x="891" y="1079" on="0"/>
        <pt x="1093" y="1092" on="0"/>
        <pt x="1187" y="1092" on="1"/>
        <pt x="1326" y="1092" on="0"/>
        <pt x="1610" y="1087" on="0"/>
        <pt x="1874" y="1063" on="0"/>
        <pt x="2106" y="1013" on="0"/>
        <pt x="2278" y="923" on="0"/>
        <pt x="2377" y="787" on="0"/>
        <pt x="2377" y="688" on="1"/>
        <pt x="2377" y="449" on="1"/>
        <pt x="2377" y="356" on="0"/>
        <pt x="2402" y="241" on="0"/>
        <pt x="2446" y="178" on="0"/>
        <pt x="2506" y="157" on="0"/>
        <pt x="2540" y="157" on="1"/>
        <pt x="2571" y="157" on="0"/>
        <pt x="2627" y="182" on="0"/>
        <pt x="2671" y="232" on="0"/>
        <pt x="2699" y="307" on="0"/>
        <pt x="2701" y="356" on="1"/>
        <pt x="2814" y="356" on="1"/>
        <pt x="2814" y="266" on="0"/>
        <pt x="2760" y="137" on="0"/>
        <pt x="2663" y="47" on="0"/>
        <pt x="2529" y="-6" on="0"/>
        <pt x="2370" y="-36" on="0"/>
        <pt x="2192" y="-45" on="0"/>
        <pt x="2099" y="-45" on="1"/>
        <pt x="1986" y="-45" on="0"/>
        <pt x="1795" y="-35" on="0"/>
        <pt x="1643" y="-2" on="0"/>
        <pt x="1533" y="60" on="0"/>
        <pt x="1501" y="112" on="1"/>
        <pt x="1459" y="83" on="0"/>
        <pt x="1330" y="27" on="0"/>
        <pt x="1137" y="-18" on="0"/>
        <pt x="869" y="-45" on="0"/>
        <pt x="689" y="-45" on="1"/>
        <pt x="571" y="-45" on="0"/>
        <pt x="366" y="-9" on="0"/>
        <pt x="213" y="59" on="0"/>
        <pt x="125" y="158" on="0"/>
      </contour>
      <contour>
        <pt x="1010" y="270" on="1"/>
        <pt x="1010" y="250" on="0"/>
        <pt x="1027" y="205" on="0"/>
        <pt x="1066" y="167" on="0"/>
        <pt x="1129" y="142" on="0"/>
        <pt x="1176" y="142" on="1"/>
        <pt x="1203" y="142" on="0"/>
        <pt x="1268" y="144" on="0"/>
        <pt x="1342" y="153" on="0"/>
        <pt x="1424" y="173" on="0"/>
        <pt x="1468" y="191" on="1"/>
        <pt x="1458" y="232" on="0"/>
        <pt x="1458" y="289" on="1"/>
        <pt x="1458" y="396" on="1"/>
        <pt x="1415" y="398" on="0"/>
        <pt x="1327" y="399" on="0"/>
        <pt x="1286" y="399" on="1"/>
        <pt x="1218" y="399" on="0"/>
        <pt x="1114" y="389" on="0"/>
        <pt x="1045" y="360" on="0"/>
        <pt x="1010" y="310" on="0"/>
      </contour>
    </TTGlyph>
</ttFont>
